M48
; DRILL file {KiCad (6.0.8)} date Mon Jan  2 16:12:06 2023
; FORMAT={-:-/ absolute / metric / decimal}
; #@! TF.CreationDate,2023-01-02T16:12:06+01:00
; #@! TF.GenerationSoftware,Kicad,Pcbnew,(6.0.8)
; #@! TF.FileFunction,Plated,1,2,PTH
FMAT,2
METRIC
; #@! TA.AperFunction,Plated,PTH,ViaDrill
T1C0.300
; #@! TA.AperFunction,Plated,PTH,ViaDrill
T2C0.350
; #@! TA.AperFunction,Plated,PTH,ComponentDrill
T3C0.500
; #@! TA.AperFunction,Plated,PTH,ComponentDrill
T4C0.600
; #@! TA.AperFunction,Plated,PTH,ComponentDrill
T5C1.000
; #@! TA.AperFunction,Plated,PTH,ComponentDrill
T6C1.016
; #@! TA.AperFunction,Plated,PTH,ComponentDrill
T7C3.200
%
G90
G05
T1
X119.401Y-101.604
X126.101Y-123.204
X128.501Y-105.204
X128.601Y-108.004
X128.801Y-103.904
X129.001Y-114.904
X129.501Y-128.404
X129.701Y-86.904
X129.701Y-87.904
X129.901Y-126.204
X130.297Y-108.499
X130.701Y-86.904
X130.701Y-87.904
X130.801Y-103.204
X131.001Y-111.204
X131.001Y-127.273
X131.501Y-117.604
X131.701Y-103.204
X131.901Y-132.404
X132.101Y-113.504
X133.301Y-127.804
X133.421Y-87.304
X133.701Y-109.304
X133.801Y-112.004
X133.901Y-112.804
X133.901Y-127.204
X134.301Y-86.604
X134.501Y-92.504
X135.101Y-87.004
X135.501Y-92.004
X135.501Y-115.004
X135.701Y-111.204
X136.001Y-102.404
X136.301Y-87.204
X136.501Y-92.504
X136.801Y-98.204
X137.301Y-85.704
X138.601Y-93.804
X138.801Y-118.004
X141.801Y-115.504
X142.101Y-76.504
X142.101Y-92.004
X142.301Y-109.504
X142.401Y-105.804
X143.001Y-116.059
X143.301Y-102.804
X143.401Y-98.904
X144.201Y-105.304
X144.291Y-99.014
X144.701Y-110.904
X145.101Y-93.604
X145.201Y-99.104
X145.734Y-110.904
X145.901Y-90.504
X146.001Y-99.704
X146.501Y-106.004
X146.701Y-91.304
X146.791Y-99.214
X146.901Y-123.704
X147.201Y-120.204
X147.501Y-98.604
X147.501Y-109.004
X148.401Y-93.704
X148.401Y-94.804
X148.401Y-115.304
X148.501Y-90.704
X148.501Y-95.804
X148.501Y-101.904
X148.501Y-111.004
X148.701Y-77.804
X149.001Y-114.604
X149.301Y-120.404
X149.501Y-99.373
X149.501Y-106.004
X149.601Y-115.504
X149.801Y-111.004
X150.501Y-98.704
X150.601Y-90.804
X150.901Y-111.004
X151.501Y-98.704
X151.901Y-105.404
X152.701Y-100.004
X152.901Y-107.404
X153.001Y-82.704
X153.521Y-101.804
X154.501Y-100.504
X154.601Y-103.004
X154.601Y-104.004
X154.601Y-107.004
X154.601Y-108.004
X154.601Y-109.504
X154.601Y-110.504
X154.601Y-114.604
X154.801Y-99.104
X154.901Y-76.504
X155.201Y-97.204
X155.701Y-92.004
X156.301Y-113.404
X156.601Y-93.004
X156.601Y-97.204
X157.201Y-130.004
X157.501Y-98.604
X157.501Y-103.704
X157.601Y-122.404
X157.701Y-107.423
X157.701Y-108.763
X157.801Y-109.923
X157.801Y-112.004
X157.901Y-99.773
X157.901Y-102.323
X158.201Y-96.104
X158.501Y-111.204
X160.101Y-80.304
X160.401Y-96.204
X160.501Y-122.304
X160.801Y-115.504
X161.601Y-96.204
X162.201Y-118.104
X162.501Y-112.504
X163.501Y-92.004
X163.801Y-85.904
X164.301Y-114.404
X164.501Y-95.904
X165.101Y-105.504
X166.401Y-118.904
T2
X126.446Y-119.704
X127.801Y-120.686
X130.301Y-98.904
X131.052Y-99.653
X131.676Y-99.028
X132.301Y-98.404
T3
X121.101Y-80.004
X121.101Y-130.004
X121.804Y-78.307
X121.804Y-81.701
X121.804Y-128.307
X121.804Y-131.701
X123.501Y-77.604
X123.501Y-82.404
X123.501Y-127.604
X123.501Y-132.404
X125.198Y-78.307
X125.198Y-81.701
X125.198Y-128.307
X125.198Y-131.701
X125.901Y-80.004
X125.901Y-130.004
X171.101Y-80.004
X171.101Y-130.004
X171.804Y-78.307
X171.804Y-81.701
X171.804Y-128.307
X171.804Y-131.701
X173.501Y-77.604
X173.501Y-82.404
X173.501Y-127.604
X173.501Y-132.404
X175.198Y-78.307
X175.198Y-81.701
X175.198Y-128.307
X175.198Y-131.701
X175.901Y-80.004
X175.901Y-130.004
T4
X120.201Y-115.684
X120.201Y-124.324
X124.381Y-115.684
X124.381Y-124.324
T5
X139.611Y-78.734
X139.611Y-81.274
X142.151Y-78.734
X142.151Y-81.274
X144.691Y-78.734
X144.691Y-81.274
X147.231Y-78.734
X147.231Y-81.274
X149.771Y-78.734
X149.771Y-81.274
X152.311Y-78.734
X152.311Y-81.274
X154.851Y-78.734
X154.851Y-81.274
X157.391Y-78.734
X157.391Y-81.274
T6
X121.831Y-88.624
X121.831Y-91.164
X121.831Y-93.704
X121.831Y-96.244
X121.831Y-98.784
X122.101Y-102.124
X122.101Y-104.664
X122.101Y-107.204
X122.101Y-109.744
X122.101Y-112.284
X124.371Y-88.624
X124.371Y-91.164
X124.371Y-93.704
X124.371Y-96.244
X124.371Y-98.784
X129.462Y-78.734
X129.462Y-81.274
X130.501Y-91.804
X130.501Y-94.304
X132.002Y-78.734
X132.002Y-81.274
X132.421Y-121.204
X134.961Y-121.204
X137.501Y-121.204
X138.031Y-128.734
X138.031Y-131.274
X140.041Y-121.204
X140.571Y-128.734
X140.571Y-131.274
X142.581Y-121.204
X143.111Y-128.734
X143.111Y-131.274
X145.651Y-128.734
X145.651Y-131.274
X148.191Y-128.734
X148.191Y-131.274
X150.731Y-128.734
X150.731Y-131.274
X153.271Y-128.734
X153.271Y-131.274
X155.811Y-128.734
X155.811Y-131.274
X155.931Y-119.404
X158.351Y-128.734
X158.351Y-131.274
X158.471Y-119.404
X160.891Y-128.734
X160.891Y-131.274
X163.431Y-128.734
X163.431Y-131.274
X165.011Y-78.734
X165.011Y-81.274
X165.971Y-128.734
X165.971Y-131.274
X167.551Y-78.734
X167.551Y-81.274
X172.231Y-91.024
X172.231Y-93.564
X172.231Y-96.104
X172.231Y-98.644
X172.231Y-101.184
X172.231Y-104.724
X172.231Y-107.264
X172.231Y-109.804
X172.231Y-112.344
X172.231Y-114.884
X174.771Y-91.024
X174.771Y-93.564
X174.771Y-96.104
X174.771Y-98.644
X174.771Y-101.184
X174.771Y-104.724
X174.771Y-107.264
X174.771Y-109.804
X174.771Y-112.344
X174.771Y-114.884
T7
X123.501Y-80.004
X123.501Y-130.004
X173.501Y-80.004
X173.501Y-130.004
T0
M30
