0
SECTION
2
HEADER
9
$INSUNITS
70
4
9
$ACADVER
1
AC1014
9
$HANDSEED
5
FFFF
0
ENDSEC
0
SECTION
2
TABLES
0
TABLE
2
VPORT
5
8
100
AcDbSymbolTable
0
ENDTAB
0
TABLE
2
LTYPE
5
5
100
AcDbSymbolTable
0
LTYPE
5
14
100
AcDbSymbolTableRecord
100
AcDbLinetypeTableRecord
2
BYBLOCK
70
0
0
LTYPE
5
15
100
AcDbSymbolTableRecord
100
AcDbLinetypeTableRecord
2
BYLAYER
70
0
0
LTYPE
5
16
100
AcDbSymbolTableRecord
100
AcDbLinetypeTableRecord
2
DASHED
70
0
3
Dashed __ __ __ __ __ __ __ __ __ __ __ __ __ _
72
65
73
2
40
0.75
49
0.5
74
0
49
-0.25
74
0
0
ENDTAB
0
TABLE
2
LAYER
5
2
100
AcDbSymbolTable
70
3
0
LAYER
5
50
100
AcDbSymbolTableRecord
100
AcDbLayerTableRecord
2
1
70
0
62
7
6
DASHED
0
LAYER
5
51
100
AcDbSymbolTableRecord
100
AcDbLayerTableRecord
2
0
70
0
62
7
6
CONTINUOUS
0
ENDTAB
0
TABLE
2
STYLE
5
3
100
AcDbSymbolTable
70
1
0
STYLE
5
11
100
AcDbSymbolTableRecord
100
AcDbTextStyleTableRecord
2
STANDARD
70
0
0
ENDTAB
0
TABLE
2
VIEW
5
6
100
AcDbSymbolTable
70
0
0
ENDTAB
0
TABLE
2
UCS
5
7
100
AcDbSymbolTable
70
0
0
ENDTAB
0
TABLE
2
APPID
5
9
100
AcDbSymbolTable
70
2
0
APPID
5
12
100
AcDbSymbolTableRecord
100
AcDbRegAppTableRecord
2
ACAD
70
0
0
ENDTAB
0
TABLE
2
DIMSTYLE
5
A
100
AcDbSymbolTable
70
1
0
ENDTAB
0
TABLE
2
BLOCK_RECORD
5
1
100
AcDbSymbolTable
70
1
0
BLOCK_RECORD
5
1F
100
AcDbSymbolTableRecord
100
AcDbBlockTableRecord
2
*MODEL_SPACE
0
BLOCK_RECORD
5
1B
100
AcDbSymbolTableRecord
100
AcDbBlockTableRecord
2
*PAPER_SPACE
0
ENDTAB
0
ENDSEC
0
SECTION
2
BLOCKS
0
BLOCK
5
20
100
AcDbEntity
100
AcDbBlockBegin
2
*MODEL_SPACE
0
ENDBLK
5
21
100
AcDbEntity
100
AcDbBlockEnd
0
BLOCK
5
1C
100
AcDbEntity
100
AcDbBlockBegin
2
*PAPER_SPACE
0
ENDBLK
5
1D
100
AcDbEntity
100
AcDbBlockEnd
0
ENDSEC
0
SECTION
2
ENTITIES
0
CIRCLE
5
100
100
AcDbEntity
8
0
100
AcDbCircle
10
-55
20
55
30
0
40
1.6000000000000014
210
0
220
-0
230
1
0
LWPOLYLINE
5
101
100
AcDbEntity
8
0
100
AcDbPolyline
90
4
70
1
43
0.0
10
-58.560000000000073
20
42.149999999999686
10
-51.480000000000111
20
42.149999999999686
10
-51.480000000000111
20
13.749999999999813
10
-58.560000000000073
20
13.749999999999813
0
CIRCLE
5
102
100
AcDbEntity
8
0
100
AcDbCircle
10
-55
20
5
30
0
40
1.6000000000000014
210
0
220
-0
230
1
0
CIRCLE
5
103
100
AcDbEntity
8
0
100
AcDbCircle
10
-54.999999999999993
20
104.99999999999999
30
0
40
1.6000000000000014
210
0
220
-0
230
1
0
CIRCLE
5
104
100
AcDbEntity
8
0
100
AcDbCircle
10
-5.0000000000000009
20
55.000000000000007
30
0
40
1.6000000000000025
210
0
220
-0
230
1
0
CIRCLE
5
105
100
AcDbEntity
8
0
100
AcDbCircle
10
-5
20
5
30
0
40
1.6000000000000003
210
0
220
-0
230
1
0
CIRCLE
5
106
100
AcDbEntity
8
0
100
AcDbCircle
10
-5.0000000000000009
20
105.00000000000001
30
0
40
1.6000000000000014
210
0
220
-0
230
1
0
LWPOLYLINE
5
107
100
AcDbEntity
8
0
100
AcDbPolyline
90
4
70
1
43
0.0
10
-36.250000000000036
20
81.499999999999602
10
-36.250000000000036
20
97.499999999999588
10
-34.250000000000036
20
97.499999999999588
10
-34.250000000000036
20
81.499999999999602
0
LWPOLYLINE
5
108
100
AcDbEntity
8
0
100
AcDbPolyline
90
4
70
1
43
0.0
10
-36.250000000000036
20
62.499999999999588
10
-36.250000000000036
20
78.499999999999602
10
-34.250000000000036
20
78.499999999999602
10
-34.250000000000036
20
62.499999999999588
0
LWPOLYLINE
5
109
100
AcDbEntity
8
0
100
AcDbPolyline
90
4
70
1
43
0.0
10
-32.750000000000043
20
81.499999999999602
10
-32.750000000000043
20
97.499999999999588
10
-30.750000000000036
20
97.499999999999588
10
-30.750000000000036
20
81.499999999999602
0
LWPOLYLINE
5
110
100
AcDbEntity
8
0
100
AcDbPolyline
90
4
70
1
43
0.0
10
-29.250000000000036
20
81.499999999999602
10
-29.250000000000036
20
97.499999999999588
10
-27.250000000000032
20
97.499999999999588
10
-27.250000000000036
20
81.499999999999602
0
LWPOLYLINE
5
111
100
AcDbEntity
8
0
100
AcDbPolyline
90
4
70
1
43
0.0
10
-25.750000000000036
20
81.499999999999602
10
-25.750000000000036
20
97.499999999999588
10
-23.750000000000036
20
97.499999999999588
10
-23.750000000000036
20
81.499999999999602
0
LWPOLYLINE
5
112
100
AcDbEntity
8
0
100
AcDbPolyline
90
4
70
1
43
0.0
10
-45.749914102117309
20
85.914772727272734
42
2.8167375014871814
10
-57.100085897882721
20
85.914772727272748
42
-0.47599225798979017
10
-57.100085897882721
20
82.810227272727275
42
2.8167375014871836
10
-45.749914102117302
20
82.810227272727332
42
-0.4759922579897885
0
LWPOLYLINE
5
113
100
AcDbEntity
8
0
100
AcDbPolyline
90
4
70
1
43
0.0
10
-29.250000000000036
20
62.499999999999588
10
-29.250000000000036
20
78.499999999999602
10
-27.250000000000032
20
78.499999999999602
10
-27.250000000000036
20
62.499999999999588
0
LWPOLYLINE
5
114
100
AcDbEntity
8
0
100
AcDbPolyline
90
4
70
1
43
0.0
10
-18.750000000000039
20
81.499999999999602
10
-18.750000000000039
20
97.499999999999588
10
-16.750000000000039
20
97.499999999999588
10
-16.750000000000039
20
81.499999999999602
0
LWPOLYLINE
5
115
100
AcDbEntity
8
0
100
AcDbPolyline
90
4
70
1
43
0.0
10
-22.250000000000036
20
81.499999999999602
10
-22.250000000000036
20
97.499999999999588
10
-20.250000000000039
20
97.499999999999588
10
-20.250000000000039
20
81.499999999999602
0
LWPOLYLINE
5
116
100
AcDbEntity
8
0
100
AcDbPolyline
90
4
70
1
43
0.0
10
-32.750000000000043
20
62.499999999999588
10
-32.750000000000043
20
78.499999999999602
10
-30.750000000000036
20
78.499999999999602
10
-30.750000000000036
20
62.499999999999588
0
LWPOLYLINE
5
117
100
AcDbEntity
8
0
100
AcDbPolyline
90
4
70
1
43
0.0
10
-25.750000000000036
20
62.499999999999588
10
-25.750000000000036
20
78.499999999999602
10
-23.750000000000036
20
78.499999999999602
10
-23.750000000000036
20
62.499999999999588
0
LWPOLYLINE
5
118
100
AcDbEntity
8
0
100
AcDbPolyline
90
4
70
1
43
0.0
10
-22.250000000000036
20
62.499999999999588
10
-22.250000000000036
20
78.499999999999602
10
-20.250000000000039
20
78.499999999999602
10
-20.250000000000039
20
62.499999999999588
0
LWPOLYLINE
5
119
100
AcDbEntity
8
0
100
AcDbPolyline
90
4
70
1
43
0.0
10
-18.750000000000039
20
78.499999999999602
10
-16.750000000000039
20
78.499999999999602
10
-16.750000000000039
20
62.499999999999588
10
-18.750000000000036
20
62.499999999999588
0
CIRCLE
5
120
100
AcDbEntity
8
0
100
AcDbCircle
10
-14.000000000000039
20
93.999999999999602
30
0
40
1.6000000000000036
210
0
220
-0
230
1
0
CIRCLE
5
121
100
AcDbEntity
8
0
100
AcDbCircle
10
-39.000000000000043
20
68.999999999999602
30
0
40
1.6000000000000014
210
0
220
-0
230
1
0
CIRCLE
5
122
100
AcDbEntity
8
0
100
AcDbCircle
10
-17.000000000000263
20
17.999999999999755
30
0
40
3.0000000000000004
210
0
220
-0
230
1
0
CIRCLE
5
123
100
AcDbEntity
8
0
100
AcDbCircle
10
-39.000000000000043
20
93.999999999999602
30
0
40
1.6000000000000014
210
0
220
-0
230
1
0
CIRCLE
5
124
100
AcDbEntity
8
0
100
AcDbCircle
10
-14.000000000000039
20
68.999999999999602
30
0
40
1.6000000000000014
210
0
220
-0
230
1
0
CIRCLE
5
125
100
AcDbEntity
8
0
100
AcDbCircle
10
-43.000000000000149
20
17.999999999999787
30
0
40
2.9999999999999982
210
0
220
-0
230
1
0
LWPOLYLINE
5
126
100
AcDbEntity
8
0
100
AcDbPolyline
90
4
70
1
43
0.0
10
-49.740000000000073
20
58.559999999999619
10
-17.260000000000208
20
58.559999999999619
10
-17.260000000000208
20
51.479999999999649
10
-49.740000000000073
20
51.479999999999649
0
LWPOLYLINE
5
127
100
AcDbEntity
8
0
100
AcDbPolyline
90
8
70
1
43
0.0
10
3.000000000000016
20
104.99999999999804
42
0.41421356237323875
10
-5.0000000000019549
20
113
10
-54.99999999999762
20
113
42
0.41421356237326767
10
-63
20
104.99999999999764
10
-62.999999999999964
20
4.9999999999995914
42
0.41421356237323875
10
-54.999999999995666
20
-3.0000000000047224
10
-5
20
-3.0000000000000071
42
0.41421356237309498
10
3.0000000000000049
20
4.9999999999999982
0
LWPOLYLINE
5
128
100
AcDbEntity
8
0
100
AcDbPolyline
90
4
70
1
43
0.0
10
-26.3500000000002
20
48.449999999999619
10
-11.650000000000258
20
48.449999999999619
10
-11.650000000000258
20
43.909999999999634
10
-26.3500000000002
20
43.909999999999634
0
ENDSEC
0
SECTION
2
OBJECTS
0
DICTIONARY
5
C
100
AcDbDictionary
3
ACAD_GROUP
350
D
3
ACAD_MLINESTYLE
350
17
0
DICTIONARY
5
D
100
AcDbDictionary
0
DICTIONARY
5
1A
330
C
100
AcDbDictionary
0
DICTIONARY
5
17
100
AcDbDictionary
0
ENDSEC
0
EOF
