G04 #@! TF.GenerationSoftware,KiCad,Pcbnew,(6.0.8)*
G04 #@! TF.CreationDate,2023-01-02T16:11:50+01:00*
G04 #@! TF.ProjectId,OpenFFBoard-main,4f70656e-4646-4426-9f61-72642d6d6169,1.2.4*
G04 #@! TF.SameCoordinates,Original*
G04 #@! TF.FileFunction,Paste,Top*
G04 #@! TF.FilePolarity,Positive*
%FSLAX46Y46*%
G04 Gerber Fmt 4.6, Leading zero omitted, Abs format (unit mm)*
G04 Created by KiCad (PCBNEW (6.0.8)) date 2023-01-02 16:11:50*
%MOMM*%
%LPD*%
G01*
G04 APERTURE LIST*
%ADD10R,1.000000X1.100000*%
%ADD11R,1.300000X1.500000*%
%ADD12R,2.400000X2.000000*%
%ADD13R,1.100000X1.000000*%
%ADD14R,2.540000X2.540000*%
%ADD15R,1.150000X0.600000*%
%ADD16R,1.150000X0.300000*%
%ADD17R,1.700000X1.000000*%
%ADD18R,1.200000X1.200000*%
%ADD19R,1.400000X1.800000*%
%ADD20R,1.249800X0.589100*%
%ADD21R,1.193800X0.304800*%
%ADD22R,0.304800X1.193800*%
%ADD23R,2.235200X1.219200*%
%ADD24R,2.200000X3.600000*%
%ADD25R,1.300000X0.600000*%
G04 APERTURE END LIST*
G36*
X161725982Y-98091746D02*
G01*
X161764946Y-98101028D01*
X161801879Y-98116332D01*
X161835948Y-98137243D01*
X161866447Y-98163253D01*
X161892457Y-98193752D01*
X161913368Y-98227821D01*
X161928672Y-98264754D01*
X161937954Y-98303718D01*
X161941100Y-98343402D01*
X161941100Y-98933798D01*
X161937954Y-98973482D01*
X161928672Y-99012446D01*
X161913368Y-99049379D01*
X161892457Y-99083448D01*
X161866447Y-99113947D01*
X161835948Y-99139957D01*
X161801879Y-99160868D01*
X161764946Y-99176172D01*
X161725795Y-99185498D01*
X160715910Y-99188601D01*
X160676218Y-99185454D01*
X160637254Y-99176172D01*
X160600321Y-99160868D01*
X160566252Y-99139957D01*
X160535753Y-99113947D01*
X160509743Y-99083448D01*
X160488832Y-99049379D01*
X160473528Y-99012446D01*
X160464246Y-98973482D01*
X160461100Y-98933798D01*
X160461100Y-98343402D01*
X160464246Y-98303718D01*
X160473528Y-98264754D01*
X160488832Y-98227821D01*
X160509743Y-98193752D01*
X160535753Y-98163253D01*
X160566252Y-98137243D01*
X160600321Y-98116332D01*
X160637254Y-98101028D01*
X160676405Y-98091702D01*
X161686290Y-98088599D01*
X161725982Y-98091746D01*
G37*
G36*
X161725982Y-99821746D02*
G01*
X161764946Y-99831028D01*
X161801879Y-99846332D01*
X161835948Y-99867243D01*
X161866447Y-99893253D01*
X161892457Y-99923752D01*
X161913368Y-99957821D01*
X161928672Y-99994754D01*
X161937954Y-100033718D01*
X161941100Y-100073402D01*
X161941100Y-100663798D01*
X161937954Y-100703482D01*
X161928672Y-100742446D01*
X161913368Y-100779379D01*
X161892457Y-100813448D01*
X161866447Y-100843947D01*
X161835948Y-100869957D01*
X161801879Y-100890868D01*
X161764946Y-100906172D01*
X161725795Y-100915498D01*
X160715910Y-100918601D01*
X160676218Y-100915454D01*
X160637254Y-100906172D01*
X160600321Y-100890868D01*
X160566252Y-100869957D01*
X160535753Y-100843947D01*
X160509743Y-100813448D01*
X160488832Y-100779379D01*
X160473528Y-100742446D01*
X160464246Y-100703482D01*
X160461100Y-100663798D01*
X160461100Y-100073402D01*
X160464246Y-100033718D01*
X160473528Y-99994754D01*
X160488832Y-99957821D01*
X160509743Y-99923752D01*
X160535753Y-99893253D01*
X160566252Y-99867243D01*
X160600321Y-99846332D01*
X160637254Y-99831028D01*
X160676405Y-99821702D01*
X161686290Y-99818599D01*
X161725982Y-99821746D01*
G37*
D10*
X162601100Y-107803600D03*
X162601100Y-106103600D03*
D11*
X126251100Y-101603600D03*
X128151100Y-101603600D03*
D10*
X163151100Y-97903600D03*
X164851100Y-97903600D03*
X139001100Y-110353600D03*
X139001100Y-112053600D03*
D12*
X159801100Y-103203600D03*
X159801100Y-107203600D03*
D10*
X126051100Y-107903600D03*
X127751100Y-107903600D03*
X126051100Y-105803600D03*
X127751100Y-105803600D03*
X173251100Y-122203600D03*
X171551100Y-122203600D03*
D13*
X164851100Y-100003600D03*
X163151100Y-100003600D03*
D10*
X132351100Y-96903600D03*
X130651100Y-96903600D03*
D14*
X128501100Y-116123100D03*
X128501100Y-111424100D03*
D13*
X153851100Y-95403600D03*
X155551100Y-95403600D03*
X159161100Y-109463600D03*
X160861100Y-109463600D03*
D10*
X129651100Y-118703600D03*
X127951100Y-118703600D03*
D15*
X124956100Y-116803600D03*
X124956100Y-117603600D03*
D16*
X124956100Y-118753600D03*
X124956100Y-119753600D03*
X124956100Y-120253600D03*
X124956100Y-121253600D03*
D15*
X124956100Y-122403600D03*
X124956100Y-123203600D03*
X124956100Y-123203600D03*
X124956100Y-122403600D03*
D16*
X124956100Y-121753600D03*
X124956100Y-120753600D03*
X124956100Y-119253600D03*
X124956100Y-118253600D03*
D15*
X124956100Y-117603600D03*
X124956100Y-116803600D03*
D17*
X138651100Y-91103600D03*
X132351100Y-91103600D03*
X138651100Y-94903600D03*
X132351100Y-94903600D03*
D13*
X165751100Y-125203600D03*
X167451100Y-125203600D03*
D10*
X162601100Y-102603600D03*
X162601100Y-104303600D03*
D18*
X177101100Y-120553600D03*
X177101100Y-118453600D03*
X165101100Y-120553600D03*
X165101100Y-118453600D03*
D10*
X177251100Y-122203600D03*
X175551100Y-122203600D03*
D19*
X124001100Y-85903600D03*
X120601100Y-85903600D03*
D18*
X169101100Y-120553600D03*
X169101100Y-118453600D03*
D17*
X164651100Y-91103600D03*
X158351100Y-91103600D03*
X164651100Y-94903600D03*
X158351100Y-94903600D03*
D13*
X142651100Y-95103600D03*
X140951100Y-95103600D03*
D10*
X132751100Y-108303600D03*
X131051100Y-108303600D03*
X126051100Y-103703600D03*
X127751100Y-103703600D03*
X169251100Y-122203600D03*
X167551100Y-122203600D03*
D20*
X136957400Y-110253600D03*
X136957400Y-109303600D03*
X136957400Y-108353600D03*
X134444800Y-108353600D03*
X134444800Y-109303600D03*
X134444800Y-110253600D03*
D18*
X173101100Y-120553600D03*
X173101100Y-118453600D03*
D10*
X159201100Y-98553600D03*
X159201100Y-100253600D03*
D13*
X153601100Y-119253600D03*
X153601100Y-120953600D03*
D21*
X156251100Y-111003600D03*
X156251100Y-110503600D03*
X156251100Y-110003600D03*
X156251100Y-109503600D03*
X156251100Y-109003600D03*
X156251100Y-108503600D03*
X156251100Y-108003600D03*
X156251100Y-107503600D03*
X156251100Y-107003600D03*
X156251100Y-106503600D03*
X156251100Y-106003600D03*
X156251100Y-105503600D03*
X156251100Y-105003600D03*
X156251100Y-104503600D03*
X156251100Y-104003600D03*
X156251100Y-103503600D03*
X156251100Y-103003600D03*
X156251100Y-102503600D03*
X156251100Y-102003600D03*
X156251100Y-101503600D03*
X156251100Y-101003600D03*
X156251100Y-100503600D03*
X156251100Y-100003600D03*
X156251100Y-99503600D03*
X156251100Y-99003600D03*
D22*
X154501100Y-97253600D03*
X154001100Y-97253600D03*
X153501100Y-97253600D03*
X153001100Y-97253600D03*
X152501100Y-97253600D03*
X152001100Y-97253600D03*
X151501100Y-97253600D03*
X151001100Y-97253600D03*
X150501100Y-97253600D03*
X150001100Y-97253600D03*
X149501100Y-97253600D03*
X149001100Y-97253600D03*
X148501100Y-97253600D03*
X148001100Y-97253600D03*
X147501100Y-97253600D03*
X147001100Y-97253600D03*
X146501100Y-97253600D03*
X146001100Y-97253600D03*
X145501100Y-97253600D03*
X145001100Y-97253600D03*
X144501100Y-97253600D03*
X144001100Y-97253600D03*
X143501100Y-97253600D03*
X143001100Y-97253600D03*
X142501100Y-97253600D03*
D21*
X140751100Y-99003600D03*
X140751100Y-99503600D03*
X140751100Y-100003600D03*
X140751100Y-100503600D03*
X140751100Y-101003600D03*
X140751100Y-101503600D03*
X140751100Y-102003600D03*
X140751100Y-102503600D03*
X140751100Y-103003600D03*
X140751100Y-103503600D03*
X140751100Y-104003600D03*
X140751100Y-104503600D03*
X140751100Y-105003600D03*
X140751100Y-105503600D03*
X140751100Y-106003600D03*
X140751100Y-106503600D03*
X140751100Y-107003600D03*
X140751100Y-107503600D03*
X140751100Y-108003600D03*
X140751100Y-108503600D03*
X140751100Y-109003600D03*
X140751100Y-109503600D03*
X140751100Y-110003600D03*
X140751100Y-110503600D03*
X140751100Y-111003600D03*
D22*
X142501100Y-112753600D03*
X143001100Y-112753600D03*
X143501100Y-112753600D03*
X144001100Y-112753600D03*
X144501100Y-112753600D03*
X145001100Y-112753600D03*
X145501100Y-112753600D03*
X146001100Y-112753600D03*
X146501100Y-112753600D03*
X147001100Y-112753600D03*
X147501100Y-112753600D03*
X148001100Y-112753600D03*
X148501100Y-112753600D03*
X149001100Y-112753600D03*
X149501100Y-112753600D03*
X150001100Y-112753600D03*
X150501100Y-112753600D03*
X151001100Y-112753600D03*
X151501100Y-112753600D03*
X152001100Y-112753600D03*
X152501100Y-112753600D03*
X153001100Y-112753600D03*
X153501100Y-112753600D03*
X154001100Y-112753600D03*
X154501100Y-112753600D03*
D13*
X139591100Y-96903600D03*
X137891100Y-96903600D03*
X127351100Y-126103600D03*
X129051100Y-126103600D03*
D10*
X141001100Y-113653600D03*
X141001100Y-115353600D03*
D23*
X132602300Y-112792200D03*
X132602300Y-115103600D03*
X132602300Y-117415000D03*
D24*
X138800100Y-115103600D03*
D11*
X164811100Y-102213600D03*
X166711100Y-102213600D03*
D10*
X137651100Y-106403600D03*
X135951100Y-106403600D03*
D13*
X127351100Y-124003600D03*
X129051100Y-124003600D03*
D10*
X165151100Y-122203600D03*
X163451100Y-122203600D03*
X127351100Y-121903600D03*
X129051100Y-121903600D03*
D13*
X135801100Y-130153600D03*
X135801100Y-128453600D03*
D25*
X128651100Y-129098600D03*
X128651100Y-130368600D03*
X128651100Y-131638600D03*
X128651100Y-132908600D03*
X133951100Y-132908600D03*
X133951100Y-131638600D03*
X133951100Y-130368600D03*
X133951100Y-129098600D03*
D10*
X132751100Y-110403600D03*
X131051100Y-110403600D03*
D11*
X156151100Y-114703600D03*
X158051100Y-114703600D03*
D13*
X133751100Y-96903600D03*
X135451100Y-96903600D03*
M02*
