G04 #@! TF.GenerationSoftware,KiCad,Pcbnew,(6.0.8)*
G04 #@! TF.CreationDate,2023-01-02T16:11:50+01:00*
G04 #@! TF.ProjectId,OpenFFBoard-main,4f70656e-4646-4426-9f61-72642d6d6169,1.2.4*
G04 #@! TF.SameCoordinates,Original*
G04 #@! TF.FileFunction,Legend,Top*
G04 #@! TF.FilePolarity,Positive*
%FSLAX46Y46*%
G04 Gerber Fmt 4.6, Leading zero omitted, Abs format (unit mm)*
G04 Created by KiCad (PCBNEW (6.0.8)) date 2023-01-02 16:11:50*
%MOMM*%
%LPD*%
G01*
G04 APERTURE LIST*
G04 Aperture macros list*
%AMRoundRect*
0 Rectangle with rounded corners*
0 $1 Rounding radius*
0 $2 $3 $4 $5 $6 $7 $8 $9 X,Y pos of 4 corners*
0 Add a 4 corners polygon primitive as box body*
4,1,4,$2,$3,$4,$5,$6,$7,$8,$9,$2,$3,0*
0 Add four circle primitives for the rounded corners*
1,1,$1+$1,$2,$3*
1,1,$1+$1,$4,$5*
1,1,$1+$1,$6,$7*
1,1,$1+$1,$8,$9*
0 Add four rect primitives between the rounded corners*
20,1,$1+$1,$2,$3,$4,$5,0*
20,1,$1+$1,$4,$5,$6,$7,0*
20,1,$1+$1,$6,$7,$8,$9,0*
20,1,$1+$1,$8,$9,$2,$3,0*%
%AMFreePoly0*
4,1,17,0.351552,0.797921,0.797921,0.351552,0.812800,0.315631,0.812800,-0.315631,0.797921,-0.351552,0.351552,-0.797921,0.315631,-0.812800,-0.315631,-0.812800,-0.351552,-0.797921,-0.797921,-0.351552,-0.812800,-0.315631,-0.812800,0.315631,-0.797921,0.351552,-0.351552,0.797921,-0.315631,0.812800,0.315631,0.812800,0.351552,0.797921,0.351552,0.797921,$1*%
G04 Aperture macros list end*
%ADD10C,0.152400*%
%ADD11C,0.101600*%
%ADD12C,0.100000*%
%ADD13C,0.200000*%
%ADD14C,0.112000*%
%ADD15C,0.080000*%
%ADD16C,0.136000*%
%ADD17C,0.120000*%
%ADD18C,0.096000*%
%ADD19C,0.104000*%
%ADD20C,0.065024*%
%ADD21C,0.144000*%
%ADD22C,0.093472*%
%ADD23C,0.114300*%
%ADD24C,0.029911*%
%ADD25C,0.130861*%
%ADD26C,0.086400*%
%ADD27C,0.071628*%
%ADD28C,0.073600*%
%ADD29C,0.127000*%
%ADD30C,0.063400*%
%ADD31C,0.125000*%
%ADD32C,0.203200*%
%ADD33C,0.250000*%
%ADD34RoundRect,0.050800X0.500000X-0.550000X0.500000X0.550000X-0.500000X0.550000X-0.500000X-0.550000X0*%
%ADD35RoundRect,0.050800X-0.650000X-0.750000X0.650000X-0.750000X0.650000X0.750000X-0.650000X0.750000X0*%
%ADD36RoundRect,0.050800X-0.500000X-0.550000X0.500000X-0.550000X0.500000X0.550000X-0.500000X0.550000X0*%
%ADD37RoundRect,0.050800X-0.500000X0.550000X-0.500000X-0.550000X0.500000X-0.550000X0.500000X0.550000X0*%
%ADD38RoundRect,0.050800X1.200000X-1.000000X1.200000X1.000000X-1.200000X1.000000X-1.200000X-1.000000X0*%
%ADD39RoundRect,0.050800X-1.200000X1.000000X-1.200000X-1.000000X1.200000X-1.000000X1.200000X1.000000X0*%
%ADD40FreePoly0,0.000000*%
%ADD41RoundRect,0.050800X0.500000X0.550000X-0.500000X0.550000X-0.500000X-0.550000X0.500000X-0.550000X0*%
%ADD42RoundRect,0.050800X0.550000X0.500000X-0.550000X0.500000X-0.550000X-0.500000X0.550000X-0.500000X0*%
%ADD43C,0.800000*%
%ADD44C,6.400000*%
%ADD45O,1.625600X3.149600*%
%ADD46RoundRect,0.050800X1.270000X-1.270000X1.270000X1.270000X-1.270000X1.270000X-1.270000X-1.270000X0*%
%ADD47RoundRect,0.050800X-1.270000X1.270000X-1.270000X-1.270000X1.270000X-1.270000X1.270000X1.270000X0*%
%ADD48RoundRect,0.050800X-0.550000X-0.500000X0.550000X-0.500000X0.550000X0.500000X-0.550000X0.500000X0*%
%ADD49C,0.650000*%
%ADD50RoundRect,0.050800X-0.575000X0.300000X-0.575000X-0.300000X0.575000X-0.300000X0.575000X0.300000X0*%
%ADD51RoundRect,0.050800X-0.575000X0.150000X-0.575000X-0.150000X0.575000X-0.150000X0.575000X0.150000X0*%
%ADD52O,2.101600X1.101600*%
%ADD53O,2.201600X1.151600*%
%ADD54RoundRect,0.050800X0.850000X0.500000X-0.850000X0.500000X-0.850000X-0.500000X0.850000X-0.500000X0*%
%ADD55RoundRect,0.050800X-0.600000X0.600000X-0.600000X-0.600000X0.600000X-0.600000X0.600000X0.600000X0*%
%ADD56O,3.149600X1.625600*%
%ADD57RoundRect,0.050800X-0.700000X-0.900000X0.700000X-0.900000X0.700000X0.900000X-0.700000X0.900000X0*%
%ADD58RoundRect,0.050800X0.624900X0.294550X-0.624900X0.294550X-0.624900X-0.294550X0.624900X-0.294550X0*%
%ADD59FreePoly0,90.000000*%
%ADD60FreePoly0,180.000000*%
%ADD61RoundRect,0.050800X-0.550000X0.500000X-0.550000X-0.500000X0.550000X-0.500000X0.550000X0.500000X0*%
%ADD62RoundRect,0.050800X0.596900X0.152400X-0.596900X0.152400X-0.596900X-0.152400X0.596900X-0.152400X0*%
%ADD63RoundRect,0.050800X-0.152400X0.596900X-0.152400X-0.596900X0.152400X-0.596900X0.152400X0.596900X0*%
%ADD64RoundRect,0.050800X-0.596900X-0.152400X0.596900X-0.152400X0.596900X0.152400X-0.596900X0.152400X0*%
%ADD65RoundRect,0.050800X0.152400X-0.596900X0.152400X0.596900X-0.152400X0.596900X-0.152400X-0.596900X0*%
%ADD66FreePoly0,270.000000*%
%ADD67RoundRect,0.050800X-1.117600X0.609600X-1.117600X-0.609600X1.117600X-0.609600X1.117600X0.609600X0*%
%ADD68RoundRect,0.050800X-1.100000X1.800000X-1.100000X-1.800000X1.100000X-1.800000X1.100000X1.800000X0*%
%ADD69RoundRect,0.050800X0.550000X-0.500000X0.550000X0.500000X-0.550000X0.500000X-0.550000X-0.500000X0*%
%ADD70RoundRect,0.050800X-0.650000X0.300000X-0.650000X-0.300000X0.650000X-0.300000X0.650000X0.300000X0*%
%ADD71C,1.524000*%
G04 APERTURE END LIST*
D10*
X136701100Y-127303600D02*
X139401100Y-127303600D01*
X139401100Y-127303600D02*
X139401100Y-132603600D01*
X139401100Y-132603600D02*
X136701100Y-132603600D01*
X136701100Y-132603600D02*
X136701100Y-127303600D01*
D11*
X119401100Y-95003600D02*
X126901100Y-95003600D01*
X119401100Y-92403600D02*
X126901100Y-92403600D01*
X177901100Y-97403600D02*
X169101100Y-97403600D01*
X141801100Y-132003600D02*
X141801100Y-135003600D01*
D12*
X164701100Y-128003600D02*
X164701100Y-124003600D01*
D11*
X154601100Y-132003600D02*
X154601100Y-135103600D01*
X119301100Y-97503600D02*
X127501100Y-97503600D01*
D12*
X159701100Y-128003600D02*
X159701100Y-124003600D01*
X164801100Y-135803600D02*
X164801100Y-131803600D01*
D11*
X173501100Y-103503600D02*
X173501100Y-116103600D01*
X138401100Y-132903600D02*
X138401100Y-135003600D01*
D13*
X138001100Y-95603600D02*
X129101100Y-95603600D01*
D12*
X162201100Y-128003600D02*
X162201100Y-124003600D01*
X157101100Y-128003600D02*
X157101100Y-124003600D01*
X144401100Y-128003600D02*
X144401100Y-124003600D01*
X141901100Y-128003600D02*
X141901100Y-124003600D01*
D11*
X138801100Y-120803600D02*
X138801100Y-124003600D01*
D12*
X177701100Y-92003600D02*
X175701100Y-92003600D01*
D11*
X139401100Y-127303600D02*
X139401100Y-132003600D01*
D12*
X147001100Y-128003600D02*
X147001100Y-124003600D01*
X159701100Y-135503600D02*
X159701100Y-131503600D01*
X154601100Y-128003600D02*
X154601100Y-124003600D01*
X118601100Y-100903600D02*
X126401100Y-100903600D01*
D11*
X152101100Y-132003600D02*
X152101100Y-135003600D01*
D13*
X147101100Y-123403600D02*
X151801100Y-123403600D01*
X129101100Y-90503600D02*
X138001100Y-90503600D01*
D11*
X135001100Y-134603600D02*
X135001100Y-127303600D01*
X177901100Y-113603600D02*
X169101100Y-113603600D01*
X122701100Y-105903600D02*
X125501100Y-105903600D01*
D13*
X157101100Y-131903600D02*
X157101100Y-132203600D01*
D11*
X139401100Y-132003600D02*
X138401100Y-132903600D01*
X126901100Y-96903600D02*
X126901100Y-88703600D01*
D13*
X168701100Y-113003600D02*
X168701100Y-106003600D01*
X168701100Y-100703600D02*
X168701100Y-92903600D01*
D11*
X133701100Y-120903600D02*
X133701100Y-124103600D01*
X178001100Y-94903600D02*
X169201100Y-94903600D01*
X144401100Y-132003600D02*
X144401100Y-135003600D01*
D13*
X129101100Y-95603600D02*
X129101100Y-90503600D01*
D12*
X149501100Y-128003600D02*
X149501100Y-124003600D01*
X171301100Y-92003600D02*
X169201100Y-92003600D01*
D11*
X178001100Y-106003600D02*
X169201100Y-106003600D01*
X177901100Y-111103600D02*
X169101100Y-111103600D01*
D12*
X152001100Y-128003600D02*
X152001100Y-124003600D01*
D11*
X149401100Y-132103600D02*
X149401100Y-135103600D01*
X122701100Y-103403600D02*
X125501100Y-103403600D01*
X157101100Y-132203600D02*
X157101100Y-135003600D01*
X146901100Y-132003600D02*
X146901100Y-135003600D01*
D12*
X162201100Y-135503600D02*
X162201100Y-131503600D01*
D11*
X177901100Y-99903600D02*
X169101100Y-99903600D01*
X136201100Y-120803600D02*
X136201100Y-124003600D01*
X122701100Y-111003600D02*
X125501100Y-111003600D01*
X141401100Y-120803600D02*
X141401100Y-124003600D01*
X122701100Y-108503600D02*
X125501100Y-108503600D01*
X119401100Y-89903600D02*
X126901100Y-89903600D01*
X178001100Y-108603600D02*
X169201100Y-108603600D01*
D14*
X168078433Y-120785466D02*
X168139766Y-120601466D01*
X168139766Y-120294800D01*
X168078433Y-120172133D01*
X168017100Y-120110800D01*
X167894433Y-120049466D01*
X167771766Y-120049466D01*
X167649100Y-120110800D01*
X167587766Y-120172133D01*
X167526433Y-120294800D01*
X167465100Y-120540133D01*
X167403766Y-120662800D01*
X167342433Y-120724133D01*
X167219766Y-120785466D01*
X167097100Y-120785466D01*
X166974433Y-120724133D01*
X166913100Y-120662800D01*
X166851766Y-120540133D01*
X166851766Y-120233466D01*
X166913100Y-120049466D01*
X167526433Y-119252133D02*
X168139766Y-119252133D01*
X166851766Y-119681466D02*
X167526433Y-119252133D01*
X166851766Y-118822800D01*
X168078433Y-118454800D02*
X168139766Y-118270800D01*
X168139766Y-117964133D01*
X168078433Y-117841466D01*
X168017100Y-117780133D01*
X167894433Y-117718800D01*
X167771766Y-117718800D01*
X167649100Y-117780133D01*
X167587766Y-117841466D01*
X167526433Y-117964133D01*
X167465100Y-118209466D01*
X167403766Y-118332133D01*
X167342433Y-118393466D01*
X167219766Y-118454800D01*
X167097100Y-118454800D01*
X166974433Y-118393466D01*
X166913100Y-118332133D01*
X166851766Y-118209466D01*
X166851766Y-117902800D01*
X166913100Y-117718800D01*
D15*
X147221047Y-134156190D02*
X147221047Y-133236190D01*
X147527714Y-133893333D01*
X147834380Y-133236190D01*
X147834380Y-134156190D01*
X148272476Y-134156190D02*
X148272476Y-133236190D01*
X148622952Y-133236190D02*
X149192476Y-133236190D01*
X148885809Y-133586666D01*
X149017238Y-133586666D01*
X149104857Y-133630476D01*
X149148666Y-133674285D01*
X149192476Y-133761904D01*
X149192476Y-133980952D01*
X149148666Y-134068571D01*
X149104857Y-134112380D01*
X149017238Y-134156190D01*
X148754380Y-134156190D01*
X148666761Y-134112380D01*
X148622952Y-134068571D01*
D14*
X176451766Y-101358266D02*
X176451766Y-101603600D01*
X176513100Y-101726266D01*
X176574433Y-101787600D01*
X176758433Y-101910266D01*
X177003766Y-101971600D01*
X177494433Y-101971600D01*
X177617100Y-101910266D01*
X177678433Y-101848933D01*
X177739766Y-101726266D01*
X177739766Y-101480933D01*
X177678433Y-101358266D01*
X177617100Y-101296933D01*
X177494433Y-101235600D01*
X177187766Y-101235600D01*
X177065100Y-101296933D01*
X177003766Y-101358266D01*
X176942433Y-101480933D01*
X176942433Y-101726266D01*
X177003766Y-101848933D01*
X177065100Y-101910266D01*
X177187766Y-101971600D01*
D16*
X119471385Y-111829142D02*
X119471385Y-111307809D01*
X120290623Y-111084380D02*
X120290623Y-111829142D01*
X118726623Y-111829142D01*
X118726623Y-111084380D01*
X119247957Y-110414095D02*
X120290623Y-110414095D01*
X119396909Y-110414095D02*
X119322433Y-110339619D01*
X119247957Y-110190666D01*
X119247957Y-109967238D01*
X119322433Y-109818285D01*
X119471385Y-109743809D01*
X120290623Y-109743809D01*
X120216147Y-108328761D02*
X120290623Y-108477714D01*
X120290623Y-108775619D01*
X120216147Y-108924571D01*
X120141671Y-108999047D01*
X119992719Y-109073523D01*
X119545861Y-109073523D01*
X119396909Y-108999047D01*
X119322433Y-108924571D01*
X119247957Y-108775619D01*
X119247957Y-108477714D01*
X119322433Y-108328761D01*
X120290623Y-107435047D02*
X120216147Y-107584000D01*
X120141671Y-107658476D01*
X119992719Y-107732952D01*
X119545861Y-107732952D01*
X119396909Y-107658476D01*
X119322433Y-107584000D01*
X119247957Y-107435047D01*
X119247957Y-107211619D01*
X119322433Y-107062666D01*
X119396909Y-106988190D01*
X119545861Y-106913714D01*
X119992719Y-106913714D01*
X120141671Y-106988190D01*
X120216147Y-107062666D01*
X120290623Y-107211619D01*
X120290623Y-107435047D01*
X120290623Y-105573142D02*
X118726623Y-105573142D01*
X120216147Y-105573142D02*
X120290623Y-105722095D01*
X120290623Y-106020000D01*
X120216147Y-106168952D01*
X120141671Y-106243428D01*
X119992719Y-106317904D01*
X119545861Y-106317904D01*
X119396909Y-106243428D01*
X119322433Y-106168952D01*
X119247957Y-106020000D01*
X119247957Y-105722095D01*
X119322433Y-105573142D01*
X120216147Y-104232571D02*
X120290623Y-104381523D01*
X120290623Y-104679428D01*
X120216147Y-104828380D01*
X120067195Y-104902857D01*
X119471385Y-104902857D01*
X119322433Y-104828380D01*
X119247957Y-104679428D01*
X119247957Y-104381523D01*
X119322433Y-104232571D01*
X119471385Y-104158095D01*
X119620338Y-104158095D01*
X119769290Y-104902857D01*
X120290623Y-103487809D02*
X119247957Y-103487809D01*
X119545861Y-103487809D02*
X119396909Y-103413333D01*
X119322433Y-103338857D01*
X119247957Y-103189904D01*
X119247957Y-103040952D01*
D11*
X132657349Y-77247961D02*
X131989692Y-77247961D01*
X132323520Y-77247961D02*
X132323520Y-76079561D01*
X132212244Y-76246476D01*
X132100968Y-76357752D01*
X131989692Y-76413390D01*
D15*
X165271047Y-126674285D02*
X165577714Y-126674285D01*
X165709142Y-127156190D02*
X165271047Y-127156190D01*
X165271047Y-126236190D01*
X165709142Y-126236190D01*
X166103428Y-126805714D02*
X166804380Y-126805714D01*
X167198666Y-127112380D02*
X167330095Y-127156190D01*
X167549142Y-127156190D01*
X167636761Y-127112380D01*
X167680571Y-127068571D01*
X167724380Y-126980952D01*
X167724380Y-126893333D01*
X167680571Y-126805714D01*
X167636761Y-126761904D01*
X167549142Y-126718095D01*
X167373904Y-126674285D01*
X167286285Y-126630476D01*
X167242476Y-126586666D01*
X167198666Y-126499047D01*
X167198666Y-126411428D01*
X167242476Y-126323809D01*
X167286285Y-126280000D01*
X167373904Y-126236190D01*
X167592952Y-126236190D01*
X167724380Y-126280000D01*
X167987238Y-126236190D02*
X168512952Y-126236190D01*
X168250095Y-127156190D02*
X168250095Y-126236190D01*
X168994857Y-126236190D02*
X169170095Y-126236190D01*
X169257714Y-126280000D01*
X169345333Y-126367619D01*
X169389142Y-126542857D01*
X169389142Y-126849523D01*
X169345333Y-127024761D01*
X169257714Y-127112380D01*
X169170095Y-127156190D01*
X168994857Y-127156190D01*
X168907238Y-127112380D01*
X168819619Y-127024761D01*
X168775809Y-126849523D01*
X168775809Y-126542857D01*
X168819619Y-126367619D01*
X168907238Y-126280000D01*
X168994857Y-126236190D01*
X169783428Y-127156190D02*
X169783428Y-126236190D01*
X170133904Y-126236190D01*
X170221523Y-126280000D01*
X170265333Y-126323809D01*
X170309142Y-126411428D01*
X170309142Y-126542857D01*
X170265333Y-126630476D01*
X170221523Y-126674285D01*
X170133904Y-126718095D01*
X169783428Y-126718095D01*
D14*
X169150666Y-112829333D02*
X169150666Y-111970666D01*
X170438666Y-112522666D01*
D15*
X176536190Y-91616571D02*
X176536190Y-91047047D01*
X176886666Y-91353714D01*
X176886666Y-91222285D01*
X176930476Y-91134666D01*
X176974285Y-91090857D01*
X177061904Y-91047047D01*
X177280952Y-91047047D01*
X177368571Y-91090857D01*
X177412380Y-91134666D01*
X177456190Y-91222285D01*
X177456190Y-91485142D01*
X177412380Y-91572761D01*
X177368571Y-91616571D01*
X176842857Y-90740380D02*
X177456190Y-90521333D01*
X176842857Y-90302285D01*
X176536190Y-90039428D02*
X176536190Y-89469904D01*
X176886666Y-89776571D01*
X176886666Y-89645142D01*
X176930476Y-89557523D01*
X176974285Y-89513714D01*
X177061904Y-89469904D01*
X177280952Y-89469904D01*
X177368571Y-89513714D01*
X177412380Y-89557523D01*
X177456190Y-89645142D01*
X177456190Y-89908000D01*
X177412380Y-89995619D01*
X177368571Y-90039428D01*
D14*
X176881100Y-98758266D02*
X177739766Y-98758266D01*
X176390433Y-99064933D02*
X177310433Y-99371600D01*
X177310433Y-98574266D01*
D15*
X142402952Y-133280000D02*
X142315333Y-133236190D01*
X142183904Y-133236190D01*
X142052476Y-133280000D01*
X141964857Y-133367619D01*
X141921047Y-133455238D01*
X141877238Y-133630476D01*
X141877238Y-133761904D01*
X141921047Y-133937142D01*
X141964857Y-134024761D01*
X142052476Y-134112380D01*
X142183904Y-134156190D01*
X142271523Y-134156190D01*
X142402952Y-134112380D01*
X142446761Y-134068571D01*
X142446761Y-133761904D01*
X142271523Y-133761904D01*
X142841047Y-134156190D02*
X142841047Y-133236190D01*
X143366761Y-134156190D01*
X143366761Y-133236190D01*
X143804857Y-134156190D02*
X143804857Y-133236190D01*
X144023904Y-133236190D01*
X144155333Y-133280000D01*
X144242952Y-133367619D01*
X144286761Y-133455238D01*
X144330571Y-133630476D01*
X144330571Y-133761904D01*
X144286761Y-133937142D01*
X144242952Y-134024761D01*
X144155333Y-134112380D01*
X144023904Y-134156190D01*
X143804857Y-134156190D01*
D14*
X169150666Y-109507200D02*
X169150666Y-110120533D01*
X169764000Y-110181866D01*
X169702666Y-110120533D01*
X169641333Y-109997866D01*
X169641333Y-109691200D01*
X169702666Y-109568533D01*
X169764000Y-109507200D01*
X169886666Y-109445866D01*
X170193333Y-109445866D01*
X170316000Y-109507200D01*
X170377333Y-109568533D01*
X170438666Y-109691200D01*
X170438666Y-109997866D01*
X170377333Y-110120533D01*
X170316000Y-110181866D01*
D17*
X128398571Y-95432285D02*
X128464285Y-95235142D01*
X128464285Y-94906571D01*
X128398571Y-94775142D01*
X128332857Y-94709428D01*
X128201428Y-94643714D01*
X128070000Y-94643714D01*
X127938571Y-94709428D01*
X127872857Y-94775142D01*
X127807142Y-94906571D01*
X127741428Y-95169428D01*
X127675714Y-95300857D01*
X127610000Y-95366571D01*
X127478571Y-95432285D01*
X127347142Y-95432285D01*
X127215714Y-95366571D01*
X127150000Y-95300857D01*
X127084285Y-95169428D01*
X127084285Y-94840857D01*
X127150000Y-94643714D01*
X128464285Y-94052285D02*
X127084285Y-94052285D01*
X127084285Y-93526571D01*
X127150000Y-93395142D01*
X127215714Y-93329428D01*
X127347142Y-93263714D01*
X127544285Y-93263714D01*
X127675714Y-93329428D01*
X127741428Y-93395142D01*
X127807142Y-93526571D01*
X127807142Y-94052285D01*
X128464285Y-92672285D02*
X127084285Y-92672285D01*
X127215714Y-91029428D02*
X127150000Y-90963714D01*
X127084285Y-90832285D01*
X127084285Y-90503714D01*
X127150000Y-90372285D01*
X127215714Y-90306571D01*
X127347142Y-90240857D01*
X127478571Y-90240857D01*
X127675714Y-90306571D01*
X128464285Y-91095142D01*
X128464285Y-90240857D01*
D14*
X123850666Y-104943200D02*
X123850666Y-104084533D01*
X125138666Y-104943200D01*
X125138666Y-104084533D01*
D11*
X157777061Y-126770645D02*
X157777061Y-126047350D01*
X158222166Y-126436817D01*
X158222166Y-126269902D01*
X158277804Y-126158626D01*
X158333442Y-126102988D01*
X158444719Y-126047350D01*
X158722909Y-126047350D01*
X158834185Y-126102988D01*
X158889823Y-126158626D01*
X158945461Y-126269902D01*
X158945461Y-126603731D01*
X158889823Y-126715007D01*
X158834185Y-126770645D01*
X157777061Y-125713521D02*
X158945461Y-125324055D01*
X157777061Y-124934588D01*
X157777061Y-124656398D02*
X157777061Y-123933102D01*
X158222166Y-124322569D01*
X158222166Y-124155655D01*
X158277804Y-124044379D01*
X158333442Y-123988740D01*
X158444719Y-123933102D01*
X158722909Y-123933102D01*
X158834185Y-123988740D01*
X158889823Y-124044379D01*
X158945461Y-124155655D01*
X158945461Y-124489483D01*
X158889823Y-124600760D01*
X158834185Y-124656398D01*
D15*
X120056190Y-100578952D02*
X119136190Y-100578952D01*
X119793333Y-100272285D01*
X119136190Y-99965619D01*
X120056190Y-99965619D01*
X120056190Y-99527523D02*
X119136190Y-99527523D01*
X120012380Y-99133238D02*
X120056190Y-99001809D01*
X120056190Y-98782761D01*
X120012380Y-98695142D01*
X119968571Y-98651333D01*
X119880952Y-98607523D01*
X119793333Y-98607523D01*
X119705714Y-98651333D01*
X119661904Y-98695142D01*
X119618095Y-98782761D01*
X119574285Y-98958000D01*
X119530476Y-99045619D01*
X119486666Y-99089428D01*
X119399047Y-99133238D01*
X119311428Y-99133238D01*
X119223809Y-99089428D01*
X119180000Y-99045619D01*
X119136190Y-98958000D01*
X119136190Y-98738952D01*
X119180000Y-98607523D01*
X119136190Y-98038000D02*
X119136190Y-97862761D01*
X119180000Y-97775142D01*
X119267619Y-97687523D01*
X119442857Y-97643714D01*
X119749523Y-97643714D01*
X119924761Y-97687523D01*
X120012380Y-97775142D01*
X120056190Y-97862761D01*
X120056190Y-98038000D01*
X120012380Y-98125619D01*
X119924761Y-98213238D01*
X119749523Y-98257047D01*
X119442857Y-98257047D01*
X119267619Y-98213238D01*
X119180000Y-98125619D01*
X119136190Y-98038000D01*
X162852952Y-133280000D02*
X162765333Y-133236190D01*
X162633904Y-133236190D01*
X162502476Y-133280000D01*
X162414857Y-133367619D01*
X162371047Y-133455238D01*
X162327238Y-133630476D01*
X162327238Y-133761904D01*
X162371047Y-133937142D01*
X162414857Y-134024761D01*
X162502476Y-134112380D01*
X162633904Y-134156190D01*
X162721523Y-134156190D01*
X162852952Y-134112380D01*
X162896761Y-134068571D01*
X162896761Y-133761904D01*
X162721523Y-133761904D01*
X163291047Y-134156190D02*
X163291047Y-133236190D01*
X163641523Y-133236190D01*
X163729142Y-133280000D01*
X163772952Y-133323809D01*
X163816761Y-133411428D01*
X163816761Y-133542857D01*
X163772952Y-133630476D01*
X163729142Y-133674285D01*
X163641523Y-133718095D01*
X163291047Y-133718095D01*
X164167238Y-133323809D02*
X164211047Y-133280000D01*
X164298666Y-133236190D01*
X164517714Y-133236190D01*
X164605333Y-133280000D01*
X164649142Y-133323809D01*
X164692952Y-133411428D01*
X164692952Y-133499047D01*
X164649142Y-133630476D01*
X164123428Y-134156190D01*
X164692952Y-134156190D01*
D14*
X164038666Y-120920533D02*
X162750666Y-120920533D01*
X162750666Y-120429866D01*
X162812000Y-120307200D01*
X162873333Y-120245866D01*
X162996000Y-120184533D01*
X163180000Y-120184533D01*
X163302666Y-120245866D01*
X163364000Y-120307200D01*
X163425333Y-120429866D01*
X163425333Y-120920533D01*
X162750666Y-119755200D02*
X164038666Y-119448533D01*
X163118666Y-119203200D01*
X164038666Y-118957866D01*
X162750666Y-118651200D01*
X164038666Y-117424533D02*
X163425333Y-117853866D01*
X164038666Y-118160533D02*
X162750666Y-118160533D01*
X162750666Y-117669866D01*
X162812000Y-117547200D01*
X162873333Y-117485866D01*
X162996000Y-117424533D01*
X163180000Y-117424533D01*
X163302666Y-117485866D01*
X163364000Y-117547200D01*
X163425333Y-117669866D01*
X163425333Y-118160533D01*
D15*
X135233480Y-125627980D02*
X135277290Y-125496552D01*
X135277290Y-125277504D01*
X135233480Y-125189885D01*
X135189671Y-125146076D01*
X135102052Y-125102266D01*
X135014433Y-125102266D01*
X134926814Y-125146076D01*
X134883004Y-125189885D01*
X134839195Y-125277504D01*
X134795385Y-125452742D01*
X134751576Y-125540361D01*
X134707766Y-125584171D01*
X134620147Y-125627980D01*
X134532528Y-125627980D01*
X134444909Y-125584171D01*
X134401100Y-125540361D01*
X134357290Y-125452742D01*
X134357290Y-125233695D01*
X134401100Y-125102266D01*
X134357290Y-124795600D02*
X135277290Y-124576552D01*
X134620147Y-124401314D01*
X135277290Y-124226076D01*
X134357290Y-124007028D01*
X135277290Y-123656552D02*
X134357290Y-123656552D01*
X134357290Y-123437504D01*
X134401100Y-123306076D01*
X134488719Y-123218457D01*
X134576338Y-123174647D01*
X134751576Y-123130838D01*
X134883004Y-123130838D01*
X135058242Y-123174647D01*
X135145861Y-123218457D01*
X135233480Y-123306076D01*
X135277290Y-123437504D01*
X135277290Y-123656552D01*
X119969671Y-93706838D02*
X120013480Y-93750647D01*
X120057290Y-93882076D01*
X120057290Y-93969695D01*
X120013480Y-94101123D01*
X119925861Y-94188742D01*
X119838242Y-94232552D01*
X119663004Y-94276361D01*
X119531576Y-94276361D01*
X119356338Y-94232552D01*
X119268719Y-94188742D01*
X119181100Y-94101123D01*
X119137290Y-93969695D01*
X119137290Y-93882076D01*
X119181100Y-93750647D01*
X119224909Y-93706838D01*
X120013480Y-93356361D02*
X120057290Y-93224933D01*
X120057290Y-93005885D01*
X120013480Y-92918266D01*
X119969671Y-92874457D01*
X119882052Y-92830647D01*
X119794433Y-92830647D01*
X119706814Y-92874457D01*
X119663004Y-92918266D01*
X119619195Y-93005885D01*
X119575385Y-93181123D01*
X119531576Y-93268742D01*
X119487766Y-93312552D01*
X119400147Y-93356361D01*
X119312528Y-93356361D01*
X119224909Y-93312552D01*
X119181100Y-93268742D01*
X119137290Y-93181123D01*
X119137290Y-92962076D01*
X119181100Y-92830647D01*
D17*
X159695714Y-89834285D02*
X159235714Y-89177142D01*
X158907142Y-89834285D02*
X158907142Y-88454285D01*
X159432857Y-88454285D01*
X159564285Y-88520000D01*
X159630000Y-88585714D01*
X159695714Y-88717142D01*
X159695714Y-88914285D01*
X159630000Y-89045714D01*
X159564285Y-89111428D01*
X159432857Y-89177142D01*
X158907142Y-89177142D01*
X160287142Y-89111428D02*
X160747142Y-89111428D01*
X160944285Y-89834285D02*
X160287142Y-89834285D01*
X160287142Y-88454285D01*
X160944285Y-88454285D01*
X161470000Y-89768571D02*
X161667142Y-89834285D01*
X161995714Y-89834285D01*
X162127142Y-89768571D01*
X162192857Y-89702857D01*
X162258571Y-89571428D01*
X162258571Y-89440000D01*
X162192857Y-89308571D01*
X162127142Y-89242857D01*
X161995714Y-89177142D01*
X161732857Y-89111428D01*
X161601428Y-89045714D01*
X161535714Y-88980000D01*
X161470000Y-88848571D01*
X161470000Y-88717142D01*
X161535714Y-88585714D01*
X161601428Y-88520000D01*
X161732857Y-88454285D01*
X162061428Y-88454285D01*
X162258571Y-88520000D01*
X162850000Y-89111428D02*
X163310000Y-89111428D01*
X163507142Y-89834285D02*
X162850000Y-89834285D01*
X162850000Y-88454285D01*
X163507142Y-88454285D01*
X163901428Y-88454285D02*
X164690000Y-88454285D01*
X164295714Y-89834285D02*
X164295714Y-88454285D01*
D11*
X151134185Y-125991712D02*
X151189823Y-126047350D01*
X151245461Y-126214264D01*
X151245461Y-126325540D01*
X151189823Y-126492455D01*
X151078547Y-126603731D01*
X150967271Y-126659369D01*
X150744719Y-126715007D01*
X150577804Y-126715007D01*
X150355252Y-126659369D01*
X150243976Y-126603731D01*
X150132700Y-126492455D01*
X150077061Y-126325540D01*
X150077061Y-126214264D01*
X150132700Y-126047350D01*
X150188338Y-125991712D01*
X151189823Y-125546607D02*
X151245461Y-125379693D01*
X151245461Y-125101502D01*
X151189823Y-124990226D01*
X151134185Y-124934588D01*
X151022909Y-124878950D01*
X150911633Y-124878950D01*
X150800357Y-124934588D01*
X150744719Y-124990226D01*
X150689080Y-125101502D01*
X150633442Y-125324055D01*
X150577804Y-125435331D01*
X150522166Y-125490969D01*
X150410890Y-125546607D01*
X150299614Y-125546607D01*
X150188338Y-125490969D01*
X150132700Y-125435331D01*
X150077061Y-125324055D01*
X150077061Y-125045864D01*
X150132700Y-124878950D01*
X150077061Y-124489483D02*
X150077061Y-123766188D01*
X150522166Y-124155655D01*
X150522166Y-123988740D01*
X150577804Y-123877464D01*
X150633442Y-123821826D01*
X150744719Y-123766188D01*
X151022909Y-123766188D01*
X151134185Y-123821826D01*
X151189823Y-123877464D01*
X151245461Y-123988740D01*
X151245461Y-124322569D01*
X151189823Y-124433845D01*
X151134185Y-124489483D01*
D15*
X126668571Y-96853238D02*
X126712380Y-96897047D01*
X126756190Y-97028476D01*
X126756190Y-97116095D01*
X126712380Y-97247523D01*
X126624761Y-97335142D01*
X126537142Y-97378952D01*
X126361904Y-97422761D01*
X126230476Y-97422761D01*
X126055238Y-97378952D01*
X125967619Y-97335142D01*
X125880000Y-97247523D01*
X125836190Y-97116095D01*
X125836190Y-97028476D01*
X125880000Y-96897047D01*
X125923809Y-96853238D01*
X126712380Y-96502761D02*
X126756190Y-96371333D01*
X126756190Y-96152285D01*
X126712380Y-96064666D01*
X126668571Y-96020857D01*
X126580952Y-95977047D01*
X126493333Y-95977047D01*
X126405714Y-96020857D01*
X126361904Y-96064666D01*
X126318095Y-96152285D01*
X126274285Y-96327523D01*
X126230476Y-96415142D01*
X126186666Y-96458952D01*
X126099047Y-96502761D01*
X126011428Y-96502761D01*
X125923809Y-96458952D01*
X125880000Y-96415142D01*
X125836190Y-96327523D01*
X125836190Y-96108476D01*
X125880000Y-95977047D01*
X125836190Y-95670380D02*
X125836190Y-95100857D01*
X126186666Y-95407523D01*
X126186666Y-95276095D01*
X126230476Y-95188476D01*
X126274285Y-95144666D01*
X126361904Y-95100857D01*
X126580952Y-95100857D01*
X126668571Y-95144666D01*
X126712380Y-95188476D01*
X126756190Y-95276095D01*
X126756190Y-95538952D01*
X126712380Y-95626571D01*
X126668571Y-95670380D01*
D11*
X146034185Y-125991712D02*
X146089823Y-126047350D01*
X146145461Y-126214264D01*
X146145461Y-126325540D01*
X146089823Y-126492455D01*
X145978547Y-126603731D01*
X145867271Y-126659369D01*
X145644719Y-126715007D01*
X145477804Y-126715007D01*
X145255252Y-126659369D01*
X145143976Y-126603731D01*
X145032700Y-126492455D01*
X144977061Y-126325540D01*
X144977061Y-126214264D01*
X145032700Y-126047350D01*
X145088338Y-125991712D01*
X146089823Y-125546607D02*
X146145461Y-125379693D01*
X146145461Y-125101502D01*
X146089823Y-124990226D01*
X146034185Y-124934588D01*
X145922909Y-124878950D01*
X145811633Y-124878950D01*
X145700357Y-124934588D01*
X145644719Y-124990226D01*
X145589080Y-125101502D01*
X145533442Y-125324055D01*
X145477804Y-125435331D01*
X145422166Y-125490969D01*
X145310890Y-125546607D01*
X145199614Y-125546607D01*
X145088338Y-125490969D01*
X145032700Y-125435331D01*
X144977061Y-125324055D01*
X144977061Y-125045864D01*
X145032700Y-124878950D01*
X146145461Y-123766188D02*
X146145461Y-124433845D01*
X146145461Y-124100017D02*
X144977061Y-124100017D01*
X145143976Y-124211293D01*
X145255252Y-124322569D01*
X145310890Y-124433845D01*
D14*
X124012000Y-113945866D02*
X123950666Y-114068533D01*
X123950666Y-114252533D01*
X124012000Y-114436533D01*
X124134666Y-114559200D01*
X124257333Y-114620533D01*
X124502666Y-114681866D01*
X124686666Y-114681866D01*
X124932000Y-114620533D01*
X125054666Y-114559200D01*
X125177333Y-114436533D01*
X125238666Y-114252533D01*
X125238666Y-114129866D01*
X125177333Y-113945866D01*
X125116000Y-113884533D01*
X124686666Y-113884533D01*
X124686666Y-114129866D01*
X125238666Y-113332533D02*
X123950666Y-113332533D01*
X125238666Y-112596533D01*
X123950666Y-112596533D01*
X125238666Y-111983200D02*
X123950666Y-111983200D01*
X123950666Y-111676533D01*
X124012000Y-111492533D01*
X124134666Y-111369866D01*
X124257333Y-111308533D01*
X124502666Y-111247200D01*
X124686666Y-111247200D01*
X124932000Y-111308533D01*
X125054666Y-111369866D01*
X125177333Y-111492533D01*
X125238666Y-111676533D01*
X125238666Y-111983200D01*
D15*
X135646761Y-134068571D02*
X135602952Y-134112380D01*
X135471523Y-134156190D01*
X135383904Y-134156190D01*
X135252476Y-134112380D01*
X135164857Y-134024761D01*
X135121047Y-133937142D01*
X135077238Y-133761904D01*
X135077238Y-133630476D01*
X135121047Y-133455238D01*
X135164857Y-133367619D01*
X135252476Y-133280000D01*
X135383904Y-133236190D01*
X135471523Y-133236190D01*
X135602952Y-133280000D01*
X135646761Y-133323809D01*
X135997238Y-133893333D02*
X136435333Y-133893333D01*
X135909619Y-134156190D02*
X136216285Y-133236190D01*
X136522952Y-134156190D01*
X136829619Y-134156190D02*
X136829619Y-133236190D01*
X137355333Y-134156190D01*
X137355333Y-133236190D01*
X138319142Y-134156190D02*
X138012476Y-133718095D01*
X137793428Y-134156190D02*
X137793428Y-133236190D01*
X138143904Y-133236190D01*
X138231523Y-133280000D01*
X138275333Y-133323809D01*
X138319142Y-133411428D01*
X138319142Y-133542857D01*
X138275333Y-133630476D01*
X138231523Y-133674285D01*
X138143904Y-133718095D01*
X137793428Y-133718095D01*
D18*
X176548980Y-116096457D02*
X176496408Y-116201600D01*
X176496408Y-116359314D01*
X176548980Y-116517028D01*
X176654122Y-116622171D01*
X176759265Y-116674742D01*
X176969551Y-116727314D01*
X177127265Y-116727314D01*
X177337551Y-116674742D01*
X177442694Y-116622171D01*
X177547837Y-116517028D01*
X177600408Y-116359314D01*
X177600408Y-116254171D01*
X177547837Y-116096457D01*
X177495265Y-116043885D01*
X177127265Y-116043885D01*
X177127265Y-116254171D01*
X177600408Y-115570742D02*
X176496408Y-115570742D01*
X177600408Y-114939885D01*
X176496408Y-114939885D01*
X177600408Y-114414171D02*
X176496408Y-114414171D01*
X176496408Y-114151314D01*
X176548980Y-113993600D01*
X176654122Y-113888457D01*
X176759265Y-113835885D01*
X176969551Y-113783314D01*
X177127265Y-113783314D01*
X177337551Y-113835885D01*
X177442694Y-113888457D01*
X177547837Y-113993600D01*
X177600408Y-114151314D01*
X177600408Y-114414171D01*
D15*
X167554052Y-76283600D02*
X167466433Y-76239790D01*
X167335004Y-76239790D01*
X167203576Y-76283600D01*
X167115957Y-76371219D01*
X167072147Y-76458838D01*
X167028338Y-76634076D01*
X167028338Y-76765504D01*
X167072147Y-76940742D01*
X167115957Y-77028361D01*
X167203576Y-77115980D01*
X167335004Y-77159790D01*
X167422623Y-77159790D01*
X167554052Y-77115980D01*
X167597861Y-77072171D01*
X167597861Y-76765504D01*
X167422623Y-76765504D01*
X167992147Y-77159790D02*
X167992147Y-76239790D01*
X168342623Y-76239790D01*
X168430242Y-76283600D01*
X168474052Y-76327409D01*
X168517861Y-76415028D01*
X168517861Y-76546457D01*
X168474052Y-76634076D01*
X168430242Y-76677885D01*
X168342623Y-76721695D01*
X167992147Y-76721695D01*
X169043576Y-76634076D02*
X168955957Y-76590266D01*
X168912147Y-76546457D01*
X168868338Y-76458838D01*
X168868338Y-76415028D01*
X168912147Y-76327409D01*
X168955957Y-76283600D01*
X169043576Y-76239790D01*
X169218814Y-76239790D01*
X169306433Y-76283600D01*
X169350242Y-76327409D01*
X169394052Y-76415028D01*
X169394052Y-76458838D01*
X169350242Y-76546457D01*
X169306433Y-76590266D01*
X169218814Y-76634076D01*
X169043576Y-76634076D01*
X168955957Y-76677885D01*
X168912147Y-76721695D01*
X168868338Y-76809314D01*
X168868338Y-76984552D01*
X168912147Y-77072171D01*
X168955957Y-77115980D01*
X169043576Y-77159790D01*
X169218814Y-77159790D01*
X169306433Y-77115980D01*
X169350242Y-77072171D01*
X169394052Y-76984552D01*
X169394052Y-76809314D01*
X169350242Y-76721695D01*
X169306433Y-76677885D01*
X169218814Y-76634076D01*
D19*
X155151028Y-116916571D02*
X155321885Y-116973523D01*
X155378838Y-117030476D01*
X155435790Y-117144380D01*
X155435790Y-117315238D01*
X155378838Y-117429142D01*
X155321885Y-117486095D01*
X155207980Y-117543047D01*
X154752361Y-117543047D01*
X154752361Y-116347047D01*
X155151028Y-116347047D01*
X155264933Y-116404000D01*
X155321885Y-116460952D01*
X155378838Y-116574857D01*
X155378838Y-116688761D01*
X155321885Y-116802666D01*
X155264933Y-116859619D01*
X155151028Y-116916571D01*
X154752361Y-116916571D01*
X156176171Y-116347047D02*
X156403980Y-116347047D01*
X156517885Y-116404000D01*
X156631790Y-116517904D01*
X156688742Y-116745714D01*
X156688742Y-117144380D01*
X156631790Y-117372190D01*
X156517885Y-117486095D01*
X156403980Y-117543047D01*
X156176171Y-117543047D01*
X156062266Y-117486095D01*
X155948361Y-117372190D01*
X155891409Y-117144380D01*
X155891409Y-116745714D01*
X155948361Y-116517904D01*
X156062266Y-116404000D01*
X156176171Y-116347047D01*
X157429123Y-116347047D02*
X157656933Y-116347047D01*
X157770838Y-116404000D01*
X157884742Y-116517904D01*
X157941695Y-116745714D01*
X157941695Y-117144380D01*
X157884742Y-117372190D01*
X157770838Y-117486095D01*
X157656933Y-117543047D01*
X157429123Y-117543047D01*
X157315219Y-117486095D01*
X157201314Y-117372190D01*
X157144361Y-117144380D01*
X157144361Y-116745714D01*
X157201314Y-116517904D01*
X157315219Y-116404000D01*
X157429123Y-116347047D01*
X158283409Y-116347047D02*
X158966838Y-116347047D01*
X158625123Y-117543047D02*
X158625123Y-116347047D01*
X159593314Y-116347047D02*
X159707219Y-116347047D01*
X159821123Y-116404000D01*
X159878076Y-116460952D01*
X159935028Y-116574857D01*
X159991980Y-116802666D01*
X159991980Y-117087428D01*
X159935028Y-117315238D01*
X159878076Y-117429142D01*
X159821123Y-117486095D01*
X159707219Y-117543047D01*
X159593314Y-117543047D01*
X159479409Y-117486095D01*
X159422457Y-117429142D01*
X159365504Y-117315238D01*
X159308552Y-117087428D01*
X159308552Y-116802666D01*
X159365504Y-116574857D01*
X159422457Y-116460952D01*
X159479409Y-116404000D01*
X159593314Y-116347047D01*
D12*
X166026576Y-84548838D02*
X166245623Y-84548838D01*
X166355147Y-84603600D01*
X166464671Y-84713123D01*
X166519433Y-84932171D01*
X166519433Y-85315504D01*
X166464671Y-85534552D01*
X166355147Y-85644076D01*
X166245623Y-85698838D01*
X166026576Y-85698838D01*
X165917052Y-85644076D01*
X165807528Y-85534552D01*
X165752766Y-85315504D01*
X165752766Y-84932171D01*
X165807528Y-84713123D01*
X165917052Y-84603600D01*
X166026576Y-84548838D01*
X167012290Y-84932171D02*
X167012290Y-86082171D01*
X167012290Y-84986933D02*
X167121814Y-84932171D01*
X167340861Y-84932171D01*
X167450385Y-84986933D01*
X167505147Y-85041695D01*
X167559909Y-85151219D01*
X167559909Y-85479790D01*
X167505147Y-85589314D01*
X167450385Y-85644076D01*
X167340861Y-85698838D01*
X167121814Y-85698838D01*
X167012290Y-85644076D01*
X168490861Y-85644076D02*
X168381338Y-85698838D01*
X168162290Y-85698838D01*
X168052766Y-85644076D01*
X167998004Y-85534552D01*
X167998004Y-85096457D01*
X168052766Y-84986933D01*
X168162290Y-84932171D01*
X168381338Y-84932171D01*
X168490861Y-84986933D01*
X168545623Y-85096457D01*
X168545623Y-85205980D01*
X167998004Y-85315504D01*
X169038480Y-84932171D02*
X169038480Y-85698838D01*
X169038480Y-85041695D02*
X169093242Y-84986933D01*
X169202766Y-84932171D01*
X169367052Y-84932171D01*
X169476576Y-84986933D01*
X169531338Y-85096457D01*
X169531338Y-85698838D01*
X171338480Y-85096457D02*
X170955147Y-85096457D01*
X170955147Y-85698838D02*
X170955147Y-84548838D01*
X171502766Y-84548838D01*
X172324195Y-85096457D02*
X171940861Y-85096457D01*
X171940861Y-85698838D02*
X171940861Y-84548838D01*
X172488480Y-84548838D01*
X173309909Y-85096457D02*
X173474195Y-85151219D01*
X173528957Y-85205980D01*
X173583719Y-85315504D01*
X173583719Y-85479790D01*
X173528957Y-85589314D01*
X173474195Y-85644076D01*
X173364671Y-85698838D01*
X172926576Y-85698838D01*
X172926576Y-84548838D01*
X173309909Y-84548838D01*
X173419433Y-84603600D01*
X173474195Y-84658361D01*
X173528957Y-84767885D01*
X173528957Y-84877409D01*
X173474195Y-84986933D01*
X173419433Y-85041695D01*
X173309909Y-85096457D01*
X172926576Y-85096457D01*
X174240861Y-85698838D02*
X174131338Y-85644076D01*
X174076576Y-85589314D01*
X174021814Y-85479790D01*
X174021814Y-85151219D01*
X174076576Y-85041695D01*
X174131338Y-84986933D01*
X174240861Y-84932171D01*
X174405147Y-84932171D01*
X174514671Y-84986933D01*
X174569433Y-85041695D01*
X174624195Y-85151219D01*
X174624195Y-85479790D01*
X174569433Y-85589314D01*
X174514671Y-85644076D01*
X174405147Y-85698838D01*
X174240861Y-85698838D01*
X175609909Y-85698838D02*
X175609909Y-85096457D01*
X175555147Y-84986933D01*
X175445623Y-84932171D01*
X175226576Y-84932171D01*
X175117052Y-84986933D01*
X175609909Y-85644076D02*
X175500385Y-85698838D01*
X175226576Y-85698838D01*
X175117052Y-85644076D01*
X175062290Y-85534552D01*
X175062290Y-85425028D01*
X175117052Y-85315504D01*
X175226576Y-85260742D01*
X175500385Y-85260742D01*
X175609909Y-85205980D01*
X176157528Y-85698838D02*
X176157528Y-84932171D01*
X176157528Y-85151219D02*
X176212290Y-85041695D01*
X176267052Y-84986933D01*
X176376576Y-84932171D01*
X176486100Y-84932171D01*
X177362290Y-85698838D02*
X177362290Y-84548838D01*
X177362290Y-85644076D02*
X177252766Y-85698838D01*
X177033719Y-85698838D01*
X176924195Y-85644076D01*
X176869433Y-85589314D01*
X176814671Y-85479790D01*
X176814671Y-85151219D01*
X176869433Y-85041695D01*
X176924195Y-84986933D01*
X177033719Y-84932171D01*
X177252766Y-84932171D01*
X177362290Y-84986933D01*
X165971814Y-86400338D02*
X165971814Y-87331290D01*
X166026576Y-87440814D01*
X166081338Y-87495576D01*
X166190861Y-87550338D01*
X166409909Y-87550338D01*
X166519433Y-87495576D01*
X166574195Y-87440814D01*
X166628957Y-87331290D01*
X166628957Y-86400338D01*
X167121814Y-87495576D02*
X167286100Y-87550338D01*
X167559909Y-87550338D01*
X167669433Y-87495576D01*
X167724195Y-87440814D01*
X167778957Y-87331290D01*
X167778957Y-87221766D01*
X167724195Y-87112242D01*
X167669433Y-87057480D01*
X167559909Y-87002719D01*
X167340861Y-86947957D01*
X167231338Y-86893195D01*
X167176576Y-86838433D01*
X167121814Y-86728909D01*
X167121814Y-86619385D01*
X167176576Y-86509861D01*
X167231338Y-86455100D01*
X167340861Y-86400338D01*
X167614671Y-86400338D01*
X167778957Y-86455100D01*
X168655147Y-86947957D02*
X168819433Y-87002719D01*
X168874195Y-87057480D01*
X168928957Y-87167004D01*
X168928957Y-87331290D01*
X168874195Y-87440814D01*
X168819433Y-87495576D01*
X168709909Y-87550338D01*
X168271814Y-87550338D01*
X168271814Y-86400338D01*
X168655147Y-86400338D01*
X168764671Y-86455100D01*
X168819433Y-86509861D01*
X168874195Y-86619385D01*
X168874195Y-86728909D01*
X168819433Y-86838433D01*
X168764671Y-86893195D01*
X168655147Y-86947957D01*
X168271814Y-86947957D01*
X170298004Y-87550338D02*
X170298004Y-86783671D01*
X170298004Y-86400338D02*
X170243242Y-86455100D01*
X170298004Y-86509861D01*
X170352766Y-86455100D01*
X170298004Y-86400338D01*
X170298004Y-86509861D01*
X170845623Y-86783671D02*
X170845623Y-87550338D01*
X170845623Y-86893195D02*
X170900385Y-86838433D01*
X171009909Y-86783671D01*
X171174195Y-86783671D01*
X171283719Y-86838433D01*
X171338480Y-86947957D01*
X171338480Y-87550338D01*
X171721814Y-86783671D02*
X172159909Y-86783671D01*
X171886100Y-86400338D02*
X171886100Y-87386052D01*
X171940861Y-87495576D01*
X172050385Y-87550338D01*
X172159909Y-87550338D01*
X172981338Y-87495576D02*
X172871814Y-87550338D01*
X172652766Y-87550338D01*
X172543242Y-87495576D01*
X172488480Y-87386052D01*
X172488480Y-86947957D01*
X172543242Y-86838433D01*
X172652766Y-86783671D01*
X172871814Y-86783671D01*
X172981338Y-86838433D01*
X173036100Y-86947957D01*
X173036100Y-87057480D01*
X172488480Y-87167004D01*
X173528957Y-87550338D02*
X173528957Y-86783671D01*
X173528957Y-87002719D02*
X173583719Y-86893195D01*
X173638480Y-86838433D01*
X173748004Y-86783671D01*
X173857528Y-86783671D01*
X174076576Y-86783671D02*
X174514671Y-86783671D01*
X174240861Y-87550338D02*
X174240861Y-86564623D01*
X174295623Y-86455100D01*
X174405147Y-86400338D01*
X174514671Y-86400338D01*
X175390861Y-87550338D02*
X175390861Y-86947957D01*
X175336100Y-86838433D01*
X175226576Y-86783671D01*
X175007528Y-86783671D01*
X174898004Y-86838433D01*
X175390861Y-87495576D02*
X175281338Y-87550338D01*
X175007528Y-87550338D01*
X174898004Y-87495576D01*
X174843242Y-87386052D01*
X174843242Y-87276528D01*
X174898004Y-87167004D01*
X175007528Y-87112242D01*
X175281338Y-87112242D01*
X175390861Y-87057480D01*
X176431338Y-87495576D02*
X176321814Y-87550338D01*
X176102766Y-87550338D01*
X175993242Y-87495576D01*
X175938480Y-87440814D01*
X175883719Y-87331290D01*
X175883719Y-87002719D01*
X175938480Y-86893195D01*
X175993242Y-86838433D01*
X176102766Y-86783671D01*
X176321814Y-86783671D01*
X176431338Y-86838433D01*
X177362290Y-87495576D02*
X177252766Y-87550338D01*
X177033719Y-87550338D01*
X176924195Y-87495576D01*
X176869433Y-87386052D01*
X176869433Y-86947957D01*
X176924195Y-86838433D01*
X177033719Y-86783671D01*
X177252766Y-86783671D01*
X177362290Y-86838433D01*
X177417052Y-86947957D01*
X177417052Y-87057480D01*
X176869433Y-87167004D01*
D15*
X167454052Y-82883600D02*
X167366433Y-82839790D01*
X167235004Y-82839790D01*
X167103576Y-82883600D01*
X167015957Y-82971219D01*
X166972147Y-83058838D01*
X166928338Y-83234076D01*
X166928338Y-83365504D01*
X166972147Y-83540742D01*
X167015957Y-83628361D01*
X167103576Y-83715980D01*
X167235004Y-83759790D01*
X167322623Y-83759790D01*
X167454052Y-83715980D01*
X167497861Y-83672171D01*
X167497861Y-83365504D01*
X167322623Y-83365504D01*
X167892147Y-83759790D02*
X167892147Y-82839790D01*
X168242623Y-82839790D01*
X168330242Y-82883600D01*
X168374052Y-82927409D01*
X168417861Y-83015028D01*
X168417861Y-83146457D01*
X168374052Y-83234076D01*
X168330242Y-83277885D01*
X168242623Y-83321695D01*
X167892147Y-83321695D01*
X169206433Y-82839790D02*
X169031195Y-82839790D01*
X168943576Y-82883600D01*
X168899766Y-82927409D01*
X168812147Y-83058838D01*
X168768338Y-83234076D01*
X168768338Y-83584552D01*
X168812147Y-83672171D01*
X168855957Y-83715980D01*
X168943576Y-83759790D01*
X169118814Y-83759790D01*
X169206433Y-83715980D01*
X169250242Y-83672171D01*
X169294052Y-83584552D01*
X169294052Y-83365504D01*
X169250242Y-83277885D01*
X169206433Y-83234076D01*
X169118814Y-83190266D01*
X168943576Y-83190266D01*
X168855957Y-83234076D01*
X168812147Y-83277885D01*
X168768338Y-83365504D01*
D14*
X176574433Y-96568000D02*
X176513100Y-96506666D01*
X176451766Y-96384000D01*
X176451766Y-96077333D01*
X176513100Y-95954666D01*
X176574433Y-95893333D01*
X176697100Y-95832000D01*
X176819766Y-95832000D01*
X177003766Y-95893333D01*
X177739766Y-96629333D01*
X177739766Y-95832000D01*
D20*
X136164391Y-132288000D02*
X136164391Y-132715300D01*
X136164391Y-132501650D02*
X135416615Y-132501650D01*
X135523440Y-132572867D01*
X135594657Y-132644084D01*
X135630265Y-132715300D01*
X135487832Y-132003133D02*
X135452224Y-131967524D01*
X135416615Y-131896308D01*
X135416615Y-131718266D01*
X135452224Y-131647049D01*
X135487832Y-131611441D01*
X135559049Y-131575832D01*
X135630265Y-131575832D01*
X135737091Y-131611441D01*
X136164391Y-132038741D01*
X136164391Y-131575832D01*
X135416615Y-131112923D02*
X135416615Y-131041706D01*
X135452224Y-130970490D01*
X135487832Y-130934881D01*
X135559049Y-130899273D01*
X135701482Y-130863665D01*
X135879524Y-130863665D01*
X136021958Y-130899273D01*
X136093174Y-130934881D01*
X136128783Y-130970490D01*
X136164391Y-131041706D01*
X136164391Y-131112923D01*
X136128783Y-131184140D01*
X136093174Y-131219748D01*
X136021958Y-131255357D01*
X135879524Y-131290965D01*
X135701482Y-131290965D01*
X135559049Y-131255357D01*
X135487832Y-131219748D01*
X135452224Y-131184140D01*
X135416615Y-131112923D01*
D14*
X169127766Y-99129333D02*
X169127766Y-98332000D01*
X169618433Y-98761333D01*
X169618433Y-98577333D01*
X169679766Y-98454666D01*
X169741100Y-98393333D01*
X169863766Y-98332000D01*
X170170433Y-98332000D01*
X170293100Y-98393333D01*
X170354433Y-98454666D01*
X170415766Y-98577333D01*
X170415766Y-98945333D01*
X170354433Y-99068000D01*
X170293100Y-99129333D01*
X129280566Y-85642266D02*
X129280566Y-84354266D01*
X129771233Y-84354266D01*
X129893900Y-84415600D01*
X129955233Y-84476933D01*
X130016566Y-84599600D01*
X130016566Y-84783600D01*
X129955233Y-84906266D01*
X129893900Y-84967600D01*
X129771233Y-85028933D01*
X129280566Y-85028933D01*
X130445900Y-84354266D02*
X130752566Y-85642266D01*
X130997900Y-84722266D01*
X131243233Y-85642266D01*
X131549900Y-84354266D01*
X132040566Y-85642266D02*
X132040566Y-84354266D01*
X132469900Y-85274266D01*
X132899233Y-84354266D01*
X132899233Y-85642266D01*
D11*
X148634185Y-125991712D02*
X148689823Y-126047350D01*
X148745461Y-126214264D01*
X148745461Y-126325540D01*
X148689823Y-126492455D01*
X148578547Y-126603731D01*
X148467271Y-126659369D01*
X148244719Y-126715007D01*
X148077804Y-126715007D01*
X147855252Y-126659369D01*
X147743976Y-126603731D01*
X147632700Y-126492455D01*
X147577061Y-126325540D01*
X147577061Y-126214264D01*
X147632700Y-126047350D01*
X147688338Y-125991712D01*
X148689823Y-125546607D02*
X148745461Y-125379693D01*
X148745461Y-125101502D01*
X148689823Y-124990226D01*
X148634185Y-124934588D01*
X148522909Y-124878950D01*
X148411633Y-124878950D01*
X148300357Y-124934588D01*
X148244719Y-124990226D01*
X148189080Y-125101502D01*
X148133442Y-125324055D01*
X148077804Y-125435331D01*
X148022166Y-125490969D01*
X147910890Y-125546607D01*
X147799614Y-125546607D01*
X147688338Y-125490969D01*
X147632700Y-125435331D01*
X147577061Y-125324055D01*
X147577061Y-125045864D01*
X147632700Y-124878950D01*
X147688338Y-124433845D02*
X147632700Y-124378207D01*
X147577061Y-124266931D01*
X147577061Y-123988740D01*
X147632700Y-123877464D01*
X147688338Y-123821826D01*
X147799614Y-123766188D01*
X147910890Y-123766188D01*
X148077804Y-123821826D01*
X148745461Y-124489483D01*
X148745461Y-123766188D01*
D15*
X119136190Y-92216571D02*
X119136190Y-91647047D01*
X119486666Y-91953714D01*
X119486666Y-91822285D01*
X119530476Y-91734666D01*
X119574285Y-91690857D01*
X119661904Y-91647047D01*
X119880952Y-91647047D01*
X119968571Y-91690857D01*
X120012380Y-91734666D01*
X120056190Y-91822285D01*
X120056190Y-92085142D01*
X120012380Y-92172761D01*
X119968571Y-92216571D01*
X119442857Y-91340380D02*
X120056190Y-91121333D01*
X119442857Y-90902285D01*
X119136190Y-90639428D02*
X119136190Y-90069904D01*
X119486666Y-90376571D01*
X119486666Y-90245142D01*
X119530476Y-90157523D01*
X119574285Y-90113714D01*
X119661904Y-90069904D01*
X119880952Y-90069904D01*
X119968571Y-90113714D01*
X120012380Y-90157523D01*
X120056190Y-90245142D01*
X120056190Y-90508000D01*
X120012380Y-90595619D01*
X119968571Y-90639428D01*
D11*
X156289823Y-126715007D02*
X156345461Y-126548093D01*
X156345461Y-126269902D01*
X156289823Y-126158626D01*
X156234185Y-126102988D01*
X156122909Y-126047350D01*
X156011633Y-126047350D01*
X155900357Y-126102988D01*
X155844719Y-126158626D01*
X155789080Y-126269902D01*
X155733442Y-126492455D01*
X155677804Y-126603731D01*
X155622166Y-126659369D01*
X155510890Y-126715007D01*
X155399614Y-126715007D01*
X155288338Y-126659369D01*
X155232700Y-126603731D01*
X155177061Y-126492455D01*
X155177061Y-126214264D01*
X155232700Y-126047350D01*
X156345461Y-125546607D02*
X155177061Y-125546607D01*
X155177061Y-125268417D01*
X155232700Y-125101502D01*
X155343976Y-124990226D01*
X155455252Y-124934588D01*
X155677804Y-124878950D01*
X155844719Y-124878950D01*
X156067271Y-124934588D01*
X156178547Y-124990226D01*
X156289823Y-125101502D01*
X156345461Y-125268417D01*
X156345461Y-125546607D01*
X156011633Y-124433845D02*
X156011633Y-123877464D01*
X156345461Y-124545121D02*
X155177061Y-124155655D01*
X156345461Y-123766188D01*
D15*
X126172147Y-99259790D02*
X126172147Y-98339790D01*
X126478814Y-98996933D01*
X126785480Y-98339790D01*
X126785480Y-99259790D01*
X127398814Y-98339790D02*
X127574052Y-98339790D01*
X127661671Y-98383600D01*
X127749290Y-98471219D01*
X127793100Y-98646457D01*
X127793100Y-98953123D01*
X127749290Y-99128361D01*
X127661671Y-99215980D01*
X127574052Y-99259790D01*
X127398814Y-99259790D01*
X127311195Y-99215980D01*
X127223576Y-99128361D01*
X127179766Y-98953123D01*
X127179766Y-98646457D01*
X127223576Y-98471219D01*
X127311195Y-98383600D01*
X127398814Y-98339790D01*
X128143576Y-99215980D02*
X128275004Y-99259790D01*
X128494052Y-99259790D01*
X128581671Y-99215980D01*
X128625480Y-99172171D01*
X128669290Y-99084552D01*
X128669290Y-98996933D01*
X128625480Y-98909314D01*
X128581671Y-98865504D01*
X128494052Y-98821695D01*
X128318814Y-98777885D01*
X128231195Y-98734076D01*
X128187385Y-98690266D01*
X128143576Y-98602647D01*
X128143576Y-98515028D01*
X128187385Y-98427409D01*
X128231195Y-98383600D01*
X128318814Y-98339790D01*
X128537861Y-98339790D01*
X128669290Y-98383600D01*
X129063576Y-99259790D02*
X129063576Y-98339790D01*
D17*
X134318242Y-89372171D02*
X134515385Y-89437885D01*
X134843957Y-89437885D01*
X134975385Y-89372171D01*
X135041100Y-89306457D01*
X135106814Y-89175028D01*
X135106814Y-89043600D01*
X135041100Y-88912171D01*
X134975385Y-88846457D01*
X134843957Y-88780742D01*
X134581100Y-88715028D01*
X134449671Y-88649314D01*
X134383957Y-88583600D01*
X134318242Y-88452171D01*
X134318242Y-88320742D01*
X134383957Y-88189314D01*
X134449671Y-88123600D01*
X134581100Y-88057885D01*
X134909671Y-88057885D01*
X135106814Y-88123600D01*
X135566814Y-88057885D02*
X135895385Y-89437885D01*
X136158242Y-88452171D01*
X136421100Y-89437885D01*
X136749671Y-88057885D01*
D15*
X140968571Y-126603238D02*
X141012380Y-126647047D01*
X141056190Y-126778476D01*
X141056190Y-126866095D01*
X141012380Y-126997523D01*
X140924761Y-127085142D01*
X140837142Y-127128952D01*
X140661904Y-127172761D01*
X140530476Y-127172761D01*
X140355238Y-127128952D01*
X140267619Y-127085142D01*
X140180000Y-126997523D01*
X140136190Y-126866095D01*
X140136190Y-126778476D01*
X140180000Y-126647047D01*
X140223809Y-126603238D01*
X140793333Y-126252761D02*
X140793333Y-125814666D01*
X141056190Y-126340380D02*
X140136190Y-126033714D01*
X141056190Y-125727047D01*
X141056190Y-125420380D02*
X140136190Y-125420380D01*
X141056190Y-124894666D01*
X140136190Y-124894666D01*
X141056190Y-124456571D02*
X140136190Y-124456571D01*
X140574285Y-124456571D02*
X140574285Y-123930857D01*
X141056190Y-123930857D02*
X140136190Y-123930857D01*
X144477238Y-134112380D02*
X144608666Y-134156190D01*
X144827714Y-134156190D01*
X144915333Y-134112380D01*
X144959142Y-134068571D01*
X145002952Y-133980952D01*
X145002952Y-133893333D01*
X144959142Y-133805714D01*
X144915333Y-133761904D01*
X144827714Y-133718095D01*
X144652476Y-133674285D01*
X144564857Y-133630476D01*
X144521047Y-133586666D01*
X144477238Y-133499047D01*
X144477238Y-133411428D01*
X144521047Y-133323809D01*
X144564857Y-133280000D01*
X144652476Y-133236190D01*
X144871523Y-133236190D01*
X145002952Y-133280000D01*
X145922952Y-134068571D02*
X145879142Y-134112380D01*
X145747714Y-134156190D01*
X145660095Y-134156190D01*
X145528666Y-134112380D01*
X145441047Y-134024761D01*
X145397238Y-133937142D01*
X145353428Y-133761904D01*
X145353428Y-133630476D01*
X145397238Y-133455238D01*
X145441047Y-133367619D01*
X145528666Y-133280000D01*
X145660095Y-133236190D01*
X145747714Y-133236190D01*
X145879142Y-133280000D01*
X145922952Y-133323809D01*
X146317238Y-134156190D02*
X146317238Y-133236190D01*
X146842952Y-134156190D02*
X146448666Y-133630476D01*
X146842952Y-133236190D02*
X146317238Y-133761904D01*
D14*
X177002666Y-112522666D02*
X176941333Y-112645333D01*
X176880000Y-112706666D01*
X176757333Y-112768000D01*
X176696000Y-112768000D01*
X176573333Y-112706666D01*
X176512000Y-112645333D01*
X176450666Y-112522666D01*
X176450666Y-112277333D01*
X176512000Y-112154666D01*
X176573333Y-112093333D01*
X176696000Y-112032000D01*
X176757333Y-112032000D01*
X176880000Y-112093333D01*
X176941333Y-112154666D01*
X177002666Y-112277333D01*
X177002666Y-112522666D01*
X177064000Y-112645333D01*
X177125333Y-112706666D01*
X177248000Y-112768000D01*
X177493333Y-112768000D01*
X177616000Y-112706666D01*
X177677333Y-112645333D01*
X177738666Y-112522666D01*
X177738666Y-112277333D01*
X177677333Y-112154666D01*
X177616000Y-112093333D01*
X177493333Y-112032000D01*
X177248000Y-112032000D01*
X177125333Y-112093333D01*
X177064000Y-112154666D01*
X177002666Y-112277333D01*
D15*
X120012380Y-97422761D02*
X120056190Y-97291333D01*
X120056190Y-97072285D01*
X120012380Y-96984666D01*
X119968571Y-96940857D01*
X119880952Y-96897047D01*
X119793333Y-96897047D01*
X119705714Y-96940857D01*
X119661904Y-96984666D01*
X119618095Y-97072285D01*
X119574285Y-97247523D01*
X119530476Y-97335142D01*
X119486666Y-97378952D01*
X119399047Y-97422761D01*
X119311428Y-97422761D01*
X119223809Y-97378952D01*
X119180000Y-97335142D01*
X119136190Y-97247523D01*
X119136190Y-97028476D01*
X119180000Y-96897047D01*
X119968571Y-95977047D02*
X120012380Y-96020857D01*
X120056190Y-96152285D01*
X120056190Y-96239904D01*
X120012380Y-96371333D01*
X119924761Y-96458952D01*
X119837142Y-96502761D01*
X119661904Y-96546571D01*
X119530476Y-96546571D01*
X119355238Y-96502761D01*
X119267619Y-96458952D01*
X119180000Y-96371333D01*
X119136190Y-96239904D01*
X119136190Y-96152285D01*
X119180000Y-96020857D01*
X119223809Y-95977047D01*
X120056190Y-95582761D02*
X119136190Y-95582761D01*
X120056190Y-95057047D02*
X119530476Y-95451333D01*
X119136190Y-95057047D02*
X119661904Y-95582761D01*
X157702952Y-133280000D02*
X157615333Y-133236190D01*
X157483904Y-133236190D01*
X157352476Y-133280000D01*
X157264857Y-133367619D01*
X157221047Y-133455238D01*
X157177238Y-133630476D01*
X157177238Y-133761904D01*
X157221047Y-133937142D01*
X157264857Y-134024761D01*
X157352476Y-134112380D01*
X157483904Y-134156190D01*
X157571523Y-134156190D01*
X157702952Y-134112380D01*
X157746761Y-134068571D01*
X157746761Y-133761904D01*
X157571523Y-133761904D01*
X158141047Y-134156190D02*
X158141047Y-133236190D01*
X158666761Y-134156190D01*
X158666761Y-133236190D01*
X159104857Y-134156190D02*
X159104857Y-133236190D01*
X159323904Y-133236190D01*
X159455333Y-133280000D01*
X159542952Y-133367619D01*
X159586761Y-133455238D01*
X159630571Y-133630476D01*
X159630571Y-133761904D01*
X159586761Y-133937142D01*
X159542952Y-134024761D01*
X159455333Y-134112380D01*
X159323904Y-134156190D01*
X159104857Y-134156190D01*
X139096761Y-134068571D02*
X139052952Y-134112380D01*
X138921523Y-134156190D01*
X138833904Y-134156190D01*
X138702476Y-134112380D01*
X138614857Y-134024761D01*
X138571047Y-133937142D01*
X138527238Y-133761904D01*
X138527238Y-133630476D01*
X138571047Y-133455238D01*
X138614857Y-133367619D01*
X138702476Y-133280000D01*
X138833904Y-133236190D01*
X138921523Y-133236190D01*
X139052952Y-133280000D01*
X139096761Y-133323809D01*
X139447238Y-133893333D02*
X139885333Y-133893333D01*
X139359619Y-134156190D02*
X139666285Y-133236190D01*
X139972952Y-134156190D01*
X140279619Y-134156190D02*
X140279619Y-133236190D01*
X140805333Y-134156190D01*
X140805333Y-133236190D01*
X141681523Y-134156190D02*
X141243428Y-134156190D01*
X141243428Y-133236190D01*
X164354052Y-76283600D02*
X164266433Y-76239790D01*
X164135004Y-76239790D01*
X164003576Y-76283600D01*
X163915957Y-76371219D01*
X163872147Y-76458838D01*
X163828338Y-76634076D01*
X163828338Y-76765504D01*
X163872147Y-76940742D01*
X163915957Y-77028361D01*
X164003576Y-77115980D01*
X164135004Y-77159790D01*
X164222623Y-77159790D01*
X164354052Y-77115980D01*
X164397861Y-77072171D01*
X164397861Y-76765504D01*
X164222623Y-76765504D01*
X164792147Y-77159790D02*
X164792147Y-76239790D01*
X165142623Y-76239790D01*
X165230242Y-76283600D01*
X165274052Y-76327409D01*
X165317861Y-76415028D01*
X165317861Y-76546457D01*
X165274052Y-76634076D01*
X165230242Y-76677885D01*
X165142623Y-76721695D01*
X164792147Y-76721695D01*
X165624528Y-76239790D02*
X166237861Y-76239790D01*
X165843576Y-77159790D01*
X138927238Y-123812380D02*
X139058666Y-123856190D01*
X139277714Y-123856190D01*
X139365333Y-123812380D01*
X139409142Y-123768571D01*
X139452952Y-123680952D01*
X139452952Y-123593333D01*
X139409142Y-123505714D01*
X139365333Y-123461904D01*
X139277714Y-123418095D01*
X139102476Y-123374285D01*
X139014857Y-123330476D01*
X138971047Y-123286666D01*
X138927238Y-123199047D01*
X138927238Y-123111428D01*
X138971047Y-123023809D01*
X139014857Y-122980000D01*
X139102476Y-122936190D01*
X139321523Y-122936190D01*
X139452952Y-122980000D01*
X139759619Y-122936190D02*
X139978666Y-123856190D01*
X140153904Y-123199047D01*
X140329142Y-123856190D01*
X140548190Y-122936190D01*
X141424380Y-123768571D02*
X141380571Y-123812380D01*
X141249142Y-123856190D01*
X141161523Y-123856190D01*
X141030095Y-123812380D01*
X140942476Y-123724761D01*
X140898666Y-123637142D01*
X140854857Y-123461904D01*
X140854857Y-123330476D01*
X140898666Y-123155238D01*
X140942476Y-123067619D01*
X141030095Y-122980000D01*
X141161523Y-122936190D01*
X141249142Y-122936190D01*
X141380571Y-122980000D01*
X141424380Y-123023809D01*
D21*
X167449100Y-100428171D02*
X167449100Y-99639600D01*
X167922242Y-100585885D02*
X166266242Y-100033885D01*
X167922242Y-99481885D01*
X166818242Y-98929885D02*
X167922242Y-98929885D01*
X166975957Y-98929885D02*
X166897100Y-98851028D01*
X166818242Y-98693314D01*
X166818242Y-98456742D01*
X166897100Y-98299028D01*
X167054814Y-98220171D01*
X167922242Y-98220171D01*
X167922242Y-96721885D02*
X167054814Y-96721885D01*
X166897100Y-96800742D01*
X166818242Y-96958457D01*
X166818242Y-97273885D01*
X166897100Y-97431600D01*
X167843385Y-96721885D02*
X167922242Y-96879600D01*
X167922242Y-97273885D01*
X167843385Y-97431600D01*
X167685671Y-97510457D01*
X167527957Y-97510457D01*
X167370242Y-97431600D01*
X167291385Y-97273885D01*
X167291385Y-96879600D01*
X167212528Y-96721885D01*
X167922242Y-95696742D02*
X167843385Y-95854457D01*
X167685671Y-95933314D01*
X166266242Y-95933314D01*
X167922242Y-94829314D02*
X167843385Y-94987028D01*
X167764528Y-95065885D01*
X167606814Y-95144742D01*
X167133671Y-95144742D01*
X166975957Y-95065885D01*
X166897100Y-94987028D01*
X166818242Y-94829314D01*
X166818242Y-94592742D01*
X166897100Y-94435028D01*
X166975957Y-94356171D01*
X167133671Y-94277314D01*
X167606814Y-94277314D01*
X167764528Y-94356171D01*
X167843385Y-94435028D01*
X167922242Y-94592742D01*
X167922242Y-94829314D01*
X166818242Y-92857885D02*
X168158814Y-92857885D01*
X168316528Y-92936742D01*
X168395385Y-93015600D01*
X168474242Y-93173314D01*
X168474242Y-93409885D01*
X168395385Y-93567600D01*
X167843385Y-92857885D02*
X167922242Y-93015600D01*
X167922242Y-93331028D01*
X167843385Y-93488742D01*
X167764528Y-93567600D01*
X167606814Y-93646457D01*
X167133671Y-93646457D01*
X166975957Y-93567600D01*
X166897100Y-93488742D01*
X166818242Y-93331028D01*
X166818242Y-93015600D01*
X166897100Y-92857885D01*
D19*
X160305100Y-126024761D02*
X160248147Y-126138666D01*
X160248147Y-126309523D01*
X160305100Y-126480380D01*
X160419004Y-126594285D01*
X160532909Y-126651238D01*
X160760719Y-126708190D01*
X160931576Y-126708190D01*
X161159385Y-126651238D01*
X161273290Y-126594285D01*
X161387195Y-126480380D01*
X161444147Y-126309523D01*
X161444147Y-126195619D01*
X161387195Y-126024761D01*
X161330242Y-125967809D01*
X160931576Y-125967809D01*
X160931576Y-126195619D01*
X161444147Y-125455238D02*
X160248147Y-125455238D01*
X160248147Y-124999619D01*
X160305100Y-124885714D01*
X160362052Y-124828761D01*
X160475957Y-124771809D01*
X160646814Y-124771809D01*
X160760719Y-124828761D01*
X160817671Y-124885714D01*
X160874623Y-124999619D01*
X160874623Y-125455238D01*
X160646814Y-123746666D02*
X161444147Y-123746666D01*
X160191195Y-124031428D02*
X161045480Y-124316190D01*
X161045480Y-123575809D01*
D15*
X125836190Y-92216571D02*
X125836190Y-91647047D01*
X126186666Y-91953714D01*
X126186666Y-91822285D01*
X126230476Y-91734666D01*
X126274285Y-91690857D01*
X126361904Y-91647047D01*
X126580952Y-91647047D01*
X126668571Y-91690857D01*
X126712380Y-91734666D01*
X126756190Y-91822285D01*
X126756190Y-92085142D01*
X126712380Y-92172761D01*
X126668571Y-92216571D01*
X126142857Y-91340380D02*
X126756190Y-91121333D01*
X126142857Y-90902285D01*
X125836190Y-90639428D02*
X125836190Y-90069904D01*
X126186666Y-90376571D01*
X126186666Y-90245142D01*
X126230476Y-90157523D01*
X126274285Y-90113714D01*
X126361904Y-90069904D01*
X126580952Y-90069904D01*
X126668571Y-90113714D01*
X126712380Y-90157523D01*
X126756190Y-90245142D01*
X126756190Y-90508000D01*
X126712380Y-90595619D01*
X126668571Y-90639428D01*
X137101100Y-125058457D02*
X137057290Y-125146076D01*
X137057290Y-125277504D01*
X137101100Y-125408933D01*
X137188719Y-125496552D01*
X137276338Y-125540361D01*
X137451576Y-125584171D01*
X137583004Y-125584171D01*
X137758242Y-125540361D01*
X137845861Y-125496552D01*
X137933480Y-125408933D01*
X137977290Y-125277504D01*
X137977290Y-125189885D01*
X137933480Y-125058457D01*
X137889671Y-125014647D01*
X137583004Y-125014647D01*
X137583004Y-125189885D01*
X137977290Y-124620361D02*
X137057290Y-124620361D01*
X137977290Y-124094647D01*
X137057290Y-124094647D01*
X137977290Y-123656552D02*
X137057290Y-123656552D01*
X137057290Y-123437504D01*
X137101100Y-123306076D01*
X137188719Y-123218457D01*
X137276338Y-123174647D01*
X137451576Y-123130838D01*
X137583004Y-123130838D01*
X137758242Y-123174647D01*
X137845861Y-123218457D01*
X137933480Y-123306076D01*
X137977290Y-123437504D01*
X137977290Y-123656552D01*
X164354052Y-82883600D02*
X164266433Y-82839790D01*
X164135004Y-82839790D01*
X164003576Y-82883600D01*
X163915957Y-82971219D01*
X163872147Y-83058838D01*
X163828338Y-83234076D01*
X163828338Y-83365504D01*
X163872147Y-83540742D01*
X163915957Y-83628361D01*
X164003576Y-83715980D01*
X164135004Y-83759790D01*
X164222623Y-83759790D01*
X164354052Y-83715980D01*
X164397861Y-83672171D01*
X164397861Y-83365504D01*
X164222623Y-83365504D01*
X164792147Y-83759790D02*
X164792147Y-82839790D01*
X165142623Y-82839790D01*
X165230242Y-82883600D01*
X165274052Y-82927409D01*
X165317861Y-83015028D01*
X165317861Y-83146457D01*
X165274052Y-83234076D01*
X165230242Y-83277885D01*
X165142623Y-83321695D01*
X164792147Y-83321695D01*
X166150242Y-82839790D02*
X165712147Y-82839790D01*
X165668338Y-83277885D01*
X165712147Y-83234076D01*
X165799766Y-83190266D01*
X166018814Y-83190266D01*
X166106433Y-83234076D01*
X166150242Y-83277885D01*
X166194052Y-83365504D01*
X166194052Y-83584552D01*
X166150242Y-83672171D01*
X166106433Y-83715980D01*
X166018814Y-83759790D01*
X165799766Y-83759790D01*
X165712147Y-83715980D01*
X165668338Y-83672171D01*
X137297861Y-127072171D02*
X137254052Y-127115980D01*
X137122623Y-127159790D01*
X137035004Y-127159790D01*
X136903576Y-127115980D01*
X136815957Y-127028361D01*
X136772147Y-126940742D01*
X136728338Y-126765504D01*
X136728338Y-126634076D01*
X136772147Y-126458838D01*
X136815957Y-126371219D01*
X136903576Y-126283600D01*
X137035004Y-126239790D01*
X137122623Y-126239790D01*
X137254052Y-126283600D01*
X137297861Y-126327409D01*
X137648338Y-126896933D02*
X138086433Y-126896933D01*
X137560719Y-127159790D02*
X137867385Y-126239790D01*
X138174052Y-127159790D01*
X138480719Y-127159790D02*
X138480719Y-126239790D01*
X139006433Y-127159790D01*
X139006433Y-126239790D01*
X139970242Y-127159790D02*
X139663576Y-126721695D01*
X139444528Y-127159790D02*
X139444528Y-126239790D01*
X139795004Y-126239790D01*
X139882623Y-126283600D01*
X139926433Y-126327409D01*
X139970242Y-126415028D01*
X139970242Y-126546457D01*
X139926433Y-126634076D01*
X139882623Y-126677885D01*
X139795004Y-126721695D01*
X139444528Y-126721695D01*
X176580000Y-94143447D02*
X176536190Y-94231066D01*
X176536190Y-94362495D01*
X176580000Y-94493923D01*
X176667619Y-94581542D01*
X176755238Y-94625352D01*
X176930476Y-94669161D01*
X177061904Y-94669161D01*
X177237142Y-94625352D01*
X177324761Y-94581542D01*
X177412380Y-94493923D01*
X177456190Y-94362495D01*
X177456190Y-94274876D01*
X177412380Y-94143447D01*
X177368571Y-94099638D01*
X177061904Y-94099638D01*
X177061904Y-94274876D01*
X177456190Y-93705352D02*
X176536190Y-93705352D01*
X177456190Y-93179638D01*
X176536190Y-93179638D01*
X177456190Y-92741542D02*
X176536190Y-92741542D01*
X176536190Y-92522495D01*
X176580000Y-92391066D01*
X176667619Y-92303447D01*
X176755238Y-92259638D01*
X176930476Y-92215828D01*
X177061904Y-92215828D01*
X177237142Y-92259638D01*
X177324761Y-92303447D01*
X177412380Y-92391066D01*
X177456190Y-92522495D01*
X177456190Y-92741542D01*
X126668571Y-94303238D02*
X126712380Y-94347047D01*
X126756190Y-94478476D01*
X126756190Y-94566095D01*
X126712380Y-94697523D01*
X126624761Y-94785142D01*
X126537142Y-94828952D01*
X126361904Y-94872761D01*
X126230476Y-94872761D01*
X126055238Y-94828952D01*
X125967619Y-94785142D01*
X125880000Y-94697523D01*
X125836190Y-94566095D01*
X125836190Y-94478476D01*
X125880000Y-94347047D01*
X125923809Y-94303238D01*
X126712380Y-93952761D02*
X126756190Y-93821333D01*
X126756190Y-93602285D01*
X126712380Y-93514666D01*
X126668571Y-93470857D01*
X126580952Y-93427047D01*
X126493333Y-93427047D01*
X126405714Y-93470857D01*
X126361904Y-93514666D01*
X126318095Y-93602285D01*
X126274285Y-93777523D01*
X126230476Y-93865142D01*
X126186666Y-93908952D01*
X126099047Y-93952761D01*
X126011428Y-93952761D01*
X125923809Y-93908952D01*
X125880000Y-93865142D01*
X125836190Y-93777523D01*
X125836190Y-93558476D01*
X125880000Y-93427047D01*
X125923809Y-93076571D02*
X125880000Y-93032761D01*
X125836190Y-92945142D01*
X125836190Y-92726095D01*
X125880000Y-92638476D01*
X125923809Y-92594666D01*
X126011428Y-92550857D01*
X126099047Y-92550857D01*
X126230476Y-92594666D01*
X126756190Y-93120380D01*
X126756190Y-92550857D01*
D16*
X147825385Y-122209885D02*
X148346719Y-122209885D01*
X148570147Y-123029123D02*
X147825385Y-123029123D01*
X147825385Y-121465123D01*
X148570147Y-121465123D01*
X149091480Y-121465123D02*
X150134147Y-123029123D01*
X150134147Y-121465123D02*
X149091480Y-123029123D01*
X150506528Y-121465123D02*
X151400242Y-121465123D01*
X150953385Y-123029123D02*
X150953385Y-121465123D01*
D14*
X124465100Y-106794800D02*
X124526433Y-106610800D01*
X124587766Y-106549466D01*
X124710433Y-106488133D01*
X124894433Y-106488133D01*
X125017100Y-106549466D01*
X125078433Y-106610800D01*
X125139766Y-106733466D01*
X125139766Y-107224133D01*
X123851766Y-107224133D01*
X123851766Y-106794800D01*
X123913100Y-106672133D01*
X123974433Y-106610800D01*
X124097100Y-106549466D01*
X124219766Y-106549466D01*
X124342433Y-106610800D01*
X124403766Y-106672133D01*
X124465100Y-106794800D01*
X124465100Y-107224133D01*
D11*
X129846073Y-83169028D02*
X129846073Y-83947961D01*
X129567882Y-82723923D02*
X129289692Y-83558495D01*
X130012987Y-83558495D01*
X142477061Y-126302988D02*
X142477061Y-126859369D01*
X143033442Y-126915007D01*
X142977804Y-126859369D01*
X142922166Y-126748093D01*
X142922166Y-126469902D01*
X142977804Y-126358626D01*
X143033442Y-126302988D01*
X143144719Y-126247350D01*
X143422909Y-126247350D01*
X143534185Y-126302988D01*
X143589823Y-126358626D01*
X143645461Y-126469902D01*
X143645461Y-126748093D01*
X143589823Y-126859369D01*
X143534185Y-126915007D01*
X142477061Y-125913521D02*
X143645461Y-125524055D01*
X142477061Y-125134588D01*
D15*
X149571047Y-134156190D02*
X149571047Y-133236190D01*
X149877714Y-133893333D01*
X150184380Y-133236190D01*
X150184380Y-134156190D01*
X150797714Y-133236190D02*
X150972952Y-133236190D01*
X151060571Y-133280000D01*
X151148190Y-133367619D01*
X151192000Y-133542857D01*
X151192000Y-133849523D01*
X151148190Y-134024761D01*
X151060571Y-134112380D01*
X150972952Y-134156190D01*
X150797714Y-134156190D01*
X150710095Y-134112380D01*
X150622476Y-134024761D01*
X150578666Y-133849523D01*
X150578666Y-133542857D01*
X150622476Y-133367619D01*
X150710095Y-133280000D01*
X150797714Y-133236190D01*
X151498666Y-133236190D02*
X152068190Y-133236190D01*
X151761523Y-133586666D01*
X151892952Y-133586666D01*
X151980571Y-133630476D01*
X152024380Y-133674285D01*
X152068190Y-133761904D01*
X152068190Y-133980952D01*
X152024380Y-134068571D01*
X151980571Y-134112380D01*
X151892952Y-134156190D01*
X151630095Y-134156190D01*
X151542476Y-134112380D01*
X151498666Y-134068571D01*
X141833428Y-122839790D02*
X142402952Y-122839790D01*
X142096285Y-123190266D01*
X142227714Y-123190266D01*
X142315333Y-123234076D01*
X142359142Y-123277885D01*
X142402952Y-123365504D01*
X142402952Y-123584552D01*
X142359142Y-123672171D01*
X142315333Y-123715980D01*
X142227714Y-123759790D01*
X141964857Y-123759790D01*
X141877238Y-123715980D01*
X141833428Y-123672171D01*
X142709619Y-123146457D02*
X142928666Y-123759790D01*
X143147714Y-123146457D01*
X143410571Y-122839790D02*
X143980095Y-122839790D01*
X143673428Y-123190266D01*
X143804857Y-123190266D01*
X143892476Y-123234076D01*
X143936285Y-123277885D01*
X143980095Y-123365504D01*
X143980095Y-123584552D01*
X143936285Y-123672171D01*
X143892476Y-123715980D01*
X143804857Y-123759790D01*
X143542000Y-123759790D01*
X143454380Y-123715980D01*
X143410571Y-123672171D01*
X125880000Y-89097047D02*
X125836190Y-89184666D01*
X125836190Y-89316095D01*
X125880000Y-89447523D01*
X125967619Y-89535142D01*
X126055238Y-89578952D01*
X126230476Y-89622761D01*
X126361904Y-89622761D01*
X126537142Y-89578952D01*
X126624761Y-89535142D01*
X126712380Y-89447523D01*
X126756190Y-89316095D01*
X126756190Y-89228476D01*
X126712380Y-89097047D01*
X126668571Y-89053238D01*
X126361904Y-89053238D01*
X126361904Y-89228476D01*
X126756190Y-88658952D02*
X125836190Y-88658952D01*
X126756190Y-88133238D01*
X125836190Y-88133238D01*
X126756190Y-87695142D02*
X125836190Y-87695142D01*
X125836190Y-87476095D01*
X125880000Y-87344666D01*
X125967619Y-87257047D01*
X126055238Y-87213238D01*
X126230476Y-87169428D01*
X126361904Y-87169428D01*
X126537142Y-87213238D01*
X126624761Y-87257047D01*
X126712380Y-87344666D01*
X126756190Y-87476095D01*
X126756190Y-87695142D01*
X155696761Y-134156190D02*
X155390095Y-133718095D01*
X155171047Y-134156190D02*
X155171047Y-133236190D01*
X155521523Y-133236190D01*
X155609142Y-133280000D01*
X155652952Y-133323809D01*
X155696761Y-133411428D01*
X155696761Y-133542857D01*
X155652952Y-133630476D01*
X155609142Y-133674285D01*
X155521523Y-133718095D01*
X155171047Y-133718095D01*
X156003428Y-133236190D02*
X156616761Y-134156190D01*
X156616761Y-133236190D02*
X156003428Y-134156190D01*
D14*
X170415766Y-95832000D02*
X170415766Y-96568000D01*
X170415766Y-96200000D02*
X169127766Y-96200000D01*
X169311766Y-96322666D01*
X169434433Y-96445333D01*
X169495766Y-96568000D01*
D18*
X169248980Y-116096457D02*
X169196408Y-116201600D01*
X169196408Y-116359314D01*
X169248980Y-116517028D01*
X169354122Y-116622171D01*
X169459265Y-116674742D01*
X169669551Y-116727314D01*
X169827265Y-116727314D01*
X170037551Y-116674742D01*
X170142694Y-116622171D01*
X170247837Y-116517028D01*
X170300408Y-116359314D01*
X170300408Y-116254171D01*
X170247837Y-116096457D01*
X170195265Y-116043885D01*
X169827265Y-116043885D01*
X169827265Y-116254171D01*
X170300408Y-115570742D02*
X169196408Y-115570742D01*
X170300408Y-114939885D01*
X169196408Y-114939885D01*
X170300408Y-114414171D02*
X169196408Y-114414171D01*
X169196408Y-114151314D01*
X169248980Y-113993600D01*
X169354122Y-113888457D01*
X169459265Y-113835885D01*
X169669551Y-113783314D01*
X169827265Y-113783314D01*
X170037551Y-113835885D01*
X170142694Y-113888457D01*
X170247837Y-113993600D01*
X170300408Y-114151314D01*
X170300408Y-114414171D01*
D11*
X131989692Y-82890838D02*
X132045330Y-82835200D01*
X132156606Y-82779561D01*
X132434797Y-82779561D01*
X132546073Y-82835200D01*
X132601711Y-82890838D01*
X132657349Y-83002114D01*
X132657349Y-83113390D01*
X132601711Y-83280304D01*
X131934054Y-83947961D01*
X132657349Y-83947961D01*
D14*
X124771766Y-109885466D02*
X124771766Y-109272133D01*
X125139766Y-110008133D02*
X123851766Y-109578800D01*
X125139766Y-109149466D01*
X169150666Y-107829333D02*
X169150666Y-107032000D01*
X169641333Y-107461333D01*
X169641333Y-107277333D01*
X169702666Y-107154666D01*
X169764000Y-107093333D01*
X169886666Y-107032000D01*
X170193333Y-107032000D01*
X170316000Y-107093333D01*
X170377333Y-107154666D01*
X170438666Y-107277333D01*
X170438666Y-107645333D01*
X170377333Y-107768000D01*
X170316000Y-107829333D01*
D15*
X169537290Y-91716571D02*
X169537290Y-91147047D01*
X169887766Y-91453714D01*
X169887766Y-91322285D01*
X169931576Y-91234666D01*
X169975385Y-91190857D01*
X170063004Y-91147047D01*
X170282052Y-91147047D01*
X170369671Y-91190857D01*
X170413480Y-91234666D01*
X170457290Y-91322285D01*
X170457290Y-91585142D01*
X170413480Y-91672761D01*
X170369671Y-91716571D01*
X169843957Y-90840380D02*
X170457290Y-90621333D01*
X169843957Y-90402285D01*
X169537290Y-90139428D02*
X169537290Y-89569904D01*
X169887766Y-89876571D01*
X169887766Y-89745142D01*
X169931576Y-89657523D01*
X169975385Y-89613714D01*
X170063004Y-89569904D01*
X170282052Y-89569904D01*
X170369671Y-89613714D01*
X170413480Y-89657523D01*
X170457290Y-89745142D01*
X170457290Y-90008000D01*
X170413480Y-90095619D01*
X170369671Y-90139428D01*
D19*
X162905100Y-126024761D02*
X162848147Y-126138666D01*
X162848147Y-126309523D01*
X162905100Y-126480380D01*
X163019004Y-126594285D01*
X163132909Y-126651238D01*
X163360719Y-126708190D01*
X163531576Y-126708190D01*
X163759385Y-126651238D01*
X163873290Y-126594285D01*
X163987195Y-126480380D01*
X164044147Y-126309523D01*
X164044147Y-126195619D01*
X163987195Y-126024761D01*
X163930242Y-125967809D01*
X163531576Y-125967809D01*
X163531576Y-126195619D01*
X164044147Y-125455238D02*
X162848147Y-125455238D01*
X162848147Y-124999619D01*
X162905100Y-124885714D01*
X162962052Y-124828761D01*
X163075957Y-124771809D01*
X163246814Y-124771809D01*
X163360719Y-124828761D01*
X163417671Y-124885714D01*
X163474623Y-124999619D01*
X163474623Y-125455238D01*
X162848147Y-124373142D02*
X162848147Y-123632761D01*
X163303766Y-124031428D01*
X163303766Y-123860571D01*
X163360719Y-123746666D01*
X163417671Y-123689714D01*
X163531576Y-123632761D01*
X163816338Y-123632761D01*
X163930242Y-123689714D01*
X163987195Y-123746666D01*
X164044147Y-123860571D01*
X164044147Y-124202285D01*
X163987195Y-124316190D01*
X163930242Y-124373142D01*
D21*
X167922242Y-113131028D02*
X166266242Y-113131028D01*
X166266242Y-112736742D01*
X166345100Y-112500171D01*
X166502814Y-112342457D01*
X166660528Y-112263600D01*
X166975957Y-112184742D01*
X167212528Y-112184742D01*
X167527957Y-112263600D01*
X167685671Y-112342457D01*
X167843385Y-112500171D01*
X167922242Y-112736742D01*
X167922242Y-113131028D01*
X167922242Y-111475028D02*
X166818242Y-111475028D01*
X166266242Y-111475028D02*
X166345100Y-111553885D01*
X166423957Y-111475028D01*
X166345100Y-111396171D01*
X166266242Y-111475028D01*
X166423957Y-111475028D01*
X166818242Y-109976742D02*
X168158814Y-109976742D01*
X168316528Y-110055600D01*
X168395385Y-110134457D01*
X168474242Y-110292171D01*
X168474242Y-110528742D01*
X168395385Y-110686457D01*
X167843385Y-109976742D02*
X167922242Y-110134457D01*
X167922242Y-110449885D01*
X167843385Y-110607600D01*
X167764528Y-110686457D01*
X167606814Y-110765314D01*
X167133671Y-110765314D01*
X166975957Y-110686457D01*
X166897100Y-110607600D01*
X166818242Y-110449885D01*
X166818242Y-110134457D01*
X166897100Y-109976742D01*
X167922242Y-109188171D02*
X166818242Y-109188171D01*
X166266242Y-109188171D02*
X166345100Y-109267028D01*
X166423957Y-109188171D01*
X166345100Y-109109314D01*
X166266242Y-109188171D01*
X166423957Y-109188171D01*
X166818242Y-108636171D02*
X166818242Y-108005314D01*
X166266242Y-108399600D02*
X167685671Y-108399600D01*
X167843385Y-108320742D01*
X167922242Y-108163028D01*
X167922242Y-108005314D01*
X167922242Y-106743600D02*
X167054814Y-106743600D01*
X166897100Y-106822457D01*
X166818242Y-106980171D01*
X166818242Y-107295600D01*
X166897100Y-107453314D01*
X167843385Y-106743600D02*
X167922242Y-106901314D01*
X167922242Y-107295600D01*
X167843385Y-107453314D01*
X167685671Y-107532171D01*
X167527957Y-107532171D01*
X167370242Y-107453314D01*
X167291385Y-107295600D01*
X167291385Y-106901314D01*
X167212528Y-106743600D01*
X167922242Y-105718457D02*
X167843385Y-105876171D01*
X167685671Y-105955028D01*
X166266242Y-105955028D01*
D15*
X119180000Y-88997047D02*
X119136190Y-89084666D01*
X119136190Y-89216095D01*
X119180000Y-89347523D01*
X119267619Y-89435142D01*
X119355238Y-89478952D01*
X119530476Y-89522761D01*
X119661904Y-89522761D01*
X119837142Y-89478952D01*
X119924761Y-89435142D01*
X120012380Y-89347523D01*
X120056190Y-89216095D01*
X120056190Y-89128476D01*
X120012380Y-88997047D01*
X119968571Y-88953238D01*
X119661904Y-88953238D01*
X119661904Y-89128476D01*
X120056190Y-88558952D02*
X119136190Y-88558952D01*
X120056190Y-88033238D01*
X119136190Y-88033238D01*
X120056190Y-87595142D02*
X119136190Y-87595142D01*
X119136190Y-87376095D01*
X119180000Y-87244666D01*
X119267619Y-87157047D01*
X119355238Y-87113238D01*
X119530476Y-87069428D01*
X119661904Y-87069428D01*
X119837142Y-87113238D01*
X119924761Y-87157047D01*
X120012380Y-87244666D01*
X120056190Y-87376095D01*
X120056190Y-87595142D01*
D14*
X176880000Y-107154666D02*
X177738666Y-107154666D01*
X176389333Y-107461333D02*
X177309333Y-107768000D01*
X177309333Y-106970666D01*
X170438666Y-104332000D02*
X170438666Y-105068000D01*
X170438666Y-104700000D02*
X169150666Y-104700000D01*
X169334666Y-104822666D01*
X169457333Y-104945333D01*
X169518666Y-105068000D01*
D15*
X165502952Y-133280000D02*
X165415333Y-133236190D01*
X165283904Y-133236190D01*
X165152476Y-133280000D01*
X165064857Y-133367619D01*
X165021047Y-133455238D01*
X164977238Y-133630476D01*
X164977238Y-133761904D01*
X165021047Y-133937142D01*
X165064857Y-134024761D01*
X165152476Y-134112380D01*
X165283904Y-134156190D01*
X165371523Y-134156190D01*
X165502952Y-134112380D01*
X165546761Y-134068571D01*
X165546761Y-133761904D01*
X165371523Y-133761904D01*
X165941047Y-134156190D02*
X165941047Y-133236190D01*
X166466761Y-134156190D01*
X166466761Y-133236190D01*
X166904857Y-134156190D02*
X166904857Y-133236190D01*
X167123904Y-133236190D01*
X167255333Y-133280000D01*
X167342952Y-133367619D01*
X167386761Y-133455238D01*
X167430571Y-133630476D01*
X167430571Y-133761904D01*
X167386761Y-133937142D01*
X167342952Y-134024761D01*
X167255333Y-134112380D01*
X167123904Y-134156190D01*
X166904857Y-134156190D01*
X131997861Y-123859790D02*
X131691195Y-123421695D01*
X131472147Y-123859790D02*
X131472147Y-122939790D01*
X131822623Y-122939790D01*
X131910242Y-122983600D01*
X131954052Y-123027409D01*
X131997861Y-123115028D01*
X131997861Y-123246457D01*
X131954052Y-123334076D01*
X131910242Y-123377885D01*
X131822623Y-123421695D01*
X131472147Y-123421695D01*
X132348338Y-123815980D02*
X132479766Y-123859790D01*
X132698814Y-123859790D01*
X132786433Y-123815980D01*
X132830242Y-123772171D01*
X132874052Y-123684552D01*
X132874052Y-123596933D01*
X132830242Y-123509314D01*
X132786433Y-123465504D01*
X132698814Y-123421695D01*
X132523576Y-123377885D01*
X132435957Y-123334076D01*
X132392147Y-123290266D01*
X132348338Y-123202647D01*
X132348338Y-123115028D01*
X132392147Y-123027409D01*
X132435957Y-122983600D01*
X132523576Y-122939790D01*
X132742623Y-122939790D01*
X132874052Y-122983600D01*
X133136909Y-122939790D02*
X133662623Y-122939790D01*
X133399766Y-123859790D02*
X133399766Y-122939790D01*
X169581100Y-94147047D02*
X169537290Y-94234666D01*
X169537290Y-94366095D01*
X169581100Y-94497523D01*
X169668719Y-94585142D01*
X169756338Y-94628952D01*
X169931576Y-94672761D01*
X170063004Y-94672761D01*
X170238242Y-94628952D01*
X170325861Y-94585142D01*
X170413480Y-94497523D01*
X170457290Y-94366095D01*
X170457290Y-94278476D01*
X170413480Y-94147047D01*
X170369671Y-94103238D01*
X170063004Y-94103238D01*
X170063004Y-94278476D01*
X170457290Y-93708952D02*
X169537290Y-93708952D01*
X170457290Y-93183238D01*
X169537290Y-93183238D01*
X170457290Y-92745142D02*
X169537290Y-92745142D01*
X169537290Y-92526095D01*
X169581100Y-92394666D01*
X169668719Y-92307047D01*
X169756338Y-92263238D01*
X169931576Y-92219428D01*
X170063004Y-92219428D01*
X170238242Y-92263238D01*
X170325861Y-92307047D01*
X170413480Y-92394666D01*
X170457290Y-92526095D01*
X170457290Y-92745142D01*
D14*
X176450666Y-109585333D02*
X176450666Y-109830667D01*
X176512000Y-109953333D01*
X176573333Y-110014667D01*
X176757333Y-110137333D01*
X177002666Y-110198667D01*
X177493333Y-110198667D01*
X177616000Y-110137333D01*
X177677333Y-110076000D01*
X177738666Y-109953333D01*
X177738666Y-109708000D01*
X177677333Y-109585333D01*
X177616000Y-109524000D01*
X177493333Y-109462667D01*
X177186666Y-109462667D01*
X177064000Y-109524000D01*
X177002666Y-109585333D01*
X176941333Y-109708000D01*
X176941333Y-109953333D01*
X177002666Y-110076000D01*
X177064000Y-110137333D01*
X177186666Y-110198667D01*
X176573333Y-105068000D02*
X176512000Y-105006666D01*
X176450666Y-104884000D01*
X176450666Y-104577333D01*
X176512000Y-104454666D01*
X176573333Y-104393333D01*
X176696000Y-104332000D01*
X176818666Y-104332000D01*
X177002666Y-104393333D01*
X177738666Y-105129333D01*
X177738666Y-104332000D01*
D15*
X152640719Y-133239790D02*
X153166433Y-133239790D01*
X152903576Y-134159790D02*
X152903576Y-133239790D01*
X153385480Y-133239790D02*
X153998814Y-134159790D01*
X153998814Y-133239790D02*
X153385480Y-134159790D01*
D14*
X169127766Y-100893333D02*
X169127766Y-101506666D01*
X169741100Y-101568000D01*
X169679766Y-101506666D01*
X169618433Y-101384000D01*
X169618433Y-101077333D01*
X169679766Y-100954666D01*
X169741100Y-100893333D01*
X169863766Y-100832000D01*
X170170433Y-100832000D01*
X170293100Y-100893333D01*
X170354433Y-100954666D01*
X170415766Y-101077333D01*
X170415766Y-101384000D01*
X170354433Y-101506666D01*
X170293100Y-101568000D01*
D15*
X160352952Y-133280000D02*
X160265333Y-133236190D01*
X160133904Y-133236190D01*
X160002476Y-133280000D01*
X159914857Y-133367619D01*
X159871047Y-133455238D01*
X159827238Y-133630476D01*
X159827238Y-133761904D01*
X159871047Y-133937142D01*
X159914857Y-134024761D01*
X160002476Y-134112380D01*
X160133904Y-134156190D01*
X160221523Y-134156190D01*
X160352952Y-134112380D01*
X160396761Y-134068571D01*
X160396761Y-133761904D01*
X160221523Y-133761904D01*
X160791047Y-134156190D02*
X160791047Y-133236190D01*
X161141523Y-133236190D01*
X161229142Y-133280000D01*
X161272952Y-133323809D01*
X161316761Y-133411428D01*
X161316761Y-133542857D01*
X161272952Y-133630476D01*
X161229142Y-133674285D01*
X161141523Y-133718095D01*
X160791047Y-133718095D01*
X162192952Y-134156190D02*
X161667238Y-134156190D01*
X161930095Y-134156190D02*
X161930095Y-133236190D01*
X161842476Y-133367619D01*
X161754857Y-133455238D01*
X161667238Y-133499047D01*
D11*
X129334054Y-76079561D02*
X130057349Y-76079561D01*
X129667882Y-76524666D01*
X129834797Y-76524666D01*
X129946073Y-76580304D01*
X130001711Y-76635942D01*
X130057349Y-76747219D01*
X130057349Y-77025409D01*
X130001711Y-77136685D01*
X129946073Y-77192323D01*
X129834797Y-77247961D01*
X129500968Y-77247961D01*
X129389692Y-77192323D01*
X129334054Y-77136685D01*
D15*
X173243385Y-87959790D02*
X173550052Y-88879790D01*
X173856719Y-87959790D01*
X174645290Y-88879790D02*
X174119576Y-88879790D01*
X174382433Y-88879790D02*
X174382433Y-87959790D01*
X174294814Y-88091219D01*
X174207195Y-88178838D01*
X174119576Y-88222647D01*
X175039576Y-88792171D02*
X175083385Y-88835980D01*
X175039576Y-88879790D01*
X174995766Y-88835980D01*
X175039576Y-88792171D01*
X175039576Y-88879790D01*
X175433861Y-88047409D02*
X175477671Y-88003600D01*
X175565290Y-87959790D01*
X175784338Y-87959790D01*
X175871957Y-88003600D01*
X175915766Y-88047409D01*
X175959576Y-88135028D01*
X175959576Y-88222647D01*
X175915766Y-88354076D01*
X175390052Y-88879790D01*
X175959576Y-88879790D01*
X176353861Y-88792171D02*
X176397671Y-88835980D01*
X176353861Y-88879790D01*
X176310052Y-88835980D01*
X176353861Y-88792171D01*
X176353861Y-88879790D01*
X177186242Y-88266457D02*
X177186242Y-88879790D01*
X176967195Y-87915980D02*
X176748147Y-88573123D01*
X177317671Y-88573123D01*
D14*
X171966000Y-120334533D02*
X172027333Y-120395866D01*
X172088666Y-120579866D01*
X172088666Y-120702533D01*
X172027333Y-120886533D01*
X171904666Y-121009200D01*
X171782000Y-121070533D01*
X171536666Y-121131866D01*
X171352666Y-121131866D01*
X171107333Y-121070533D01*
X170984666Y-121009200D01*
X170862000Y-120886533D01*
X170800666Y-120702533D01*
X170800666Y-120579866D01*
X170862000Y-120395866D01*
X170923333Y-120334533D01*
X172088666Y-119169200D02*
X172088666Y-119782533D01*
X170800666Y-119782533D01*
X172088666Y-118739866D02*
X170800666Y-118739866D01*
X172088666Y-118126533D02*
X170800666Y-118126533D01*
X170800666Y-117635866D01*
X170862000Y-117513200D01*
X170923333Y-117451866D01*
X171046000Y-117390533D01*
X171230000Y-117390533D01*
X171352666Y-117451866D01*
X171414000Y-117513200D01*
X171475333Y-117635866D01*
X171475333Y-118126533D01*
X123851766Y-102407200D02*
X123851766Y-103020533D01*
X124465100Y-103081866D01*
X124403766Y-103020533D01*
X124342433Y-102897866D01*
X124342433Y-102591200D01*
X124403766Y-102468533D01*
X124465100Y-102407200D01*
X124587766Y-102345866D01*
X124894433Y-102345866D01*
X125017100Y-102407200D01*
X125078433Y-102468533D01*
X125139766Y-102591200D01*
X125139766Y-102897866D01*
X125078433Y-103020533D01*
X125017100Y-103081866D01*
X123851766Y-101977866D02*
X125139766Y-101548533D01*
X123851766Y-101119200D01*
X175465100Y-120724133D02*
X175465100Y-120294800D01*
X176139766Y-120110800D02*
X176139766Y-120724133D01*
X174851766Y-120724133D01*
X174851766Y-120110800D01*
X176139766Y-118822800D02*
X175526433Y-119252133D01*
X176139766Y-119558800D02*
X174851766Y-119558800D01*
X174851766Y-119068133D01*
X174913100Y-118945466D01*
X174974433Y-118884133D01*
X175097100Y-118822800D01*
X175281100Y-118822800D01*
X175403766Y-118884133D01*
X175465100Y-118945466D01*
X175526433Y-119068133D01*
X175526433Y-119558800D01*
X176139766Y-117534800D02*
X175526433Y-117964133D01*
X176139766Y-118270800D02*
X174851766Y-118270800D01*
X174851766Y-117780133D01*
X174913100Y-117657466D01*
X174974433Y-117596133D01*
X175097100Y-117534800D01*
X175281100Y-117534800D01*
X175403766Y-117596133D01*
X175465100Y-117657466D01*
X175526433Y-117780133D01*
X175526433Y-118270800D01*
D11*
X153789823Y-126715007D02*
X153845461Y-126548093D01*
X153845461Y-126269902D01*
X153789823Y-126158626D01*
X153734185Y-126102988D01*
X153622909Y-126047350D01*
X153511633Y-126047350D01*
X153400357Y-126102988D01*
X153344719Y-126158626D01*
X153289080Y-126269902D01*
X153233442Y-126492455D01*
X153177804Y-126603731D01*
X153122166Y-126659369D01*
X153010890Y-126715007D01*
X152899614Y-126715007D01*
X152788338Y-126659369D01*
X152732700Y-126603731D01*
X152677061Y-126492455D01*
X152677061Y-126214264D01*
X152732700Y-126047350D01*
X153734185Y-124878950D02*
X153789823Y-124934588D01*
X153845461Y-125101502D01*
X153845461Y-125212779D01*
X153789823Y-125379693D01*
X153678547Y-125490969D01*
X153567271Y-125546607D01*
X153344719Y-125602245D01*
X153177804Y-125602245D01*
X152955252Y-125546607D01*
X152843976Y-125490969D01*
X152732700Y-125379693D01*
X152677061Y-125212779D01*
X152677061Y-125101502D01*
X152732700Y-124934588D01*
X152788338Y-124878950D01*
X153845461Y-123821826D02*
X153845461Y-124378207D01*
X152677061Y-124378207D01*
D22*
X164623760Y-107296788D02*
X164666928Y-107339956D01*
X164710096Y-107469460D01*
X164710096Y-107555796D01*
X164666928Y-107685300D01*
X164580592Y-107771636D01*
X164494256Y-107814804D01*
X164321584Y-107857972D01*
X164192080Y-107857972D01*
X164019408Y-107814804D01*
X163933072Y-107771636D01*
X163846736Y-107685300D01*
X163803568Y-107555796D01*
X163803568Y-107469460D01*
X163846736Y-107339956D01*
X163889904Y-107296788D01*
X164710096Y-106433428D02*
X164710096Y-106951444D01*
X164710096Y-106692436D02*
X163803568Y-106692436D01*
X163933072Y-106778772D01*
X164019408Y-106865108D01*
X164062576Y-106951444D01*
X130060712Y-102292360D02*
X130017544Y-102335528D01*
X129888040Y-102378696D01*
X129801704Y-102378696D01*
X129672200Y-102335528D01*
X129585864Y-102249192D01*
X129542696Y-102162856D01*
X129499528Y-101990184D01*
X129499528Y-101860680D01*
X129542696Y-101688008D01*
X129585864Y-101601672D01*
X129672200Y-101515336D01*
X129801704Y-101472168D01*
X129888040Y-101472168D01*
X130017544Y-101515336D01*
X130060712Y-101558504D01*
X130924072Y-102378696D02*
X130406056Y-102378696D01*
X130665064Y-102378696D02*
X130665064Y-101472168D01*
X130578728Y-101601672D01*
X130492392Y-101688008D01*
X130406056Y-101731176D01*
X131787432Y-102378696D02*
X131269416Y-102378696D01*
X131528424Y-102378696D02*
X131528424Y-101472168D01*
X131442088Y-101601672D01*
X131355752Y-101688008D01*
X131269416Y-101731176D01*
X163094612Y-96810096D02*
X162792436Y-96378416D01*
X162576596Y-96810096D02*
X162576596Y-95903568D01*
X162921940Y-95903568D01*
X163008276Y-95946736D01*
X163051444Y-95989904D01*
X163094612Y-96076240D01*
X163094612Y-96205744D01*
X163051444Y-96292080D01*
X163008276Y-96335248D01*
X162921940Y-96378416D01*
X162576596Y-96378416D01*
X163914804Y-95903568D02*
X163483124Y-95903568D01*
X163439956Y-96335248D01*
X163483124Y-96292080D01*
X163569460Y-96248912D01*
X163785300Y-96248912D01*
X163871636Y-96292080D01*
X163914804Y-96335248D01*
X163957972Y-96421584D01*
X163957972Y-96637424D01*
X163914804Y-96723760D01*
X163871636Y-96766928D01*
X163785300Y-96810096D01*
X163569460Y-96810096D01*
X163483124Y-96766928D01*
X163439956Y-96723760D01*
X140923760Y-112196788D02*
X140966928Y-112239956D01*
X141010096Y-112369460D01*
X141010096Y-112455796D01*
X140966928Y-112585300D01*
X140880592Y-112671636D01*
X140794256Y-112714804D01*
X140621584Y-112757972D01*
X140492080Y-112757972D01*
X140319408Y-112714804D01*
X140233072Y-112671636D01*
X140146736Y-112585300D01*
X140103568Y-112455796D01*
X140103568Y-112369460D01*
X140146736Y-112239956D01*
X140189904Y-112196788D01*
X140405744Y-111419764D02*
X141010096Y-111419764D01*
X140060400Y-111635604D02*
X140707920Y-111851444D01*
X140707920Y-111290260D01*
X158690260Y-101003568D02*
X159294612Y-101910096D01*
X159294612Y-101003568D02*
X158690260Y-101910096D01*
X160114804Y-101910096D02*
X159596788Y-101910096D01*
X159855796Y-101910096D02*
X159855796Y-101003568D01*
X159769460Y-101133072D01*
X159683124Y-101219408D01*
X159596788Y-101262576D01*
X126760712Y-109710096D02*
X126458536Y-109278416D01*
X126242696Y-109710096D02*
X126242696Y-108803568D01*
X126588040Y-108803568D01*
X126674376Y-108846736D01*
X126717544Y-108889904D01*
X126760712Y-108976240D01*
X126760712Y-109105744D01*
X126717544Y-109192080D01*
X126674376Y-109235248D01*
X126588040Y-109278416D01*
X126242696Y-109278416D01*
X127624072Y-109710096D02*
X127106056Y-109710096D01*
X127365064Y-109710096D02*
X127365064Y-108803568D01*
X127278728Y-108933072D01*
X127192392Y-109019408D01*
X127106056Y-109062576D01*
X127969416Y-108889904D02*
X128012584Y-108846736D01*
X128098920Y-108803568D01*
X128314760Y-108803568D01*
X128401096Y-108846736D01*
X128444264Y-108889904D01*
X128487432Y-108976240D01*
X128487432Y-109062576D01*
X128444264Y-109192080D01*
X127926248Y-109710096D01*
X128487432Y-109710096D01*
D23*
X162614973Y-80925366D02*
X163247616Y-80925366D01*
X163374145Y-80967543D01*
X163458497Y-81051895D01*
X163500673Y-81178424D01*
X163500673Y-81262776D01*
X163500673Y-80503605D02*
X162614973Y-80503605D01*
X162614973Y-80166195D01*
X162657150Y-80081843D01*
X162699326Y-80039666D01*
X162783678Y-79997490D01*
X162910207Y-79997490D01*
X162994559Y-80039666D01*
X163036735Y-80081843D01*
X163078911Y-80166195D01*
X163078911Y-80503605D01*
X163500673Y-79153966D02*
X163500673Y-79660081D01*
X163500673Y-79407024D02*
X162614973Y-79407024D01*
X162741502Y-79491376D01*
X162825854Y-79575728D01*
X162868030Y-79660081D01*
X163500673Y-78310443D02*
X163500673Y-78816557D01*
X163500673Y-78563500D02*
X162614973Y-78563500D01*
X162741502Y-78647852D01*
X162825854Y-78732205D01*
X162868030Y-78816557D01*
D22*
X129260712Y-106643696D02*
X128958536Y-106212016D01*
X128742696Y-106643696D02*
X128742696Y-105737168D01*
X129088040Y-105737168D01*
X129174376Y-105780336D01*
X129217544Y-105823504D01*
X129260712Y-105909840D01*
X129260712Y-106039344D01*
X129217544Y-106125680D01*
X129174376Y-106168848D01*
X129088040Y-106212016D01*
X128742696Y-106212016D01*
X130124072Y-106643696D02*
X129606056Y-106643696D01*
X129865064Y-106643696D02*
X129865064Y-105737168D01*
X129778728Y-105866672D01*
X129692392Y-105953008D01*
X129606056Y-105996176D01*
X130987432Y-106643696D02*
X130469416Y-106643696D01*
X130728424Y-106643696D02*
X130728424Y-105737168D01*
X130642088Y-105866672D01*
X130555752Y-105953008D01*
X130469416Y-105996176D01*
X172039311Y-124010096D02*
X171737135Y-123578416D01*
X171521295Y-124010096D02*
X171521295Y-123103568D01*
X171866639Y-123103568D01*
X171952975Y-123146736D01*
X171996143Y-123189904D01*
X172039311Y-123276240D01*
X172039311Y-123405744D01*
X171996143Y-123492080D01*
X171952975Y-123535248D01*
X171866639Y-123578416D01*
X171521295Y-123578416D01*
X172470991Y-124010096D02*
X172643663Y-124010096D01*
X172729999Y-123966928D01*
X172773167Y-123923760D01*
X172859503Y-123794256D01*
X172902671Y-123621584D01*
X172902671Y-123276240D01*
X172859503Y-123189904D01*
X172816335Y-123146736D01*
X172729999Y-123103568D01*
X172557327Y-123103568D01*
X172470991Y-123146736D01*
X172427823Y-123189904D01*
X172384655Y-123276240D01*
X172384655Y-123492080D01*
X172427823Y-123578416D01*
X172470991Y-123621584D01*
X172557327Y-123664752D01*
X172729999Y-123664752D01*
X172816335Y-123621584D01*
X172859503Y-123578416D01*
X172902671Y-123492080D01*
X162603211Y-101723760D02*
X162560043Y-101766928D01*
X162430539Y-101810096D01*
X162344203Y-101810096D01*
X162214699Y-101766928D01*
X162128363Y-101680592D01*
X162085195Y-101594256D01*
X162042027Y-101421584D01*
X162042027Y-101292080D01*
X162085195Y-101119408D01*
X162128363Y-101033072D01*
X162214699Y-100946736D01*
X162344203Y-100903568D01*
X162430539Y-100903568D01*
X162560043Y-100946736D01*
X162603211Y-100989904D01*
X163423403Y-100903568D02*
X162991723Y-100903568D01*
X162948555Y-101335248D01*
X162991723Y-101292080D01*
X163078059Y-101248912D01*
X163293899Y-101248912D01*
X163380235Y-101292080D01*
X163423403Y-101335248D01*
X163466571Y-101421584D01*
X163466571Y-101637424D01*
X163423403Y-101723760D01*
X163380235Y-101766928D01*
X163293899Y-101810096D01*
X163078059Y-101810096D01*
X162991723Y-101766928D01*
X162948555Y-101723760D01*
D23*
X133514973Y-80761766D02*
X134147616Y-80761766D01*
X134274145Y-80803943D01*
X134358497Y-80888295D01*
X134400673Y-81014824D01*
X134400673Y-81099176D01*
X134400673Y-80340005D02*
X133514973Y-80340005D01*
X133514973Y-80002595D01*
X133557150Y-79918243D01*
X133599326Y-79876066D01*
X133683678Y-79833890D01*
X133810207Y-79833890D01*
X133894559Y-79876066D01*
X133936735Y-79918243D01*
X133978911Y-80002595D01*
X133978911Y-80340005D01*
X133514973Y-79538657D02*
X133514973Y-78948190D01*
X134400673Y-79327776D01*
D22*
X130803211Y-98710096D02*
X130501035Y-98278416D01*
X130285195Y-98710096D02*
X130285195Y-97803568D01*
X130630539Y-97803568D01*
X130716875Y-97846736D01*
X130760043Y-97889904D01*
X130803211Y-97976240D01*
X130803211Y-98105744D01*
X130760043Y-98192080D01*
X130716875Y-98235248D01*
X130630539Y-98278416D01*
X130285195Y-98278416D01*
X131321227Y-98192080D02*
X131234891Y-98148912D01*
X131191723Y-98105744D01*
X131148555Y-98019408D01*
X131148555Y-97976240D01*
X131191723Y-97889904D01*
X131234891Y-97846736D01*
X131321227Y-97803568D01*
X131493899Y-97803568D01*
X131580235Y-97846736D01*
X131623403Y-97889904D01*
X131666571Y-97976240D01*
X131666571Y-98019408D01*
X131623403Y-98105744D01*
X131580235Y-98148912D01*
X131493899Y-98192080D01*
X131321227Y-98192080D01*
X131234891Y-98235248D01*
X131191723Y-98278416D01*
X131148555Y-98364752D01*
X131148555Y-98537424D01*
X131191723Y-98623760D01*
X131234891Y-98666928D01*
X131321227Y-98710096D01*
X131493899Y-98710096D01*
X131580235Y-98666928D01*
X131623403Y-98623760D01*
X131666571Y-98537424D01*
X131666571Y-98364752D01*
X131623403Y-98278416D01*
X131580235Y-98235248D01*
X131493899Y-98192080D01*
D23*
X144687273Y-121991566D02*
X145319916Y-121991566D01*
X145446445Y-122033743D01*
X145530797Y-122118095D01*
X145572973Y-122244624D01*
X145572973Y-122328976D01*
X145572973Y-121569805D02*
X144687273Y-121569805D01*
X144687273Y-121232395D01*
X144729450Y-121148043D01*
X144771626Y-121105866D01*
X144855978Y-121063690D01*
X144982507Y-121063690D01*
X145066859Y-121105866D01*
X145109035Y-121148043D01*
X145151211Y-121232395D01*
X145151211Y-121569805D01*
X145572973Y-120220166D02*
X145572973Y-120726281D01*
X145572973Y-120473224D02*
X144687273Y-120473224D01*
X144813802Y-120557576D01*
X144898154Y-120641928D01*
X144940330Y-120726281D01*
X144771626Y-119882757D02*
X144729450Y-119840581D01*
X144687273Y-119756228D01*
X144687273Y-119545347D01*
X144729450Y-119460995D01*
X144771626Y-119418819D01*
X144855978Y-119376643D01*
X144940330Y-119376643D01*
X145066859Y-119418819D01*
X145572973Y-119924933D01*
X145572973Y-119376643D01*
D24*
X126738849Y-114349584D02*
X125768760Y-114349584D01*
X125768760Y-114118610D01*
X125814955Y-113980026D01*
X125907344Y-113887637D01*
X125999734Y-113841442D01*
X126184513Y-113795247D01*
X126323097Y-113795247D01*
X126507876Y-113841442D01*
X126600265Y-113887637D01*
X126692655Y-113980026D01*
X126738849Y-114118610D01*
X126738849Y-114349584D01*
X126738849Y-112871353D02*
X126738849Y-113425689D01*
X126738849Y-113148521D02*
X125768760Y-113148521D01*
X125907344Y-113240911D01*
X125999734Y-113333300D01*
X126045929Y-113425689D01*
D22*
X154594612Y-94023760D02*
X154551444Y-94066928D01*
X154421940Y-94110096D01*
X154335604Y-94110096D01*
X154206100Y-94066928D01*
X154119764Y-93980592D01*
X154076596Y-93894256D01*
X154033428Y-93721584D01*
X154033428Y-93592080D01*
X154076596Y-93419408D01*
X154119764Y-93333072D01*
X154206100Y-93246736D01*
X154335604Y-93203568D01*
X154421940Y-93203568D01*
X154551444Y-93246736D01*
X154594612Y-93289904D01*
X154896788Y-93203568D02*
X155501140Y-93203568D01*
X155112628Y-94110096D01*
X162370712Y-110152360D02*
X162327544Y-110195528D01*
X162198040Y-110238696D01*
X162111704Y-110238696D01*
X161982200Y-110195528D01*
X161895864Y-110109192D01*
X161852696Y-110022856D01*
X161809528Y-109850184D01*
X161809528Y-109720680D01*
X161852696Y-109548008D01*
X161895864Y-109461672D01*
X161982200Y-109375336D01*
X162111704Y-109332168D01*
X162198040Y-109332168D01*
X162327544Y-109375336D01*
X162370712Y-109418504D01*
X162888728Y-109720680D02*
X162802392Y-109677512D01*
X162759224Y-109634344D01*
X162716056Y-109548008D01*
X162716056Y-109504840D01*
X162759224Y-109418504D01*
X162802392Y-109375336D01*
X162888728Y-109332168D01*
X163061400Y-109332168D01*
X163147736Y-109375336D01*
X163190904Y-109418504D01*
X163234072Y-109504840D01*
X163234072Y-109548008D01*
X163190904Y-109634344D01*
X163147736Y-109677512D01*
X163061400Y-109720680D01*
X162888728Y-109720680D01*
X162802392Y-109763848D01*
X162759224Y-109807016D01*
X162716056Y-109893352D01*
X162716056Y-110066024D01*
X162759224Y-110152360D01*
X162802392Y-110195528D01*
X162888728Y-110238696D01*
X163061400Y-110238696D01*
X163147736Y-110195528D01*
X163190904Y-110152360D01*
X163234072Y-110066024D01*
X163234072Y-109893352D01*
X163190904Y-109807016D01*
X163147736Y-109763848D01*
X163061400Y-109720680D01*
X131260712Y-119160096D02*
X130958536Y-118728416D01*
X130742696Y-119160096D02*
X130742696Y-118253568D01*
X131088040Y-118253568D01*
X131174376Y-118296736D01*
X131217544Y-118339904D01*
X131260712Y-118426240D01*
X131260712Y-118555744D01*
X131217544Y-118642080D01*
X131174376Y-118685248D01*
X131088040Y-118728416D01*
X130742696Y-118728416D01*
X132124072Y-119160096D02*
X131606056Y-119160096D01*
X131865064Y-119160096D02*
X131865064Y-118253568D01*
X131778728Y-118383072D01*
X131692392Y-118469408D01*
X131606056Y-118512576D01*
X132944264Y-118253568D02*
X132512584Y-118253568D01*
X132469416Y-118685248D01*
X132512584Y-118642080D01*
X132598920Y-118598912D01*
X132814760Y-118598912D01*
X132901096Y-118642080D01*
X132944264Y-118685248D01*
X132987432Y-118771584D01*
X132987432Y-118987424D01*
X132944264Y-119073760D01*
X132901096Y-119116928D01*
X132814760Y-119160096D01*
X132598920Y-119160096D01*
X132512584Y-119116928D01*
X132469416Y-119073760D01*
X119956810Y-120864985D02*
X120797188Y-120864985D01*
X120965263Y-120921010D01*
X121077313Y-121033060D01*
X121133338Y-121201136D01*
X121133338Y-121313186D01*
X121133338Y-119688457D02*
X121133338Y-120360759D01*
X121133338Y-120024608D02*
X119956810Y-120024608D01*
X120124886Y-120136658D01*
X120236936Y-120248708D01*
X120292961Y-120360759D01*
D25*
X134141709Y-94545394D02*
X134265872Y-94586781D01*
X134472810Y-94586781D01*
X134555585Y-94545394D01*
X134596973Y-94504006D01*
X134638360Y-94421231D01*
X134638360Y-94338456D01*
X134596973Y-94255681D01*
X134555585Y-94214293D01*
X134472810Y-94172906D01*
X134307260Y-94131518D01*
X134224485Y-94090131D01*
X134183097Y-94048743D01*
X134141709Y-93965968D01*
X134141709Y-93883193D01*
X134183097Y-93800418D01*
X134224485Y-93759030D01*
X134307260Y-93717642D01*
X134514198Y-93717642D01*
X134638360Y-93759030D01*
X134928073Y-93717642D02*
X135135011Y-94586781D01*
X135300561Y-93965968D01*
X135466112Y-94586781D01*
X135673050Y-93717642D01*
X135962763Y-93800418D02*
X136004150Y-93759030D01*
X136086925Y-93717642D01*
X136293863Y-93717642D01*
X136376638Y-93759030D01*
X136418026Y-93800418D01*
X136459413Y-93883193D01*
X136459413Y-93965968D01*
X136418026Y-94090131D01*
X135921375Y-94586781D01*
X136459413Y-94586781D01*
D22*
X169294612Y-125523760D02*
X169251444Y-125566928D01*
X169121940Y-125610096D01*
X169035604Y-125610096D01*
X168906100Y-125566928D01*
X168819764Y-125480592D01*
X168776596Y-125394256D01*
X168733428Y-125221584D01*
X168733428Y-125092080D01*
X168776596Y-124919408D01*
X168819764Y-124833072D01*
X168906100Y-124746736D01*
X169035604Y-124703568D01*
X169121940Y-124703568D01*
X169251444Y-124746736D01*
X169294612Y-124789904D01*
X170157972Y-125610096D02*
X169639956Y-125610096D01*
X169898964Y-125610096D02*
X169898964Y-124703568D01*
X169812628Y-124833072D01*
X169726292Y-124919408D01*
X169639956Y-124962576D01*
X170978164Y-124703568D02*
X170546484Y-124703568D01*
X170503316Y-125135248D01*
X170546484Y-125092080D01*
X170632820Y-125048912D01*
X170848660Y-125048912D01*
X170934996Y-125092080D01*
X170978164Y-125135248D01*
X171021332Y-125221584D01*
X171021332Y-125437424D01*
X170978164Y-125523760D01*
X170934996Y-125566928D01*
X170848660Y-125610096D01*
X170632820Y-125610096D01*
X170546484Y-125566928D01*
X170503316Y-125523760D01*
X164523760Y-104596788D02*
X164566928Y-104639956D01*
X164610096Y-104769460D01*
X164610096Y-104855796D01*
X164566928Y-104985300D01*
X164480592Y-105071636D01*
X164394256Y-105114804D01*
X164221584Y-105157972D01*
X164092080Y-105157972D01*
X163919408Y-105114804D01*
X163833072Y-105071636D01*
X163746736Y-104985300D01*
X163703568Y-104855796D01*
X163703568Y-104769460D01*
X163746736Y-104639956D01*
X163789904Y-104596788D01*
X163789904Y-104251444D02*
X163746736Y-104208276D01*
X163703568Y-104121940D01*
X163703568Y-103906100D01*
X163746736Y-103819764D01*
X163789904Y-103776596D01*
X163876240Y-103733428D01*
X163962576Y-103733428D01*
X164092080Y-103776596D01*
X164610096Y-104294612D01*
X164610096Y-103733428D01*
D23*
X118885600Y-113414973D02*
X118885600Y-114047616D01*
X118843424Y-114174145D01*
X118759071Y-114258497D01*
X118632543Y-114300673D01*
X118548190Y-114300673D01*
X119307362Y-114300673D02*
X119307362Y-113414973D01*
X119644771Y-113414973D01*
X119729124Y-113457150D01*
X119771300Y-113499326D01*
X119813476Y-113583678D01*
X119813476Y-113710207D01*
X119771300Y-113794559D01*
X119729124Y-113836735D01*
X119644771Y-113878911D01*
X119307362Y-113878911D01*
X120614824Y-113414973D02*
X120193062Y-113414973D01*
X120150885Y-113836735D01*
X120193062Y-113794559D01*
X120277414Y-113752383D01*
X120488295Y-113752383D01*
X120572647Y-113794559D01*
X120614824Y-113836735D01*
X120657000Y-113921088D01*
X120657000Y-114131969D01*
X120614824Y-114216321D01*
X120572647Y-114258497D01*
X120488295Y-114300673D01*
X120277414Y-114300673D01*
X120193062Y-114258497D01*
X120150885Y-114216321D01*
D26*
X161308731Y-97713295D02*
X160873683Y-97713295D01*
X160873683Y-96799695D01*
X162091817Y-97713295D02*
X161569760Y-97713295D01*
X161830788Y-97713295D02*
X161830788Y-96799695D01*
X161743779Y-96930209D01*
X161656769Y-97017219D01*
X161569760Y-97060723D01*
D22*
X176103211Y-124010096D02*
X175801035Y-123578416D01*
X175585195Y-124010096D02*
X175585195Y-123103568D01*
X175930539Y-123103568D01*
X176016875Y-123146736D01*
X176060043Y-123189904D01*
X176103211Y-123276240D01*
X176103211Y-123405744D01*
X176060043Y-123492080D01*
X176016875Y-123535248D01*
X175930539Y-123578416D01*
X175585195Y-123578416D01*
X176405387Y-123103568D02*
X177009739Y-123103568D01*
X176621227Y-124010096D01*
X125376596Y-86410096D02*
X125376596Y-85503568D01*
X125592436Y-85503568D01*
X125721940Y-85546736D01*
X125808276Y-85633072D01*
X125851444Y-85719408D01*
X125894612Y-85892080D01*
X125894612Y-86021584D01*
X125851444Y-86194256D01*
X125808276Y-86280592D01*
X125721940Y-86366928D01*
X125592436Y-86410096D01*
X125376596Y-86410096D01*
X126239956Y-85589904D02*
X126283124Y-85546736D01*
X126369460Y-85503568D01*
X126585300Y-85503568D01*
X126671636Y-85546736D01*
X126714804Y-85589904D01*
X126757972Y-85676240D01*
X126757972Y-85762576D01*
X126714804Y-85892080D01*
X126196788Y-86410096D01*
X126757972Y-86410096D01*
D25*
X160441148Y-93351794D02*
X160565310Y-93393181D01*
X160772248Y-93393181D01*
X160855023Y-93351794D01*
X160896411Y-93310406D01*
X160937798Y-93227631D01*
X160937798Y-93144856D01*
X160896411Y-93062081D01*
X160855023Y-93020693D01*
X160772248Y-92979306D01*
X160606698Y-92937918D01*
X160523923Y-92896531D01*
X160482535Y-92855143D01*
X160441148Y-92772368D01*
X160441148Y-92689593D01*
X160482535Y-92606818D01*
X160523923Y-92565430D01*
X160606698Y-92524042D01*
X160813636Y-92524042D01*
X160937798Y-92565430D01*
X161227511Y-92524042D02*
X161434449Y-93393181D01*
X161600000Y-92772368D01*
X161765550Y-93393181D01*
X161972488Y-92524042D01*
X162758852Y-93393181D02*
X162262201Y-93393181D01*
X162510526Y-93393181D02*
X162510526Y-92524042D01*
X162427751Y-92648205D01*
X162344976Y-92730980D01*
X162262201Y-92772368D01*
D22*
X141294612Y-93723760D02*
X141251444Y-93766928D01*
X141121940Y-93810096D01*
X141035604Y-93810096D01*
X140906100Y-93766928D01*
X140819764Y-93680592D01*
X140776596Y-93594256D01*
X140733428Y-93421584D01*
X140733428Y-93292080D01*
X140776596Y-93119408D01*
X140819764Y-93033072D01*
X140906100Y-92946736D01*
X141035604Y-92903568D01*
X141121940Y-92903568D01*
X141251444Y-92946736D01*
X141294612Y-92989904D01*
X142157972Y-93810096D02*
X141639956Y-93810096D01*
X141898964Y-93810096D02*
X141898964Y-92903568D01*
X141812628Y-93033072D01*
X141726292Y-93119408D01*
X141639956Y-93162576D01*
X142934996Y-93205744D02*
X142934996Y-93810096D01*
X142719156Y-92860400D02*
X142503316Y-93507920D01*
X143064500Y-93507920D01*
X132194612Y-107010096D02*
X131892436Y-106578416D01*
X131676596Y-107010096D02*
X131676596Y-106103568D01*
X132021940Y-106103568D01*
X132108276Y-106146736D01*
X132151444Y-106189904D01*
X132194612Y-106276240D01*
X132194612Y-106405744D01*
X132151444Y-106492080D01*
X132108276Y-106535248D01*
X132021940Y-106578416D01*
X131676596Y-106578416D01*
X132496788Y-106103568D02*
X133057972Y-106103568D01*
X132755796Y-106448912D01*
X132885300Y-106448912D01*
X132971636Y-106492080D01*
X133014804Y-106535248D01*
X133057972Y-106621584D01*
X133057972Y-106837424D01*
X133014804Y-106923760D01*
X132971636Y-106966928D01*
X132885300Y-107010096D01*
X132626292Y-107010096D01*
X132539956Y-106966928D01*
X132496788Y-106923760D01*
D23*
X155885600Y-121014973D02*
X155885600Y-121647616D01*
X155843424Y-121774145D01*
X155759071Y-121858497D01*
X155632543Y-121900673D01*
X155548190Y-121900673D01*
X156307362Y-121900673D02*
X156307362Y-121014973D01*
X156644771Y-121014973D01*
X156729124Y-121057150D01*
X156771300Y-121099326D01*
X156813476Y-121183678D01*
X156813476Y-121310207D01*
X156771300Y-121394559D01*
X156729124Y-121436735D01*
X156644771Y-121478911D01*
X156307362Y-121478911D01*
X157657000Y-121900673D02*
X157150885Y-121900673D01*
X157403943Y-121900673D02*
X157403943Y-121014973D01*
X157319590Y-121141502D01*
X157235238Y-121225854D01*
X157150885Y-121268030D01*
D22*
X129260712Y-104343696D02*
X128958536Y-103912016D01*
X128742696Y-104343696D02*
X128742696Y-103437168D01*
X129088040Y-103437168D01*
X129174376Y-103480336D01*
X129217544Y-103523504D01*
X129260712Y-103609840D01*
X129260712Y-103739344D01*
X129217544Y-103825680D01*
X129174376Y-103868848D01*
X129088040Y-103912016D01*
X128742696Y-103912016D01*
X130124072Y-104343696D02*
X129606056Y-104343696D01*
X129865064Y-104343696D02*
X129865064Y-103437168D01*
X129778728Y-103566672D01*
X129692392Y-103653008D01*
X129606056Y-103696176D01*
X130685256Y-103437168D02*
X130771592Y-103437168D01*
X130857928Y-103480336D01*
X130901096Y-103523504D01*
X130944264Y-103609840D01*
X130987432Y-103782512D01*
X130987432Y-103998352D01*
X130944264Y-104171024D01*
X130901096Y-104257360D01*
X130857928Y-104300528D01*
X130771592Y-104343696D01*
X130685256Y-104343696D01*
X130598920Y-104300528D01*
X130555752Y-104257360D01*
X130512584Y-104171024D01*
X130469416Y-103998352D01*
X130469416Y-103782512D01*
X130512584Y-103609840D01*
X130555752Y-103523504D01*
X130598920Y-103480336D01*
X130685256Y-103437168D01*
X168003211Y-124010096D02*
X167701035Y-123578416D01*
X167485195Y-124010096D02*
X167485195Y-123103568D01*
X167830539Y-123103568D01*
X167916875Y-123146736D01*
X167960043Y-123189904D01*
X168003211Y-123276240D01*
X168003211Y-123405744D01*
X167960043Y-123492080D01*
X167916875Y-123535248D01*
X167830539Y-123578416D01*
X167485195Y-123578416D01*
X168780235Y-123103568D02*
X168607563Y-123103568D01*
X168521227Y-123146736D01*
X168478059Y-123189904D01*
X168391723Y-123319408D01*
X168348555Y-123492080D01*
X168348555Y-123837424D01*
X168391723Y-123923760D01*
X168434891Y-123966928D01*
X168521227Y-124010096D01*
X168693899Y-124010096D01*
X168780235Y-123966928D01*
X168823403Y-123923760D01*
X168866571Y-123837424D01*
X168866571Y-123621584D01*
X168823403Y-123535248D01*
X168780235Y-123492080D01*
X168693899Y-123448912D01*
X168521227Y-123448912D01*
X168434891Y-123492080D01*
X168391723Y-123535248D01*
X168348555Y-123621584D01*
X133880596Y-106691568D02*
X133880596Y-107425424D01*
X133923764Y-107511760D01*
X133966932Y-107554928D01*
X134053268Y-107598096D01*
X134225940Y-107598096D01*
X134312276Y-107554928D01*
X134355444Y-107511760D01*
X134398612Y-107425424D01*
X134398612Y-106691568D01*
X135218804Y-106993744D02*
X135218804Y-107598096D01*
X135002964Y-106648400D02*
X134787124Y-107295920D01*
X135348308Y-107295920D01*
D23*
X123087273Y-99321566D02*
X123719916Y-99321566D01*
X123846445Y-99363743D01*
X123930797Y-99448095D01*
X123972973Y-99574624D01*
X123972973Y-99658976D01*
X123972973Y-98899805D02*
X123087273Y-98899805D01*
X123087273Y-98562395D01*
X123129450Y-98478043D01*
X123171626Y-98435866D01*
X123255978Y-98393690D01*
X123382507Y-98393690D01*
X123466859Y-98435866D01*
X123509035Y-98478043D01*
X123551211Y-98562395D01*
X123551211Y-98899805D01*
X123087273Y-97634519D02*
X123087273Y-97803224D01*
X123129450Y-97887576D01*
X123171626Y-97929752D01*
X123298154Y-98014105D01*
X123466859Y-98056281D01*
X123804269Y-98056281D01*
X123888621Y-98014105D01*
X123930797Y-97971928D01*
X123972973Y-97887576D01*
X123972973Y-97718871D01*
X123930797Y-97634519D01*
X123888621Y-97592343D01*
X123804269Y-97550166D01*
X123593388Y-97550166D01*
X123509035Y-97592343D01*
X123466859Y-97634519D01*
X123424683Y-97718871D01*
X123424683Y-97887576D01*
X123466859Y-97971928D01*
X123509035Y-98014105D01*
X123593388Y-98056281D01*
D22*
X158294612Y-97623760D02*
X158251444Y-97666928D01*
X158121940Y-97710096D01*
X158035604Y-97710096D01*
X157906100Y-97666928D01*
X157819764Y-97580592D01*
X157776596Y-97494256D01*
X157733428Y-97321584D01*
X157733428Y-97192080D01*
X157776596Y-97019408D01*
X157819764Y-96933072D01*
X157906100Y-96846736D01*
X158035604Y-96803568D01*
X158121940Y-96803568D01*
X158251444Y-96846736D01*
X158294612Y-96889904D01*
X159157972Y-97710096D02*
X158639956Y-97710096D01*
X158898964Y-97710096D02*
X158898964Y-96803568D01*
X158812628Y-96933072D01*
X158726292Y-97019408D01*
X158639956Y-97062576D01*
X159460148Y-96803568D02*
X160021332Y-96803568D01*
X159719156Y-97148912D01*
X159848660Y-97148912D01*
X159934996Y-97192080D01*
X159978164Y-97235248D01*
X160021332Y-97321584D01*
X160021332Y-97537424D01*
X159978164Y-97623760D01*
X159934996Y-97666928D01*
X159848660Y-97710096D01*
X159589652Y-97710096D01*
X159503316Y-97666928D01*
X159460148Y-97623760D01*
D23*
X167841073Y-130485366D02*
X168473716Y-130485366D01*
X168600245Y-130527543D01*
X168684597Y-130611895D01*
X168726773Y-130738424D01*
X168726773Y-130822776D01*
X168726773Y-130063605D02*
X167841073Y-130063605D01*
X167841073Y-129726195D01*
X167883250Y-129641843D01*
X167925426Y-129599666D01*
X168009778Y-129557490D01*
X168136307Y-129557490D01*
X168220659Y-129599666D01*
X168262835Y-129641843D01*
X168305011Y-129726195D01*
X168305011Y-130063605D01*
X168136307Y-128798319D02*
X168726773Y-128798319D01*
X167798897Y-129009200D02*
X168431540Y-129220081D01*
X168431540Y-128671790D01*
D22*
X152410096Y-119605387D02*
X151978416Y-119907563D01*
X152410096Y-120123403D02*
X151503568Y-120123403D01*
X151503568Y-119778059D01*
X151546736Y-119691723D01*
X151589904Y-119648555D01*
X151676240Y-119605387D01*
X151805744Y-119605387D01*
X151892080Y-119648555D01*
X151935248Y-119691723D01*
X151978416Y-119778059D01*
X151978416Y-120123403D01*
X152410096Y-118742027D02*
X152410096Y-119260043D01*
X152410096Y-119001035D02*
X151503568Y-119001035D01*
X151633072Y-119087371D01*
X151719408Y-119173707D01*
X151762576Y-119260043D01*
D27*
X155967599Y-111591605D02*
X155967599Y-112343145D01*
X156011807Y-112431561D01*
X156056015Y-112475769D01*
X156144431Y-112519977D01*
X156321264Y-112519977D01*
X156409681Y-112475769D01*
X156453889Y-112431561D01*
X156498097Y-112343145D01*
X156498097Y-111591605D01*
X157426469Y-112519977D02*
X156895971Y-112519977D01*
X157161220Y-112519977D02*
X157161220Y-111591605D01*
X157072803Y-111724230D01*
X156984387Y-111812646D01*
X156895971Y-111856854D01*
D22*
X138303211Y-98923760D02*
X138260043Y-98966928D01*
X138130539Y-99010096D01*
X138044203Y-99010096D01*
X137914699Y-98966928D01*
X137828363Y-98880592D01*
X137785195Y-98794256D01*
X137742027Y-98621584D01*
X137742027Y-98492080D01*
X137785195Y-98319408D01*
X137828363Y-98233072D01*
X137914699Y-98146736D01*
X138044203Y-98103568D01*
X138130539Y-98103568D01*
X138260043Y-98146736D01*
X138303211Y-98189904D01*
X138734891Y-99010096D02*
X138907563Y-99010096D01*
X138993899Y-98966928D01*
X139037067Y-98923760D01*
X139123403Y-98794256D01*
X139166571Y-98621584D01*
X139166571Y-98276240D01*
X139123403Y-98189904D01*
X139080235Y-98146736D01*
X138993899Y-98103568D01*
X138821227Y-98103568D01*
X138734891Y-98146736D01*
X138691723Y-98189904D01*
X138648555Y-98276240D01*
X138648555Y-98492080D01*
X138691723Y-98578416D01*
X138734891Y-98621584D01*
X138821227Y-98664752D01*
X138993899Y-98664752D01*
X139080235Y-98621584D01*
X139123403Y-98578416D01*
X139166571Y-98492080D01*
D23*
X172485600Y-116414973D02*
X172485600Y-117047616D01*
X172443424Y-117174145D01*
X172359071Y-117258497D01*
X172232543Y-117300673D01*
X172148190Y-117300673D01*
X172907362Y-117300673D02*
X172907362Y-116414973D01*
X173244771Y-116414973D01*
X173329124Y-116457150D01*
X173371300Y-116499326D01*
X173413476Y-116583678D01*
X173413476Y-116710207D01*
X173371300Y-116794559D01*
X173329124Y-116836735D01*
X173244771Y-116878911D01*
X172907362Y-116878911D01*
X173750885Y-116499326D02*
X173793062Y-116457150D01*
X173877414Y-116414973D01*
X174088295Y-116414973D01*
X174172647Y-116457150D01*
X174214824Y-116499326D01*
X174257000Y-116583678D01*
X174257000Y-116668030D01*
X174214824Y-116794559D01*
X173708709Y-117300673D01*
X174257000Y-117300673D01*
D22*
X130844612Y-126373760D02*
X130801444Y-126416928D01*
X130671940Y-126460096D01*
X130585604Y-126460096D01*
X130456100Y-126416928D01*
X130369764Y-126330592D01*
X130326596Y-126244256D01*
X130283428Y-126071584D01*
X130283428Y-125942080D01*
X130326596Y-125769408D01*
X130369764Y-125683072D01*
X130456100Y-125596736D01*
X130585604Y-125553568D01*
X130671940Y-125553568D01*
X130801444Y-125596736D01*
X130844612Y-125639904D01*
X131707972Y-126460096D02*
X131189956Y-126460096D01*
X131448964Y-126460096D02*
X131448964Y-125553568D01*
X131362628Y-125683072D01*
X131276292Y-125769408D01*
X131189956Y-125812576D01*
X132010148Y-125553568D02*
X132614500Y-125553568D01*
X132225988Y-126460096D01*
D23*
X171238233Y-88514973D02*
X171238233Y-89147616D01*
X171196056Y-89274145D01*
X171111704Y-89358497D01*
X170985175Y-89400673D01*
X170900823Y-89400673D01*
X171659995Y-89400673D02*
X171659995Y-88514973D01*
X171997404Y-88514973D01*
X172081756Y-88557150D01*
X172123933Y-88599326D01*
X172166109Y-88683678D01*
X172166109Y-88810207D01*
X172123933Y-88894559D01*
X172081756Y-88936735D01*
X171997404Y-88978911D01*
X171659995Y-88978911D01*
X172461342Y-88514973D02*
X173009633Y-88514973D01*
X172714399Y-88852383D01*
X172840928Y-88852383D01*
X172925280Y-88894559D01*
X172967456Y-88936735D01*
X173009633Y-89021088D01*
X173009633Y-89231969D01*
X172967456Y-89316321D01*
X172925280Y-89358497D01*
X172840928Y-89400673D01*
X172587871Y-89400673D01*
X172503518Y-89358497D01*
X172461342Y-89316321D01*
D22*
X142994612Y-115823760D02*
X142951444Y-115866928D01*
X142821940Y-115910096D01*
X142735604Y-115910096D01*
X142606100Y-115866928D01*
X142519764Y-115780592D01*
X142476596Y-115694256D01*
X142433428Y-115521584D01*
X142433428Y-115392080D01*
X142476596Y-115219408D01*
X142519764Y-115133072D01*
X142606100Y-115046736D01*
X142735604Y-115003568D01*
X142821940Y-115003568D01*
X142951444Y-115046736D01*
X142994612Y-115089904D01*
X143857972Y-115910096D02*
X143339956Y-115910096D01*
X143598964Y-115910096D02*
X143598964Y-115003568D01*
X143512628Y-115133072D01*
X143426292Y-115219408D01*
X143339956Y-115262576D01*
X144203316Y-115089904D02*
X144246484Y-115046736D01*
X144332820Y-115003568D01*
X144548660Y-115003568D01*
X144634996Y-115046736D01*
X144678164Y-115089904D01*
X144721332Y-115176240D01*
X144721332Y-115262576D01*
X144678164Y-115392080D01*
X144160148Y-115910096D01*
X144721332Y-115910096D01*
D24*
X137950415Y-117468760D02*
X137950415Y-118254070D01*
X137996610Y-118346460D01*
X138042805Y-118392655D01*
X138135194Y-118438849D01*
X138319973Y-118438849D01*
X138412362Y-118392655D01*
X138458557Y-118346460D01*
X138504752Y-118254070D01*
X138504752Y-117468760D01*
X138874310Y-117468760D02*
X139474841Y-117468760D01*
X139151478Y-117838318D01*
X139290062Y-117838318D01*
X139382451Y-117884513D01*
X139428646Y-117930707D01*
X139474841Y-118023097D01*
X139474841Y-118254070D01*
X139428646Y-118346460D01*
X139382451Y-118392655D01*
X139290062Y-118438849D01*
X139012894Y-118438849D01*
X138920504Y-118392655D01*
X138874310Y-118346460D01*
D22*
X165739851Y-104223760D02*
X165696683Y-104266928D01*
X165567179Y-104310096D01*
X165480843Y-104310096D01*
X165351339Y-104266928D01*
X165265003Y-104180592D01*
X165221835Y-104094256D01*
X165178667Y-103921584D01*
X165178667Y-103792080D01*
X165221835Y-103619408D01*
X165265003Y-103533072D01*
X165351339Y-103446736D01*
X165480843Y-103403568D01*
X165567179Y-103403568D01*
X165696683Y-103446736D01*
X165739851Y-103489904D01*
X166603211Y-104310096D02*
X166085195Y-104310096D01*
X166344203Y-104310096D02*
X166344203Y-103403568D01*
X166257867Y-103533072D01*
X166171531Y-103619408D01*
X166085195Y-103662576D01*
X167164395Y-103403568D02*
X167250731Y-103403568D01*
X167337067Y-103446736D01*
X167380235Y-103489904D01*
X167423403Y-103576240D01*
X167466571Y-103748912D01*
X167466571Y-103964752D01*
X167423403Y-104137424D01*
X167380235Y-104223760D01*
X167337067Y-104266928D01*
X167250731Y-104310096D01*
X167164395Y-104310096D01*
X167078059Y-104266928D01*
X167034891Y-104223760D01*
X166991723Y-104137424D01*
X166948555Y-103964752D01*
X166948555Y-103748912D01*
X166991723Y-103576240D01*
X167034891Y-103489904D01*
X167078059Y-103446736D01*
X167164395Y-103403568D01*
X139776196Y-106843987D02*
X139344516Y-107146163D01*
X139776196Y-107362003D02*
X138869668Y-107362003D01*
X138869668Y-107016659D01*
X138912836Y-106930323D01*
X138956004Y-106887155D01*
X139042340Y-106843987D01*
X139171844Y-106843987D01*
X139258180Y-106887155D01*
X139301348Y-106930323D01*
X139344516Y-107016659D01*
X139344516Y-107362003D01*
X139776196Y-105980627D02*
X139776196Y-106498643D01*
X139776196Y-106239635D02*
X138869668Y-106239635D01*
X138999172Y-106325971D01*
X139085508Y-106412307D01*
X139128676Y-106498643D01*
X139171844Y-105203603D02*
X139776196Y-105203603D01*
X138826500Y-105419443D02*
X139474020Y-105635283D01*
X139474020Y-105074099D01*
X130773760Y-124255387D02*
X130816928Y-124298555D01*
X130860096Y-124428059D01*
X130860096Y-124514395D01*
X130816928Y-124643899D01*
X130730592Y-124730235D01*
X130644256Y-124773403D01*
X130471584Y-124816571D01*
X130342080Y-124816571D01*
X130169408Y-124773403D01*
X130083072Y-124730235D01*
X129996736Y-124643899D01*
X129953568Y-124514395D01*
X129953568Y-124428059D01*
X129996736Y-124298555D01*
X130039904Y-124255387D01*
X130860096Y-123392027D02*
X130860096Y-123910043D01*
X130860096Y-123651035D02*
X129953568Y-123651035D01*
X130083072Y-123737371D01*
X130169408Y-123823707D01*
X130212576Y-123910043D01*
X129953568Y-122615003D02*
X129953568Y-122787675D01*
X129996736Y-122874011D01*
X130039904Y-122917179D01*
X130169408Y-123003515D01*
X130342080Y-123046683D01*
X130687424Y-123046683D01*
X130773760Y-123003515D01*
X130816928Y-122960347D01*
X130860096Y-122874011D01*
X130860096Y-122701339D01*
X130816928Y-122615003D01*
X130773760Y-122571835D01*
X130687424Y-122528667D01*
X130471584Y-122528667D01*
X130385248Y-122571835D01*
X130342080Y-122615003D01*
X130298912Y-122701339D01*
X130298912Y-122874011D01*
X130342080Y-122960347D01*
X130385248Y-123003515D01*
X130471584Y-123046683D01*
X161639311Y-122283696D02*
X161337135Y-121852016D01*
X161121295Y-122283696D02*
X161121295Y-121377168D01*
X161466639Y-121377168D01*
X161552975Y-121420336D01*
X161596143Y-121463504D01*
X161639311Y-121549840D01*
X161639311Y-121679344D01*
X161596143Y-121765680D01*
X161552975Y-121808848D01*
X161466639Y-121852016D01*
X161121295Y-121852016D01*
X162416335Y-121679344D02*
X162416335Y-122283696D01*
X162200495Y-121334000D02*
X161984655Y-121981520D01*
X162545839Y-121981520D01*
X128894612Y-120760096D02*
X128592436Y-120328416D01*
X128376596Y-120760096D02*
X128376596Y-119853568D01*
X128721940Y-119853568D01*
X128808276Y-119896736D01*
X128851444Y-119939904D01*
X128894612Y-120026240D01*
X128894612Y-120155744D01*
X128851444Y-120242080D01*
X128808276Y-120285248D01*
X128721940Y-120328416D01*
X128376596Y-120328416D01*
X129757972Y-120760096D02*
X129239956Y-120760096D01*
X129498964Y-120760096D02*
X129498964Y-119853568D01*
X129412628Y-119983072D01*
X129326292Y-120069408D01*
X129239956Y-120112576D01*
X130534996Y-119853568D02*
X130362324Y-119853568D01*
X130275988Y-119896736D01*
X130232820Y-119939904D01*
X130146484Y-120069408D01*
X130103316Y-120242080D01*
X130103316Y-120587424D01*
X130146484Y-120673760D01*
X130189652Y-120716928D01*
X130275988Y-120760096D01*
X130448660Y-120760096D01*
X130534996Y-120716928D01*
X130578164Y-120673760D01*
X130621332Y-120587424D01*
X130621332Y-120371584D01*
X130578164Y-120285248D01*
X130534996Y-120242080D01*
X130448660Y-120198912D01*
X130275988Y-120198912D01*
X130189652Y-120242080D01*
X130146484Y-120285248D01*
X130103316Y-120371584D01*
X136410096Y-127105387D02*
X135978416Y-127407563D01*
X136410096Y-127623403D02*
X135503568Y-127623403D01*
X135503568Y-127278059D01*
X135546736Y-127191723D01*
X135589904Y-127148555D01*
X135676240Y-127105387D01*
X135805744Y-127105387D01*
X135892080Y-127148555D01*
X135935248Y-127191723D01*
X135978416Y-127278059D01*
X135978416Y-127623403D01*
X136410096Y-126242027D02*
X136410096Y-126760043D01*
X136410096Y-126501035D02*
X135503568Y-126501035D01*
X135633072Y-126587371D01*
X135719408Y-126673707D01*
X135762576Y-126760043D01*
X135503568Y-125939851D02*
X135503568Y-125378667D01*
X135848912Y-125680843D01*
X135848912Y-125551339D01*
X135892080Y-125465003D01*
X135935248Y-125421835D01*
X136021584Y-125378667D01*
X136237424Y-125378667D01*
X136323760Y-125421835D01*
X136366928Y-125465003D01*
X136410096Y-125551339D01*
X136410096Y-125810347D01*
X136366928Y-125896683D01*
X136323760Y-125939851D01*
D28*
X131318411Y-127492685D02*
X131318411Y-128242628D01*
X131362525Y-128330857D01*
X131406640Y-128374971D01*
X131494868Y-128419085D01*
X131671325Y-128419085D01*
X131759554Y-128374971D01*
X131803668Y-128330857D01*
X131847782Y-128242628D01*
X131847782Y-127492685D01*
X132244811Y-127580914D02*
X132288925Y-127536800D01*
X132377154Y-127492685D01*
X132597725Y-127492685D01*
X132685954Y-127536800D01*
X132730068Y-127580914D01*
X132774182Y-127669142D01*
X132774182Y-127757371D01*
X132730068Y-127889714D01*
X132200697Y-128419085D01*
X132774182Y-128419085D01*
D22*
X132103211Y-112010096D02*
X131801035Y-111578416D01*
X131585195Y-112010096D02*
X131585195Y-111103568D01*
X131930539Y-111103568D01*
X132016875Y-111146736D01*
X132060043Y-111189904D01*
X132103211Y-111276240D01*
X132103211Y-111405744D01*
X132060043Y-111492080D01*
X132016875Y-111535248D01*
X131930539Y-111578416D01*
X131585195Y-111578416D01*
X132448555Y-111189904D02*
X132491723Y-111146736D01*
X132578059Y-111103568D01*
X132793899Y-111103568D01*
X132880235Y-111146736D01*
X132923403Y-111189904D01*
X132966571Y-111276240D01*
X132966571Y-111362576D01*
X132923403Y-111492080D01*
X132405387Y-112010096D01*
X132966571Y-112010096D01*
X159825712Y-115457360D02*
X159782544Y-115500528D01*
X159653040Y-115543696D01*
X159566704Y-115543696D01*
X159437200Y-115500528D01*
X159350864Y-115414192D01*
X159307696Y-115327856D01*
X159264528Y-115155184D01*
X159264528Y-115025680D01*
X159307696Y-114853008D01*
X159350864Y-114766672D01*
X159437200Y-114680336D01*
X159566704Y-114637168D01*
X159653040Y-114637168D01*
X159782544Y-114680336D01*
X159825712Y-114723504D01*
X160127888Y-114637168D02*
X160689072Y-114637168D01*
X160386896Y-114982512D01*
X160516400Y-114982512D01*
X160602736Y-115025680D01*
X160645904Y-115068848D01*
X160689072Y-115155184D01*
X160689072Y-115371024D01*
X160645904Y-115457360D01*
X160602736Y-115500528D01*
X160516400Y-115543696D01*
X160257392Y-115543696D01*
X160171056Y-115500528D01*
X160127888Y-115457360D01*
X147835604Y-83003568D02*
X147835604Y-83651088D01*
X147792436Y-83780592D01*
X147706100Y-83866928D01*
X147576596Y-83910096D01*
X147490260Y-83910096D01*
X148267284Y-83910096D02*
X148267284Y-83003568D01*
X148612628Y-83003568D01*
X148698964Y-83046736D01*
X148742132Y-83089904D01*
X148785300Y-83176240D01*
X148785300Y-83305744D01*
X148742132Y-83392080D01*
X148698964Y-83435248D01*
X148612628Y-83478416D01*
X148267284Y-83478416D01*
X149303316Y-83392080D02*
X149216980Y-83348912D01*
X149173812Y-83305744D01*
X149130644Y-83219408D01*
X149130644Y-83176240D01*
X149173812Y-83089904D01*
X149216980Y-83046736D01*
X149303316Y-83003568D01*
X149475988Y-83003568D01*
X149562324Y-83046736D01*
X149605492Y-83089904D01*
X149648660Y-83176240D01*
X149648660Y-83219408D01*
X149605492Y-83305744D01*
X149562324Y-83348912D01*
X149475988Y-83392080D01*
X149303316Y-83392080D01*
X149216980Y-83435248D01*
X149173812Y-83478416D01*
X149130644Y-83564752D01*
X149130644Y-83737424D01*
X149173812Y-83823760D01*
X149216980Y-83866928D01*
X149303316Y-83910096D01*
X149475988Y-83910096D01*
X149562324Y-83866928D01*
X149605492Y-83823760D01*
X149648660Y-83737424D01*
X149648660Y-83564752D01*
X149605492Y-83478416D01*
X149562324Y-83435248D01*
X149475988Y-83392080D01*
X134203211Y-98923760D02*
X134160043Y-98966928D01*
X134030539Y-99010096D01*
X133944203Y-99010096D01*
X133814699Y-98966928D01*
X133728363Y-98880592D01*
X133685195Y-98794256D01*
X133642027Y-98621584D01*
X133642027Y-98492080D01*
X133685195Y-98319408D01*
X133728363Y-98233072D01*
X133814699Y-98146736D01*
X133944203Y-98103568D01*
X134030539Y-98103568D01*
X134160043Y-98146736D01*
X134203211Y-98189904D01*
X134980235Y-98103568D02*
X134807563Y-98103568D01*
X134721227Y-98146736D01*
X134678059Y-98189904D01*
X134591723Y-98319408D01*
X134548555Y-98492080D01*
X134548555Y-98837424D01*
X134591723Y-98923760D01*
X134634891Y-98966928D01*
X134721227Y-99010096D01*
X134893899Y-99010096D01*
X134980235Y-98966928D01*
X135023403Y-98923760D01*
X135066571Y-98837424D01*
X135066571Y-98621584D01*
X135023403Y-98535248D01*
X134980235Y-98492080D01*
X134893899Y-98448912D01*
X134721227Y-98448912D01*
X134634891Y-98492080D01*
X134591723Y-98535248D01*
X134548555Y-98621584D01*
D29*
X158501100Y-106603600D02*
X158501100Y-103803600D01*
X161018300Y-107703600D02*
X158424700Y-107703600D01*
X161101100Y-103803600D02*
X161101100Y-106503600D01*
X158517300Y-102703600D02*
X161018300Y-102703600D01*
X160501100Y-107203600D02*
X159101100Y-107203600D01*
X159201100Y-103203600D02*
X160601100Y-103203600D01*
X161401100Y-102986400D02*
X161401100Y-107420800D01*
X158201100Y-107480000D02*
X158201100Y-103019800D01*
X159201101Y-103203602D02*
G75*
G03*
X158501100Y-103803600I-49831J-650198D01*
G01*
X158517300Y-102703600D02*
G75*
G03*
X158201100Y-103019800I0J-316200D01*
G01*
X161018300Y-107703600D02*
G75*
G03*
X161401100Y-107420800I49999J332801D01*
G01*
X158201100Y-107480000D02*
G75*
G03*
X158424700Y-107703600I223600J0D01*
G01*
X160501100Y-107203600D02*
G75*
G03*
X161101100Y-106503600I-50000J650000D01*
G01*
X158501100Y-106603600D02*
G75*
G03*
X159101100Y-107203600I600000J0D01*
G01*
X161401100Y-102986400D02*
G75*
G03*
X161018300Y-102703600I-332800J-50000D01*
G01*
X161101100Y-103803600D02*
G75*
G03*
X160601100Y-103203600I-550000J50000D01*
G01*
D10*
X166916100Y-77463600D02*
X168186100Y-77463600D01*
X168186100Y-77463600D02*
X168821100Y-78098600D01*
X163741100Y-78098600D02*
X164376100Y-77463600D01*
X168186100Y-82543600D02*
X168821100Y-81908600D01*
X164376100Y-77463600D02*
X165646100Y-77463600D01*
X165646100Y-77463600D02*
X166281100Y-78098600D01*
X166281100Y-81908600D02*
X166916100Y-82543600D01*
X166281100Y-78098600D02*
X166281100Y-81908600D01*
X166281100Y-78098600D02*
X166916100Y-77463600D01*
X168821100Y-78098600D02*
X168821100Y-81908600D01*
X164376100Y-82543600D02*
X165646100Y-82543600D01*
X165646100Y-82543600D02*
X166281100Y-81908600D01*
X163741100Y-81908600D02*
X163741100Y-78098600D01*
X166916100Y-82543600D02*
X168186100Y-82543600D01*
X163741100Y-81908600D02*
X164376100Y-82543600D01*
X129866100Y-93033600D02*
X131136100Y-93033600D01*
X131771100Y-93668600D02*
X131771100Y-94938600D01*
X131771100Y-94938600D02*
X131136100Y-95573600D01*
X129866100Y-93033600D02*
X129231100Y-93668600D01*
X131136100Y-93033600D02*
X131771100Y-93668600D01*
X131136100Y-95573600D02*
X129866100Y-95573600D01*
X129231100Y-94938600D02*
X129866100Y-95573600D01*
X129231100Y-93668600D02*
X129231100Y-94938600D01*
X130096900Y-82543600D02*
X130731900Y-81908600D01*
X130731900Y-78098600D02*
X131366900Y-77463600D01*
X128191900Y-78098600D02*
X128826900Y-77463600D01*
X131366900Y-82543600D02*
X132636900Y-82543600D01*
X128191900Y-81908600D02*
X128191900Y-78098600D01*
X128826900Y-77463600D02*
X130096900Y-77463600D01*
X128826900Y-82543600D02*
X130096900Y-82543600D01*
X131366900Y-77463600D02*
X132636900Y-77463600D01*
X132636900Y-82543600D02*
X133271900Y-81908600D01*
X132636900Y-77463600D02*
X133271900Y-78098600D01*
X130096900Y-77463600D02*
X130731900Y-78098600D01*
X130731900Y-81908600D02*
X131366900Y-82543600D01*
X130731900Y-78098600D02*
X130731900Y-81908600D01*
X128191900Y-81908600D02*
X128826900Y-82543600D01*
X133271900Y-78098600D02*
X133271900Y-81908600D01*
G36*
X136214646Y-103216425D02*
G01*
X136210062Y-103194319D01*
X136219924Y-103128502D01*
X136252307Y-103069926D01*
X136311404Y-103012807D01*
X136373434Y-102968957D01*
X136518436Y-102858893D01*
X136631088Y-102736921D01*
X136705228Y-102616856D01*
X136729655Y-102565217D01*
X136745754Y-102522313D01*
X136755254Y-102478424D01*
X136759884Y-102423833D01*
X136761370Y-102348819D01*
X136761475Y-102300557D01*
X136760918Y-102211717D01*
X136758087Y-102148149D01*
X136751244Y-102100121D01*
X136738651Y-102057897D01*
X136718569Y-102011744D01*
X136704848Y-101983484D01*
X136622902Y-101854098D01*
X136514912Y-101740334D01*
X136389038Y-101650352D01*
X136352083Y-101630720D01*
X136300109Y-101606116D01*
X136257050Y-101589906D01*
X136213153Y-101580345D01*
X136158665Y-101575690D01*
X136083835Y-101574198D01*
X136035379Y-101574092D01*
X135946530Y-101574662D01*
X135882917Y-101577530D01*
X135834769Y-101584433D01*
X135792314Y-101597108D01*
X135745783Y-101617293D01*
X135718615Y-101630411D01*
X135589584Y-101711767D01*
X135475939Y-101819263D01*
X135385797Y-101944791D01*
X135365174Y-101983484D01*
X135340570Y-102035458D01*
X135324360Y-102078518D01*
X135314799Y-102122415D01*
X135310144Y-102176902D01*
X135308652Y-102251733D01*
X135308546Y-102300189D01*
X135309308Y-102390938D01*
X135312589Y-102456274D01*
X135319886Y-102505780D01*
X135332694Y-102549040D01*
X135352508Y-102595634D01*
X135355738Y-102602567D01*
X135416598Y-102703699D01*
X135502362Y-102806434D01*
X135604597Y-102901676D01*
X135693676Y-102967074D01*
X135779028Y-103031352D01*
X135832639Y-103094645D01*
X135857429Y-103160915D01*
X135859959Y-103192735D01*
X135853379Y-103219436D01*
X135834722Y-103274366D01*
X135805616Y-103353534D01*
X135767687Y-103452950D01*
X135722561Y-103568625D01*
X135671866Y-103696570D01*
X135617228Y-103832794D01*
X135560274Y-103973308D01*
X135502630Y-104114123D01*
X135445923Y-104251249D01*
X135391780Y-104380696D01*
X135341827Y-104498475D01*
X135297691Y-104600596D01*
X135260999Y-104683070D01*
X135233377Y-104741907D01*
X135216452Y-104773117D01*
X135214594Y-104775578D01*
X135166151Y-104813343D01*
X135100765Y-104842849D01*
X135036500Y-104856173D01*
X135030514Y-104856311D01*
X134995698Y-104848315D01*
X134940609Y-104827036D01*
X134875385Y-104796542D01*
X134854149Y-104785566D01*
X134720622Y-104714820D01*
X134410656Y-104928695D01*
X134306600Y-105000109D01*
X134226354Y-105053887D01*
X134165165Y-105092642D01*
X134118285Y-105118989D01*
X134080963Y-105135543D01*
X134048448Y-105144918D01*
X134015991Y-105149728D01*
X134007657Y-105150496D01*
X133914624Y-105158422D01*
X133557046Y-104802391D01*
X133444002Y-104689228D01*
X133353970Y-104597145D01*
X133284702Y-104522981D01*
X133233951Y-104463572D01*
X133199469Y-104415759D01*
X133179008Y-104376377D01*
X133170321Y-104342267D01*
X133171160Y-104310264D01*
X133179278Y-104277208D01*
X133180672Y-104272907D01*
X133196178Y-104241392D01*
X133228581Y-104186443D01*
X133274603Y-104113239D01*
X133330964Y-104026959D01*
X133394387Y-103932779D01*
X133415517Y-103901995D01*
X133631139Y-103589333D01*
X133536309Y-103351940D01*
X133501194Y-103266159D01*
X133469019Y-103191459D01*
X133442645Y-103134200D01*
X133424933Y-103100742D01*
X133420982Y-103095510D01*
X133398222Y-103086750D01*
X133346423Y-103073213D01*
X133271041Y-103056120D01*
X133177529Y-103036691D01*
X133071343Y-103016145D01*
X133041627Y-103010642D01*
X132930163Y-102989583D01*
X132827253Y-102968997D01*
X132739057Y-102950208D01*
X132671738Y-102934537D01*
X132631459Y-102923309D01*
X132627042Y-102921651D01*
X132594500Y-102906411D01*
X132568466Y-102888100D01*
X132548215Y-102862900D01*
X132533028Y-102826997D01*
X132522181Y-102776573D01*
X132514952Y-102707814D01*
X132510620Y-102616902D01*
X132508462Y-102500021D01*
X132507757Y-102353356D01*
X132507723Y-102298388D01*
X133058589Y-102298388D01*
X133060296Y-102361357D01*
X133065309Y-102417306D01*
X133073430Y-102455959D01*
X133081013Y-102467283D01*
X133105022Y-102473142D01*
X133157052Y-102484052D01*
X133230690Y-102498727D01*
X133319526Y-102515877D01*
X133376705Y-102526679D01*
X133508615Y-102553102D01*
X133611231Y-102578132D01*
X133690100Y-102603847D01*
X133750765Y-102632323D01*
X133798771Y-102665639D01*
X133831810Y-102697196D01*
X133854657Y-102723785D01*
X133876373Y-102754570D01*
X133899014Y-102793893D01*
X133924638Y-102846096D01*
X133955301Y-102915521D01*
X133993061Y-103006511D01*
X134039973Y-103123408D01*
X134071869Y-103203986D01*
X134125797Y-103343300D01*
X134165328Y-103456962D01*
X134189789Y-103551528D01*
X134198506Y-103633558D01*
X134190803Y-103709608D01*
X134166006Y-103786235D01*
X134123441Y-103869997D01*
X134062434Y-103967451D01*
X133982310Y-104085154D01*
X133981053Y-104086972D01*
X133830323Y-104304898D01*
X134044587Y-104521114D01*
X134285814Y-104357129D01*
X134372433Y-104300101D01*
X134455022Y-104249081D01*
X134526786Y-104208023D01*
X134580933Y-104180882D01*
X134602365Y-104172862D01*
X134712467Y-104161018D01*
X134832705Y-104181369D01*
X134836681Y-104182550D01*
X134848408Y-104183332D01*
X134860761Y-104176161D01*
X134875488Y-104157590D01*
X134894338Y-104124172D01*
X134919059Y-104072459D01*
X134951400Y-103999003D01*
X134993109Y-103900357D01*
X135045936Y-103773074D01*
X135052787Y-103756483D01*
X135233109Y-103319652D01*
X135152042Y-103244928D01*
X135028128Y-103111487D01*
X134919897Y-102956957D01*
X134833049Y-102790938D01*
X134773282Y-102623029D01*
X134766275Y-102595197D01*
X134746538Y-102468967D01*
X134740249Y-102325010D01*
X134747202Y-102177840D01*
X134767193Y-102041969D01*
X134774536Y-102010145D01*
X134799783Y-101926872D01*
X134835215Y-101831028D01*
X134874046Y-101740666D01*
X134882340Y-101723378D01*
X134921687Y-101649041D01*
X134963339Y-101584922D01*
X135014594Y-101521382D01*
X135082753Y-101448783D01*
X135114386Y-101417033D01*
X135223335Y-101314934D01*
X135323920Y-101235742D01*
X135426506Y-101172786D01*
X135541462Y-101119394D01*
X135627819Y-101086625D01*
X135690708Y-101064992D01*
X135742869Y-101049978D01*
X135793272Y-101040382D01*
X135850891Y-101035000D01*
X135924697Y-101032630D01*
X136023661Y-101032072D01*
X136035011Y-101032070D01*
X136136913Y-101032516D01*
X136212780Y-101034655D01*
X136271584Y-101039690D01*
X136322297Y-101048822D01*
X136373891Y-101063254D01*
X136435337Y-101084187D01*
X136442202Y-101086625D01*
X136606356Y-101154566D01*
X136746854Y-101234851D01*
X136874535Y-101333828D01*
X136893668Y-101351061D01*
X136988407Y-101427312D01*
X137086960Y-101482427D01*
X137201417Y-101522408D01*
X137273909Y-101539777D01*
X137374100Y-101554346D01*
X137498999Y-101562195D01*
X137638959Y-101563337D01*
X137784331Y-101557784D01*
X137925467Y-101545550D01*
X137978084Y-101538857D01*
X138086408Y-101522320D01*
X138199699Y-101502750D01*
X138312724Y-101481298D01*
X138420250Y-101459117D01*
X138517045Y-101437361D01*
X138597873Y-101417181D01*
X138657503Y-101399731D01*
X138690700Y-101386164D01*
X138695796Y-101380767D01*
X138689106Y-101353576D01*
X138671124Y-101302224D01*
X138644984Y-101234448D01*
X138613820Y-101157985D01*
X138580766Y-101080575D01*
X138548955Y-101009956D01*
X138528130Y-100966760D01*
X138474076Y-100868749D01*
X138404000Y-100755491D01*
X138325150Y-100637895D01*
X138244776Y-100526872D01*
X138187263Y-100453761D01*
X137976441Y-100225212D01*
X137742334Y-100021778D01*
X137487607Y-99845070D01*
X137214925Y-99696704D01*
X136926954Y-99578290D01*
X136626358Y-99491443D01*
X136580447Y-99481260D01*
X136509296Y-99468723D01*
X136422151Y-99457399D01*
X136324968Y-99447602D01*
X136223703Y-99439648D01*
X136124314Y-99433851D01*
X136032755Y-99430527D01*
X135954985Y-99429990D01*
X135896959Y-99432555D01*
X135864634Y-99438538D01*
X135859959Y-99443166D01*
X135856209Y-99482043D01*
X135846016Y-99545410D01*
X135830968Y-99625911D01*
X135812653Y-99716188D01*
X135792658Y-99808884D01*
X135772570Y-99896642D01*
X135753977Y-99972106D01*
X135738466Y-100027919D01*
X135727625Y-100056723D01*
X135727540Y-100056857D01*
X135670557Y-100132369D01*
X135605977Y-100195309D01*
X135556649Y-100228903D01*
X135496039Y-100258024D01*
X135414847Y-100293455D01*
X135319619Y-100332711D01*
X135216900Y-100373302D01*
X135113237Y-100412742D01*
X135015176Y-100448543D01*
X134929261Y-100478217D01*
X134862040Y-100499278D01*
X134820057Y-100509238D01*
X134818401Y-100509437D01*
X134759324Y-100512523D01*
X134702834Y-100506877D01*
X134643621Y-100490261D01*
X134576377Y-100460440D01*
X134495792Y-100415177D01*
X134396559Y-100352235D01*
X134313664Y-100296803D01*
X134045287Y-100114947D01*
X133832377Y-100327857D01*
X134011950Y-100592423D01*
X134092616Y-100714768D01*
X134152706Y-100815025D01*
X134194171Y-100897908D01*
X134218959Y-100968130D01*
X134229019Y-101030405D01*
X134226302Y-101089447D01*
X134223784Y-101104634D01*
X134210907Y-101149889D01*
X134185676Y-101219907D01*
X134150886Y-101308289D01*
X134109331Y-101408636D01*
X134063806Y-101514550D01*
X134017108Y-101619632D01*
X133972030Y-101717484D01*
X133931369Y-101801708D01*
X133897919Y-101865905D01*
X133875039Y-101902948D01*
X133834928Y-101948074D01*
X133787065Y-101985422D01*
X133726286Y-102017102D01*
X133647427Y-102045224D01*
X133545328Y-102071897D01*
X133414824Y-102099233D01*
X133377247Y-102106400D01*
X133280893Y-102124912D01*
X133196411Y-102141899D01*
X133129897Y-102156077D01*
X133087443Y-102166159D01*
X133075283Y-102170105D01*
X133065884Y-102192487D01*
X133060385Y-102238673D01*
X133058589Y-102298388D01*
X132507723Y-102298388D01*
X132507719Y-102291023D01*
X132507907Y-102138443D01*
X132508928Y-102016789D01*
X132511465Y-101921976D01*
X132516203Y-101849922D01*
X132523824Y-101796541D01*
X132535014Y-101757749D01*
X132550455Y-101729463D01*
X132570833Y-101707599D01*
X132596830Y-101688072D01*
X132610172Y-101679203D01*
X132638642Y-101668446D01*
X132696135Y-101652915D01*
X132777186Y-101633861D01*
X132876329Y-101612536D01*
X132988099Y-101590190D01*
X133050890Y-101578304D01*
X133450912Y-101504071D01*
X133552078Y-101270210D01*
X133653245Y-101036349D01*
X133424351Y-100703450D01*
X133357833Y-100605422D01*
X133297595Y-100514212D01*
X133246711Y-100434669D01*
X133208252Y-100371644D01*
X133185291Y-100329986D01*
X133180570Y-100318643D01*
X133172065Y-100282865D01*
X133170075Y-100249786D01*
X133176953Y-100215947D01*
X133195051Y-100177888D01*
X133226720Y-100132148D01*
X133274313Y-100075268D01*
X133340181Y-100003787D01*
X133426677Y-99914247D01*
X133519592Y-99819919D01*
X133610699Y-99729015D01*
X133696886Y-99645249D01*
X133774230Y-99572262D01*
X133838805Y-99513696D01*
X133886687Y-99473194D01*
X133913125Y-99454771D01*
X133949662Y-99440209D01*
X133985602Y-99433936D01*
X134025015Y-99437704D01*
X134071970Y-99453264D01*
X134130538Y-99482365D01*
X134204791Y-99526759D01*
X134298797Y-99588196D01*
X134416627Y-99668428D01*
X134427860Y-99676162D01*
X134524520Y-99742199D01*
X134612664Y-99801360D01*
X134687867Y-99850764D01*
X134745707Y-99887525D01*
X134781759Y-99908760D01*
X134790822Y-99912802D01*
X134816561Y-99908203D01*
X134867220Y-99891644D01*
X134935840Y-99865636D01*
X135015460Y-99832689D01*
X135028125Y-99827215D01*
X135237849Y-99736049D01*
X135313661Y-99333567D01*
X135336174Y-99216894D01*
X135357847Y-99109814D01*
X135377493Y-99017788D01*
X135393927Y-98946280D01*
X135405961Y-98900752D01*
X135410278Y-98888759D01*
X135437847Y-98843802D01*
X135473401Y-98811596D01*
X135522995Y-98789916D01*
X135592687Y-98776538D01*
X135688533Y-98769239D01*
X135740886Y-98767371D01*
X135923401Y-98767097D01*
X136120340Y-98775201D01*
X136319711Y-98790730D01*
X136509526Y-98812726D01*
X136677793Y-98840236D01*
X136692838Y-98843226D01*
X137028713Y-98928776D01*
X137351518Y-99046054D01*
X137659363Y-99193612D01*
X137950360Y-99370001D01*
X138222620Y-99573773D01*
X138474255Y-99803480D01*
X138703374Y-100057672D01*
X138908091Y-100334902D01*
X139086514Y-100633721D01*
X139125224Y-100708509D01*
X139258454Y-101007180D01*
X139360000Y-101311561D01*
X139430741Y-101625477D01*
X139471554Y-101952752D01*
X139483426Y-102267793D01*
X139479525Y-102470078D01*
X139466945Y-102651467D01*
X139444143Y-102825337D01*
X139409580Y-103005068D01*
X139387473Y-103101033D01*
X139300711Y-103395714D01*
X139185305Y-103683168D01*
X139043721Y-103960510D01*
X138878429Y-104224859D01*
X138691895Y-104473330D01*
X138486589Y-104703039D01*
X138264978Y-104911104D01*
X138029529Y-105094641D01*
X137782712Y-105250767D01*
X137526995Y-105376597D01*
X137396366Y-105427322D01*
X137325466Y-105451494D01*
X137278145Y-105464034D01*
X137245323Y-105465920D01*
X137217917Y-105458131D01*
X137199104Y-105448564D01*
X137160599Y-105423966D01*
X137125134Y-105392818D01*
X137090790Y-105351610D01*
X137055648Y-105296836D01*
X137017788Y-105224986D01*
X136975291Y-105132554D01*
X136926239Y-105016030D01*
X136868710Y-104871908D01*
X136831961Y-104777538D01*
X136791489Y-104674163D01*
X136740395Y-104545538D01*
X136681528Y-104398731D01*
X136617737Y-104240806D01*
X136551872Y-104078829D01*
X136486782Y-103919866D01*
X136453264Y-103838504D01*
X136395362Y-103696792D01*
X136342810Y-103565249D01*
X136297033Y-103447657D01*
X136259461Y-103347800D01*
X136250453Y-103322543D01*
X136839202Y-103322543D01*
X136881962Y-103428607D01*
X136897359Y-103464091D01*
X136925576Y-103526476D01*
X136964400Y-103611043D01*
X137011618Y-103713075D01*
X137065017Y-103827854D01*
X137122384Y-103950661D01*
X137181505Y-104076780D01*
X137240167Y-104201492D01*
X137296158Y-104320080D01*
X137347264Y-104427824D01*
X137391271Y-104520009D01*
X137425968Y-104591915D01*
X137449140Y-104638824D01*
X137454742Y-104649636D01*
X137468550Y-104670184D01*
X137485934Y-104671736D01*
X137519215Y-104654549D01*
X137525097Y-104651101D01*
X137561940Y-104627170D01*
X137617570Y-104588362D01*
X137682952Y-104541054D01*
X137721317Y-104512582D01*
X137830678Y-104423053D01*
X137949530Y-104312912D01*
X138069825Y-104190616D01*
X138183514Y-104064621D01*
X138282548Y-103943386D01*
X138343858Y-103858442D01*
X138509282Y-103580536D01*
X138641980Y-103290252D01*
X138742148Y-102987128D01*
X138782987Y-102816959D01*
X138795708Y-102743814D01*
X138807263Y-102654347D01*
X138817308Y-102554716D01*
X138825497Y-102451082D01*
X138831486Y-102349603D01*
X138834930Y-102256439D01*
X138835484Y-102177749D01*
X138832803Y-102119692D01*
X138826544Y-102088427D01*
X138823949Y-102085213D01*
X138797204Y-102082063D01*
X138742342Y-102085154D01*
X138665518Y-102093577D01*
X138572888Y-102106427D01*
X138470607Y-102122794D01*
X138364830Y-102141772D01*
X138261714Y-102162454D01*
X138188193Y-102178923D01*
X137979034Y-102233570D01*
X137785153Y-102294411D01*
X137613029Y-102359213D01*
X137469141Y-102425743D01*
X137463412Y-102428753D01*
X137325101Y-102501866D01*
X137283122Y-102650660D01*
X137210737Y-102843130D01*
X137106058Y-103022481D01*
X136969579Y-103187871D01*
X136966638Y-103190918D01*
X136839202Y-103322543D01*
X136250453Y-103322543D01*
X136231523Y-103269462D01*
X136214646Y-103216425D01*
G37*
X138771100Y-121838600D02*
X138136100Y-122473600D01*
X136231100Y-121838600D02*
X135596100Y-122473600D01*
X141311100Y-121838600D02*
X141946100Y-122473600D01*
X133056100Y-122473600D02*
X131786100Y-122473600D01*
X134326100Y-119933600D02*
X135596100Y-119933600D01*
X141946100Y-119933600D02*
X141311100Y-120568600D01*
X135596100Y-119933600D02*
X136231100Y-120568600D01*
X143851100Y-121838600D02*
X143216100Y-122473600D01*
X138771100Y-120568600D02*
X138771100Y-121838600D01*
X141311100Y-121838600D02*
X140676100Y-122473600D01*
X140676100Y-119933600D02*
X141311100Y-120568600D01*
X138136100Y-122473600D02*
X136866100Y-122473600D01*
X143216100Y-122473600D02*
X141946100Y-122473600D01*
X138136100Y-119933600D02*
X138771100Y-120568600D01*
X136866100Y-122473600D02*
X136231100Y-121838600D01*
X140676100Y-122473600D02*
X139406100Y-122473600D01*
X133691100Y-120568600D02*
X134326100Y-119933600D01*
X139406100Y-119933600D02*
X138771100Y-120568600D01*
X131786100Y-119933600D02*
X133056100Y-119933600D01*
X141311100Y-120568600D02*
X141311100Y-121838600D01*
X138771100Y-121838600D02*
X139406100Y-122473600D01*
X133691100Y-121838600D02*
X133056100Y-122473600D01*
X133691100Y-120568600D02*
X133691100Y-121838600D01*
X136231100Y-120568600D02*
X136866100Y-119933600D01*
X136866100Y-119933600D02*
X138136100Y-119933600D01*
X135596100Y-122473600D02*
X134326100Y-122473600D01*
X131786100Y-119933600D02*
X131151100Y-120568600D01*
X143216100Y-119933600D02*
X143851100Y-120568600D01*
X141946100Y-119933600D02*
X143216100Y-119933600D01*
X136231100Y-120568600D02*
X136231100Y-121838600D01*
X143851100Y-120568600D02*
X143851100Y-121838600D01*
X131151100Y-121838600D02*
X131786100Y-122473600D01*
X134326100Y-122473600D02*
X133691100Y-121838600D01*
X131151100Y-120568600D02*
X131151100Y-121838600D01*
X139406100Y-119933600D02*
X140676100Y-119933600D01*
X133056100Y-119933600D02*
X133691100Y-120568600D01*
D29*
X127355100Y-109984600D02*
X130101100Y-109984600D01*
X129895100Y-117589600D02*
X126901100Y-117589600D01*
X126901100Y-109984600D02*
X127355100Y-109984600D01*
X130101100Y-117589600D02*
X129895100Y-117589600D01*
X129895100Y-117589600D02*
X129837600Y-117589600D01*
X128056600Y-113456100D02*
X128945600Y-113456100D01*
X126901100Y-117589600D02*
X126901100Y-109984600D01*
X127107100Y-109984600D02*
X127355100Y-109984600D01*
X128501100Y-113075100D02*
X128056600Y-113456100D01*
X130101100Y-109984600D02*
X130101100Y-117589600D01*
X128056600Y-113075100D02*
X128945600Y-113075100D01*
X128945600Y-113456100D02*
X128501100Y-113075100D01*
D13*
X117601100Y-124793600D02*
X118881100Y-124793600D01*
X117601100Y-115213600D02*
X117601100Y-124793600D01*
X118881100Y-115213600D02*
X117601100Y-115213600D01*
X122851100Y-124793600D02*
X121601100Y-124793600D01*
X122851100Y-115213600D02*
X121601100Y-115213600D01*
D29*
X136651100Y-95503600D02*
X134351100Y-95503600D01*
X133001100Y-94253600D02*
X133001100Y-91803600D01*
X136651100Y-90503600D02*
X134351100Y-90503600D01*
X138001100Y-94203600D02*
X138001100Y-91803600D01*
D30*
X177101100Y-119653600D02*
X176926100Y-119478600D01*
X177251100Y-119503600D02*
X177101100Y-119653600D01*
X177076100Y-119328600D02*
X177251100Y-119503600D01*
X176926100Y-119478600D02*
X177076100Y-119328600D01*
D31*
X177563600Y-119228600D02*
G75*
G03*
X177563600Y-119228600I-62500J0D01*
G01*
D30*
X164926100Y-119478600D02*
X165076100Y-119328600D01*
X165251100Y-119503600D02*
X165101100Y-119653600D01*
X165076100Y-119328600D02*
X165251100Y-119503600D01*
X165101100Y-119653600D02*
X164926100Y-119478600D01*
D31*
X165563600Y-119228600D02*
G75*
G03*
X165563600Y-119228600I-62500J0D01*
G01*
D10*
X120831100Y-106568600D02*
X121466100Y-105933600D01*
X121466100Y-111013600D02*
X120831100Y-110378600D01*
X122736100Y-108473600D02*
X121466100Y-108473600D01*
X123371100Y-101488600D02*
X122736100Y-100853600D01*
X121466100Y-105933600D02*
X120831100Y-105298600D01*
X120831100Y-102758600D02*
X120831100Y-101488600D01*
X123371100Y-111648600D02*
X123371100Y-112918600D01*
X121466100Y-103393600D02*
X120831100Y-102758600D01*
X120831100Y-112918600D02*
X120831100Y-111648600D01*
X120831100Y-104028600D02*
X121466100Y-103393600D01*
X120831100Y-107838600D02*
X120831100Y-106568600D01*
X123371100Y-110378600D02*
X122736100Y-111013600D01*
X123371100Y-107838600D02*
X122736100Y-108473600D01*
X121466100Y-108473600D02*
X120831100Y-109108600D01*
X123371100Y-101488600D02*
X123371100Y-102758600D01*
X120831100Y-110378600D02*
X120831100Y-109108600D01*
X120831100Y-105298600D02*
X120831100Y-104028600D01*
X122736100Y-100853600D02*
X121466100Y-100853600D01*
X123371100Y-109108600D02*
X123371100Y-110378600D01*
X121466100Y-100853600D02*
X120831100Y-101488600D01*
X123371100Y-104028600D02*
X123371100Y-105298600D01*
X123371100Y-111648600D02*
X122736100Y-111013600D01*
X122736100Y-103393600D02*
X123371100Y-104028600D01*
X122736100Y-105933600D02*
X121466100Y-105933600D01*
X123371100Y-102758600D02*
X122736100Y-103393600D01*
X122736100Y-113553600D02*
X121466100Y-113553600D01*
X123371100Y-109108600D02*
X122736100Y-108473600D01*
X123371100Y-112918600D02*
X122736100Y-113553600D01*
X122736100Y-103393600D02*
X121466100Y-103393600D01*
X123371100Y-105298600D02*
X122736100Y-105933600D01*
X121466100Y-111013600D02*
X120831100Y-111648600D01*
X123371100Y-106568600D02*
X123371100Y-107838600D01*
X122736100Y-105933600D02*
X123371100Y-106568600D01*
X122736100Y-111013600D02*
X121466100Y-111013600D01*
X121466100Y-108473600D02*
X120831100Y-107838600D01*
X121466100Y-113553600D02*
X120831100Y-112918600D01*
D17*
X160471100Y-99363600D02*
X160471100Y-99643600D01*
X161931100Y-99363600D02*
X161931100Y-99643600D01*
D32*
X122928100Y-86503600D02*
X122928100Y-85303600D01*
X121928100Y-85903600D02*
X122928100Y-86503600D01*
X122928100Y-85303600D02*
X121928100Y-85903600D01*
G36*
X122047100Y-86691000D02*
G01*
X121437500Y-86691000D01*
X121437500Y-85116200D01*
X122047100Y-85116200D01*
X122047100Y-86691000D01*
G37*
D30*
X168926100Y-119478600D02*
X169076100Y-119328600D01*
X169076100Y-119328600D02*
X169251100Y-119503600D01*
X169251100Y-119503600D02*
X169101100Y-119653600D01*
X169101100Y-119653600D02*
X168926100Y-119478600D01*
D31*
X169563600Y-119228600D02*
G75*
G03*
X169563600Y-119228600I-62500J0D01*
G01*
D29*
X159001100Y-94253600D02*
X159001100Y-91803600D01*
X162651100Y-95503600D02*
X160351100Y-95503600D01*
X162651100Y-90503600D02*
X160351100Y-90503600D01*
X164001100Y-94203600D02*
X164001100Y-91803600D01*
D10*
X156566100Y-118133600D02*
X157201100Y-118768600D01*
X157201100Y-120038600D02*
X157201100Y-118768600D01*
X157201100Y-118768600D02*
X157836100Y-118133600D01*
X155296100Y-120673600D02*
X154661100Y-120038600D01*
X157836100Y-120673600D02*
X157201100Y-120038600D01*
X159106100Y-120673600D02*
X157836100Y-120673600D01*
X159741100Y-118768600D02*
X159106100Y-118133600D01*
X157836100Y-118133600D02*
X159106100Y-118133600D01*
X155296100Y-118133600D02*
X156566100Y-118133600D01*
X159106100Y-120673600D02*
X159741100Y-120038600D01*
X156566100Y-120673600D02*
X155296100Y-120673600D01*
X157201100Y-120038600D02*
X156566100Y-120673600D01*
X159741100Y-120038600D02*
X159741100Y-118768600D01*
X154661100Y-118768600D02*
X155296100Y-118133600D01*
X154661100Y-120038600D02*
X154661100Y-118768600D01*
D17*
X136576100Y-107778600D02*
X134826100Y-107778600D01*
X136576100Y-110828600D02*
X134826100Y-110828600D01*
D33*
X137205100Y-111052200D02*
G75*
G03*
X137205100Y-111052200I-125000J0D01*
G01*
D10*
X125641100Y-94338600D02*
X125641100Y-93068600D01*
X120561100Y-91798600D02*
X120561100Y-90528600D01*
X125641100Y-89258600D02*
X125641100Y-87988600D01*
X125006100Y-100053600D02*
X121196100Y-100053600D01*
X125641100Y-99418600D02*
X125641100Y-98148600D01*
X121196100Y-97513600D02*
X120561100Y-96878600D01*
X125006100Y-100053600D02*
X125641100Y-99418600D01*
X125641100Y-98148600D02*
X125006100Y-97513600D01*
X121196100Y-87353600D02*
X125006100Y-87353600D01*
X121196100Y-94973600D02*
X120561100Y-94338600D01*
X125641100Y-90528600D02*
X125006100Y-89893600D01*
X121196100Y-89893600D02*
X120561100Y-89258600D01*
X120561100Y-96878600D02*
X120561100Y-95608600D01*
X121196100Y-89893600D02*
X125006100Y-89893600D01*
X120561100Y-94338600D02*
X120561100Y-93068600D01*
X120561100Y-89258600D02*
X120561100Y-87988600D01*
X125006100Y-89893600D02*
X125641100Y-89258600D01*
X120561100Y-90528600D02*
X121196100Y-89893600D01*
X125006100Y-92433600D02*
X125641100Y-91798600D01*
X125641100Y-96878600D02*
X125641100Y-95608600D01*
X120561100Y-93068600D02*
X121196100Y-92433600D01*
X125641100Y-95608600D02*
X125006100Y-94973600D01*
X120561100Y-87988600D02*
X121196100Y-87353600D01*
X120561100Y-98148600D02*
X121196100Y-97513600D01*
X121196100Y-100053600D02*
X120561100Y-99418600D01*
X125006100Y-94973600D02*
X125641100Y-94338600D01*
X125641100Y-93068600D02*
X125006100Y-92433600D01*
X121196100Y-92433600D02*
X125006100Y-92433600D01*
X121196100Y-92433600D02*
X120561100Y-91798600D01*
X125641100Y-91798600D02*
X125641100Y-90528600D01*
X120561100Y-95608600D02*
X121196100Y-94973600D01*
X125641100Y-87988600D02*
X125006100Y-87353600D01*
X120561100Y-99418600D02*
X120561100Y-98148600D01*
X121196100Y-97513600D02*
X125006100Y-97513600D01*
X121196100Y-94973600D02*
X125006100Y-94973600D01*
X125006100Y-97513600D02*
X125641100Y-96878600D01*
D30*
X172926100Y-119478600D02*
X173076100Y-119328600D01*
X173076100Y-119328600D02*
X173251100Y-119503600D01*
X173101100Y-119653600D02*
X172926100Y-119478600D01*
X173251100Y-119503600D02*
X173101100Y-119653600D01*
D31*
X173563600Y-119228600D02*
G75*
G03*
X173563600Y-119228600I-62500J0D01*
G01*
D10*
X144381100Y-131908600D02*
X143746100Y-132543600D01*
X147556100Y-132543600D02*
X146921100Y-131908600D01*
X152001100Y-131908600D02*
X151366100Y-132543600D01*
X149461100Y-131908600D02*
X148826100Y-132543600D01*
X141206100Y-132543600D02*
X139936100Y-132543600D01*
X166606100Y-127463600D02*
X165336100Y-127463600D01*
X152001100Y-131908600D02*
X152001100Y-128098600D01*
X136761100Y-128098600D02*
X137396100Y-127463600D01*
X149461100Y-128098600D02*
X148826100Y-127463600D01*
X162161100Y-131908600D02*
X162161100Y-128098600D01*
X150096100Y-132543600D02*
X149461100Y-131908600D01*
X149461100Y-131908600D02*
X149461100Y-128098600D01*
X161526100Y-132543600D02*
X160256100Y-132543600D01*
X157081100Y-131908600D02*
X157081100Y-128098600D01*
X139301100Y-128098600D02*
X139936100Y-127463600D01*
X146921100Y-128098600D02*
X147556100Y-127463600D01*
X164701100Y-131908600D02*
X164066100Y-132543600D01*
X141841100Y-128098600D02*
X141206100Y-127463600D01*
X146921100Y-128098600D02*
X146286100Y-127463600D01*
X157081100Y-128098600D02*
X156446100Y-127463600D01*
X164066100Y-132543600D02*
X162796100Y-132543600D01*
X153906100Y-132543600D02*
X152636100Y-132543600D01*
X154541100Y-128098600D02*
X153906100Y-127463600D01*
X139301100Y-131908600D02*
X138666100Y-132543600D01*
X162796100Y-127463600D02*
X162161100Y-128098600D01*
X165336100Y-132543600D02*
X164701100Y-131908600D01*
X153906100Y-127463600D02*
X152636100Y-127463600D01*
X162161100Y-131908600D02*
X161526100Y-132543600D01*
X141841100Y-128098600D02*
X142476100Y-127463600D01*
X162161100Y-128098600D02*
X161526100Y-127463600D01*
X137396100Y-132543600D02*
X136761100Y-131908600D01*
X159621100Y-128098600D02*
X158986100Y-127463600D01*
X151366100Y-132543600D02*
X150096100Y-132543600D01*
X167241100Y-131908600D02*
X166606100Y-132543600D01*
X141841100Y-131908600D02*
X141841100Y-128098600D01*
X160256100Y-132543600D02*
X159621100Y-131908600D01*
X164701100Y-131908600D02*
X164701100Y-128098600D01*
X165336100Y-127463600D02*
X164701100Y-128098600D01*
X152636100Y-132543600D02*
X152001100Y-131908600D01*
X145016100Y-127463600D02*
X146286100Y-127463600D01*
X138666100Y-132543600D02*
X137396100Y-132543600D01*
X167241100Y-128098600D02*
X167241100Y-131908600D01*
X150096100Y-127463600D02*
X151366100Y-127463600D01*
X152636100Y-127463600D02*
X152001100Y-128098600D01*
X167241100Y-128098600D02*
X166606100Y-127463600D01*
X139936100Y-132543600D02*
X139301100Y-131908600D01*
X154541100Y-131908600D02*
X154541100Y-128098600D01*
X136761100Y-131908600D02*
X136761100Y-128098600D01*
X161526100Y-127463600D02*
X160256100Y-127463600D01*
X158986100Y-132543600D02*
X157716100Y-132543600D01*
X141841100Y-131908600D02*
X141206100Y-132543600D01*
X147556100Y-127463600D02*
X148826100Y-127463600D01*
X149461100Y-128098600D02*
X150096100Y-127463600D01*
X159621100Y-131908600D02*
X158986100Y-132543600D01*
X156446100Y-132543600D02*
X155176100Y-132543600D01*
X155176100Y-132543600D02*
X154541100Y-131908600D01*
X157716100Y-127463600D02*
X157081100Y-128098600D01*
X142476100Y-132543600D02*
X141841100Y-131908600D01*
X157716100Y-132543600D02*
X157081100Y-131908600D01*
X144381100Y-131908600D02*
X144381100Y-128098600D01*
X144381100Y-128098600D02*
X143746100Y-127463600D01*
X148826100Y-132543600D02*
X147556100Y-132543600D01*
X139301100Y-131908600D02*
X139301100Y-128098600D01*
X146921100Y-131908600D02*
X146921100Y-128098600D01*
X139936100Y-127463600D02*
X141206100Y-127463600D01*
X142476100Y-127463600D02*
X143746100Y-127463600D01*
X145016100Y-132543600D02*
X144381100Y-131908600D01*
X146286100Y-132543600D02*
X145016100Y-132543600D01*
X164701100Y-128098600D02*
X164066100Y-127463600D01*
X158986100Y-127463600D02*
X157716100Y-127463600D01*
X137396100Y-127463600D02*
X138666100Y-127463600D01*
X157081100Y-131908600D02*
X156446100Y-132543600D01*
X146921100Y-131908600D02*
X146286100Y-132543600D01*
X162796100Y-132543600D02*
X162161100Y-131908600D01*
X160256100Y-127463600D02*
X159621100Y-128098600D01*
X156446100Y-127463600D02*
X155176100Y-127463600D01*
X139301100Y-128098600D02*
X138666100Y-127463600D01*
X166606100Y-132543600D02*
X165336100Y-132543600D01*
X159621100Y-131908600D02*
X159621100Y-128098600D01*
X143746100Y-132543600D02*
X142476100Y-132543600D01*
X164066100Y-127463600D02*
X162796100Y-127463600D01*
X154541100Y-131908600D02*
X153906100Y-132543600D01*
X144381100Y-128098600D02*
X145016100Y-127463600D01*
X152001100Y-128098600D02*
X151366100Y-127463600D01*
X155176100Y-127463600D02*
X154541100Y-128098600D01*
X131771100Y-91168600D02*
X131771100Y-92438600D01*
X129231100Y-92438600D02*
X129866100Y-93073600D01*
X129231100Y-91168600D02*
X129231100Y-92438600D01*
X129866100Y-90533600D02*
X131136100Y-90533600D01*
X131136100Y-90533600D02*
X131771100Y-91168600D01*
X131771100Y-92438600D02*
X131136100Y-93073600D01*
X131136100Y-93073600D02*
X129866100Y-93073600D01*
X129866100Y-90533600D02*
X129231100Y-91168600D01*
X155714700Y-112217200D02*
X155714700Y-111480600D01*
X141287500Y-111480600D02*
X141287500Y-112217200D01*
X142024100Y-97790000D02*
X141287500Y-97790000D01*
X155714700Y-97790000D02*
X154978100Y-97790000D01*
X141287500Y-112217200D02*
X142024100Y-112217200D01*
X154978100Y-112217200D02*
X155714700Y-112217200D01*
X141287500Y-97790000D02*
X141287500Y-98526600D01*
X155714700Y-98526600D02*
X155714700Y-97790000D01*
X157264100Y-110998000D02*
G75*
G03*
X157416500Y-110998000I76200J0D01*
G01*
X157264100Y-110998000D02*
G75*
G03*
X157416500Y-110998000I76200J0D01*
G01*
X157416500Y-110998000D02*
G75*
G03*
X157264100Y-110998000I-76200J0D01*
G01*
X157416500Y-110998000D02*
G75*
G03*
X157264100Y-110998000I-76200J0D01*
G01*
G36*
X147704300Y-96415400D02*
G01*
X147297900Y-96415400D01*
X147297900Y-96136000D01*
X147704300Y-96136000D01*
X147704300Y-96415400D01*
G37*
G36*
X142704300Y-96415400D02*
G01*
X142297900Y-96415400D01*
X142297900Y-96136000D01*
X142704300Y-96136000D01*
X142704300Y-96415400D01*
G37*
G36*
X154704300Y-113871200D02*
G01*
X154297900Y-113871200D01*
X154297900Y-113591800D01*
X154704300Y-113591800D01*
X154704300Y-113871200D01*
G37*
G36*
X149704300Y-113871200D02*
G01*
X149297900Y-113871200D01*
X149297900Y-113591800D01*
X149704300Y-113591800D01*
X149704300Y-113871200D01*
G37*
G36*
X157368700Y-101706800D02*
G01*
X157089300Y-101706800D01*
X157089300Y-101300400D01*
X157368700Y-101300400D01*
X157368700Y-101706800D01*
G37*
G36*
X152704300Y-96415400D02*
G01*
X152297900Y-96415400D01*
X152297900Y-96136000D01*
X152704300Y-96136000D01*
X152704300Y-96415400D01*
G37*
G36*
X144704300Y-113871200D02*
G01*
X144297900Y-113871200D01*
X144297900Y-113591800D01*
X144704300Y-113591800D01*
X144704300Y-113871200D01*
G37*
G36*
X139912900Y-108706800D02*
G01*
X139633500Y-108706800D01*
X139633500Y-108300400D01*
X139912900Y-108300400D01*
X139912900Y-108706800D01*
G37*
G36*
X157368700Y-106706800D02*
G01*
X157089300Y-106706800D01*
X157089300Y-106300400D01*
X157368700Y-106300400D01*
X157368700Y-106706800D01*
G37*
G36*
X144704300Y-113871200D02*
G01*
X144297900Y-113871200D01*
X144297900Y-113591800D01*
X144704300Y-113591800D01*
X144704300Y-113871200D01*
G37*
G36*
X147704300Y-96415400D02*
G01*
X147297900Y-96415400D01*
X147297900Y-96136000D01*
X147704300Y-96136000D01*
X147704300Y-96415400D01*
G37*
G36*
X157368700Y-106706800D02*
G01*
X157089300Y-106706800D01*
X157089300Y-106300400D01*
X157368700Y-106300400D01*
X157368700Y-106706800D01*
G37*
G36*
X157368700Y-101706800D02*
G01*
X157089300Y-101706800D01*
X157089300Y-101300400D01*
X157368700Y-101300400D01*
X157368700Y-101706800D01*
G37*
G36*
X139912900Y-108706800D02*
G01*
X139633500Y-108706800D01*
X139633500Y-108300400D01*
X139912900Y-108300400D01*
X139912900Y-108706800D01*
G37*
G36*
X139912900Y-103706800D02*
G01*
X139633500Y-103706800D01*
X139633500Y-103300400D01*
X139912900Y-103300400D01*
X139912900Y-103706800D01*
G37*
G36*
X152704300Y-96415400D02*
G01*
X152297900Y-96415400D01*
X152297900Y-96136000D01*
X152704300Y-96136000D01*
X152704300Y-96415400D01*
G37*
G36*
X149704300Y-113871200D02*
G01*
X149297900Y-113871200D01*
X149297900Y-113591800D01*
X149704300Y-113591800D01*
X149704300Y-113871200D01*
G37*
G36*
X139912900Y-103706800D02*
G01*
X139633500Y-103706800D01*
X139633500Y-103300400D01*
X139912900Y-103300400D01*
X139912900Y-103706800D01*
G37*
G36*
X154704300Y-113871200D02*
G01*
X154297900Y-113871200D01*
X154297900Y-113591800D01*
X154704300Y-113591800D01*
X154704300Y-113871200D01*
G37*
G36*
X142704300Y-96415400D02*
G01*
X142297900Y-96415400D01*
X142297900Y-96136000D01*
X142704300Y-96136000D01*
X142704300Y-96415400D01*
G37*
X176041100Y-107898600D02*
X175406100Y-108533600D01*
X175406100Y-111073600D02*
X171596100Y-111073600D01*
X176041100Y-109168600D02*
X176041100Y-110438600D01*
X170961100Y-110438600D02*
X171596100Y-111073600D01*
X171596100Y-111073600D02*
X170961100Y-111708600D01*
X175406100Y-116153600D02*
X171596100Y-116153600D01*
X170961100Y-112978600D02*
X171596100Y-113613600D01*
X170961100Y-106628600D02*
X170961100Y-107898600D01*
X170961100Y-104088600D02*
X170961100Y-105358600D01*
X176041100Y-115518600D02*
X175406100Y-116153600D01*
X171596100Y-103453600D02*
X175406100Y-103453600D01*
X175406100Y-105993600D02*
X171596100Y-105993600D01*
X176041100Y-110438600D02*
X175406100Y-111073600D01*
X170961100Y-115518600D02*
X171596100Y-116153600D01*
X170961100Y-107898600D02*
X171596100Y-108533600D01*
X171596100Y-103453600D02*
X170961100Y-104088600D01*
X170961100Y-111708600D02*
X170961100Y-112978600D01*
X171596100Y-105993600D02*
X170961100Y-106628600D01*
X176041100Y-111708600D02*
X176041100Y-112978600D01*
X170961100Y-114248600D02*
X170961100Y-115518600D01*
X175406100Y-111073600D02*
X176041100Y-111708600D01*
X171596100Y-108533600D02*
X170961100Y-109168600D01*
X175406100Y-108533600D02*
X176041100Y-109168600D01*
X175406100Y-113613600D02*
X171596100Y-113613600D01*
X170961100Y-105358600D02*
X171596100Y-105993600D01*
X176041100Y-105358600D02*
X175406100Y-105993600D01*
X170961100Y-109168600D02*
X170961100Y-110438600D01*
X176041100Y-114248600D02*
X176041100Y-115518600D01*
X176041100Y-112978600D02*
X175406100Y-113613600D01*
X176041100Y-104088600D02*
X176041100Y-105358600D01*
X171596100Y-113613600D02*
X170961100Y-114248600D01*
X176041100Y-106628600D02*
X176041100Y-107898600D01*
X175406100Y-108533600D02*
X171596100Y-108533600D01*
X175406100Y-113613600D02*
X176041100Y-114248600D01*
X175406100Y-105993600D02*
X176041100Y-106628600D01*
X175406100Y-103453600D02*
X176041100Y-104088600D01*
X170961100Y-90388600D02*
X170961100Y-91658600D01*
X176041100Y-94198600D02*
X175406100Y-94833600D01*
X176041100Y-98008600D02*
X176041100Y-99278600D01*
X176041100Y-95468600D02*
X176041100Y-96738600D01*
X176041100Y-96738600D02*
X175406100Y-97373600D01*
X171596100Y-99913600D02*
X170961100Y-100548600D01*
X171596100Y-94833600D02*
X170961100Y-95468600D01*
X175406100Y-89753600D02*
X176041100Y-90388600D01*
X171596100Y-89753600D02*
X175406100Y-89753600D01*
X175406100Y-99913600D02*
X171596100Y-99913600D01*
X171596100Y-97373600D02*
X170961100Y-98008600D01*
X170961100Y-95468600D02*
X170961100Y-96738600D01*
X170961100Y-101818600D02*
X171596100Y-102453600D01*
X175406100Y-94833600D02*
X176041100Y-95468600D01*
X171596100Y-89753600D02*
X170961100Y-90388600D01*
X176041100Y-99278600D02*
X175406100Y-99913600D01*
X170961100Y-98008600D02*
X170961100Y-99278600D01*
X175406100Y-102453600D02*
X171596100Y-102453600D01*
X170961100Y-92928600D02*
X170961100Y-94198600D01*
X176041100Y-91658600D02*
X175406100Y-92293600D01*
X170961100Y-96738600D02*
X171596100Y-97373600D01*
X175406100Y-92293600D02*
X176041100Y-92928600D01*
X176041100Y-92928600D02*
X176041100Y-94198600D01*
X175406100Y-97373600D02*
X176041100Y-98008600D01*
X175406100Y-97373600D02*
X171596100Y-97373600D01*
X175406100Y-99913600D02*
X176041100Y-100548600D01*
X176041100Y-100548600D02*
X176041100Y-101818600D01*
X170961100Y-91658600D02*
X171596100Y-92293600D01*
X170961100Y-94198600D02*
X171596100Y-94833600D01*
X176041100Y-101818600D02*
X175406100Y-102453600D01*
X175406100Y-94833600D02*
X171596100Y-94833600D01*
X170961100Y-100548600D02*
X170961100Y-101818600D01*
X176041100Y-90388600D02*
X176041100Y-91658600D01*
X170961100Y-99278600D02*
X171596100Y-99913600D01*
X171596100Y-92293600D02*
X170961100Y-92928600D01*
X175406100Y-92293600D02*
X171596100Y-92293600D01*
D32*
X137352100Y-118380200D02*
X134050100Y-118380200D01*
X134050100Y-118380200D02*
X134050100Y-111827000D01*
X134050100Y-111827000D02*
X137352100Y-111827000D01*
X137352100Y-111827000D02*
X137352100Y-118380200D01*
X133211100Y-129606600D02*
X133211100Y-129860600D01*
X129401100Y-129606600D02*
X129401100Y-129860600D01*
X129901100Y-133403600D02*
X129901100Y-128603600D01*
X133211100Y-130876600D02*
X133211100Y-131130600D01*
X129901100Y-128603600D02*
X129501100Y-128603600D01*
X129401100Y-132146600D02*
X129401100Y-132400600D01*
X129901100Y-133403600D02*
X129501100Y-133403600D01*
X133211100Y-132146600D02*
X133211100Y-132400600D01*
X133101100Y-133403600D02*
X129901100Y-133403600D01*
X129901100Y-128603600D02*
X133101100Y-128603600D01*
X129401100Y-130876600D02*
X129401100Y-131130600D01*
D13*
X130512100Y-129098600D02*
G75*
G03*
X130512100Y-129098600I-100000J0D01*
G01*
D32*
X144036100Y-76728600D02*
X152966100Y-76728600D01*
X162311100Y-84203600D02*
X156979100Y-84203600D01*
X152968100Y-75803600D02*
X156734100Y-75803600D01*
X140268100Y-75803600D02*
X144034100Y-75803600D01*
X146618100Y-84203600D02*
X141739100Y-84203600D01*
X140268100Y-75803600D02*
X140268100Y-77353600D01*
X141739100Y-83903600D02*
X140260100Y-83903600D01*
X144034100Y-75803600D02*
X152968100Y-75803600D01*
X140260100Y-84203600D02*
X134691100Y-84203600D01*
X156734100Y-75803600D02*
X162311100Y-75803600D01*
X162311100Y-75803600D02*
X162311100Y-84203600D01*
X135816100Y-83278600D02*
X135816100Y-76728600D01*
X140260100Y-83903600D02*
X140260100Y-84203600D01*
X155500100Y-84203600D02*
X150384100Y-84203600D01*
X150384100Y-84203600D02*
X150384100Y-82653600D01*
X135816100Y-76728600D02*
X140261100Y-76728600D01*
X144034100Y-77353600D02*
X144034100Y-75803600D01*
X150384100Y-82653600D02*
X146618100Y-82653600D01*
X156979100Y-83903600D02*
X155500100Y-83903600D01*
X141739100Y-84203600D02*
X141739100Y-83903600D01*
X152968100Y-75803600D02*
X152968100Y-77353600D01*
X150384100Y-84203600D02*
X146618100Y-84203600D01*
X156979100Y-84203600D02*
X156979100Y-83903600D01*
X134691100Y-75803600D02*
X140268100Y-75803600D01*
X156734100Y-77353600D02*
X156734100Y-75803600D01*
X140268100Y-77353600D02*
X144034100Y-77353600D01*
X146618100Y-83278600D02*
X135816100Y-83278600D01*
X156741100Y-76728600D02*
X161186100Y-76728600D01*
X155500100Y-83903600D02*
X155500100Y-84203600D01*
X161186100Y-83278600D02*
X150384100Y-83278600D01*
X146618100Y-82653600D02*
X146618100Y-84203600D01*
X134691100Y-84203600D02*
X134691100Y-75803600D01*
X161186100Y-76728600D02*
X161186100Y-83278600D01*
X152968100Y-77353600D02*
X156734100Y-77353600D01*
%LPC*%
G36*
X161725982Y-99821746D02*
G01*
X161764946Y-99831028D01*
X161801879Y-99846332D01*
X161835948Y-99867243D01*
X161866447Y-99893253D01*
X161892457Y-99923752D01*
X161913368Y-99957821D01*
X161928672Y-99994754D01*
X161937954Y-100033718D01*
X161941100Y-100073402D01*
X161941100Y-100663798D01*
X161937954Y-100703482D01*
X161928672Y-100742446D01*
X161913368Y-100779379D01*
X161892457Y-100813448D01*
X161866447Y-100843947D01*
X161835948Y-100869957D01*
X161801879Y-100890868D01*
X161764946Y-100906172D01*
X161725795Y-100915498D01*
X160715910Y-100918601D01*
X160676218Y-100915454D01*
X160637254Y-100906172D01*
X160600321Y-100890868D01*
X160566252Y-100869957D01*
X160535753Y-100843947D01*
X160509743Y-100813448D01*
X160488832Y-100779379D01*
X160473528Y-100742446D01*
X160464246Y-100703482D01*
X160461100Y-100663798D01*
X160461100Y-100073402D01*
X160464246Y-100033718D01*
X160473528Y-99994754D01*
X160488832Y-99957821D01*
X160509743Y-99923752D01*
X160535753Y-99893253D01*
X160566252Y-99867243D01*
X160600321Y-99846332D01*
X160637254Y-99831028D01*
X160676405Y-99821702D01*
X161686290Y-99818599D01*
X161725982Y-99821746D01*
G37*
G36*
X161725982Y-98091746D02*
G01*
X161764946Y-98101028D01*
X161801879Y-98116332D01*
X161835948Y-98137243D01*
X161866447Y-98163253D01*
X161892457Y-98193752D01*
X161913368Y-98227821D01*
X161928672Y-98264754D01*
X161937954Y-98303718D01*
X161941100Y-98343402D01*
X161941100Y-98933798D01*
X161937954Y-98973482D01*
X161928672Y-99012446D01*
X161913368Y-99049379D01*
X161892457Y-99083448D01*
X161866447Y-99113947D01*
X161835948Y-99139957D01*
X161801879Y-99160868D01*
X161764946Y-99176172D01*
X161725795Y-99185498D01*
X160715910Y-99188601D01*
X160676218Y-99185454D01*
X160637254Y-99176172D01*
X160600321Y-99160868D01*
X160566252Y-99139957D01*
X160535753Y-99113947D01*
X160509743Y-99083448D01*
X160488832Y-99049379D01*
X160473528Y-99012446D01*
X160464246Y-98973482D01*
X160461100Y-98933798D01*
X160461100Y-98343402D01*
X160464246Y-98303718D01*
X160473528Y-98264754D01*
X160488832Y-98227821D01*
X160509743Y-98193752D01*
X160535753Y-98163253D01*
X160566252Y-98137243D01*
X160600321Y-98116332D01*
X160637254Y-98101028D01*
X160676405Y-98091702D01*
X161686290Y-98088599D01*
X161725982Y-98091746D01*
G37*
D34*
X162601100Y-107803600D03*
X162601100Y-106103600D03*
D35*
X126251100Y-101603600D03*
X128151100Y-101603600D03*
D36*
X163151100Y-97903600D03*
X164851100Y-97903600D03*
D37*
X139001100Y-110353600D03*
X139001100Y-112053600D03*
D38*
X159801100Y-103203600D03*
D39*
X159801100Y-107203600D03*
D36*
X126051100Y-107903600D03*
X127751100Y-107903600D03*
D40*
X165011100Y-81273600D03*
X165011100Y-78733600D03*
X167551100Y-81273600D03*
X167551100Y-78733600D03*
X130501100Y-94303600D03*
D36*
X126051100Y-105803600D03*
X127751100Y-105803600D03*
D41*
X173251100Y-122203600D03*
X171551100Y-122203600D03*
D42*
X164851100Y-100003600D03*
X163151100Y-100003600D03*
D40*
X129461900Y-81273600D03*
X129461900Y-78733600D03*
X132001900Y-81273600D03*
X132001900Y-78733600D03*
D41*
X132351100Y-96903600D03*
X130651100Y-96903600D03*
D43*
X121804044Y-78306544D03*
X125198156Y-78306544D03*
X123501100Y-82403600D03*
X121101100Y-80003600D03*
X121804044Y-81700656D03*
X123501100Y-77603600D03*
D44*
X123501100Y-80003600D03*
D43*
X125901100Y-80003600D03*
X125198156Y-81700656D03*
D45*
X132421100Y-121203600D03*
X134961100Y-121203600D03*
X137501100Y-121203600D03*
X140041100Y-121203600D03*
X142581100Y-121203600D03*
D46*
X128501100Y-116123100D03*
D47*
X128501100Y-111424100D03*
D48*
X153851100Y-95403600D03*
X155551100Y-95403600D03*
X159161100Y-109463600D03*
X160861100Y-109463600D03*
D41*
X129651100Y-118703600D03*
X127951100Y-118703600D03*
D49*
X123881100Y-122893600D03*
X123881100Y-117113600D03*
D50*
X124956100Y-116803600D03*
X124956100Y-117603600D03*
D51*
X124956100Y-118753600D03*
X124956100Y-119753600D03*
X124956100Y-120253600D03*
X124956100Y-121253600D03*
D50*
X124956100Y-122403600D03*
X124956100Y-123203600D03*
X124956100Y-123203600D03*
X124956100Y-122403600D03*
D51*
X124956100Y-121753600D03*
X124956100Y-120753600D03*
X124956100Y-119253600D03*
X124956100Y-118253600D03*
D50*
X124956100Y-117603600D03*
X124956100Y-116803600D03*
D52*
X120201100Y-115683600D03*
D53*
X124381100Y-115683600D03*
D52*
X120201100Y-124323600D03*
D53*
X124381100Y-124323600D03*
D54*
X138651100Y-91103600D03*
X132351100Y-91103600D03*
X138651100Y-94903600D03*
X132351100Y-94903600D03*
D48*
X165751100Y-125203600D03*
X167451100Y-125203600D03*
D37*
X162601100Y-102603600D03*
X162601100Y-104303600D03*
D55*
X177101100Y-120553600D03*
X177101100Y-118453600D03*
X165101100Y-120553600D03*
X165101100Y-118453600D03*
D56*
X122101100Y-102123600D03*
X122101100Y-104663600D03*
X122101100Y-107203600D03*
X122101100Y-109743600D03*
X122101100Y-112283600D03*
D43*
X123501100Y-127603600D03*
X121101100Y-130003600D03*
X125901100Y-130003600D03*
X123501100Y-132403600D03*
X121804044Y-131700656D03*
X121804044Y-128306544D03*
X125198156Y-131700656D03*
D44*
X123501100Y-130003600D03*
D43*
X125198156Y-128306544D03*
D41*
X177251100Y-122203600D03*
X175551100Y-122203600D03*
D57*
X124001100Y-85903600D03*
X120601100Y-85903600D03*
D55*
X169101100Y-120553600D03*
X169101100Y-118453600D03*
D54*
X164651100Y-91103600D03*
X158351100Y-91103600D03*
X164651100Y-94903600D03*
X158351100Y-94903600D03*
D42*
X142651100Y-95103600D03*
X140951100Y-95103600D03*
D41*
X132751100Y-108303600D03*
X131051100Y-108303600D03*
D45*
X158471100Y-119403600D03*
X155931100Y-119403600D03*
D36*
X126051100Y-103703600D03*
X127751100Y-103703600D03*
D43*
X171804044Y-81700656D03*
X171101100Y-80003600D03*
D44*
X173501100Y-80003600D03*
D43*
X173501100Y-77603600D03*
X171804044Y-78306544D03*
X175901100Y-80003600D03*
X175198156Y-81700656D03*
X173501100Y-82403600D03*
X175198156Y-78306544D03*
D41*
X169251100Y-122203600D03*
X167551100Y-122203600D03*
D58*
X136957400Y-110253600D03*
X136957400Y-109303600D03*
X136957400Y-108353600D03*
X134444800Y-108353600D03*
X134444800Y-109303600D03*
X134444800Y-110253600D03*
D59*
X124371100Y-98783600D03*
X121831100Y-98783600D03*
X124371100Y-96243600D03*
X121831100Y-96243600D03*
X124371100Y-93703600D03*
X121831100Y-93703600D03*
X124371100Y-91163600D03*
X121831100Y-91163600D03*
X124371100Y-88623600D03*
X121831100Y-88623600D03*
D55*
X173101100Y-120553600D03*
X173101100Y-118453600D03*
D37*
X159201100Y-98553600D03*
X159201100Y-100253600D03*
D60*
X165971100Y-128733600D03*
X165971100Y-131273600D03*
X163431100Y-128733600D03*
X163431100Y-131273600D03*
X160891100Y-128733600D03*
X160891100Y-131273600D03*
X158351100Y-128733600D03*
X158351100Y-131273600D03*
X155811100Y-128733600D03*
X155811100Y-131273600D03*
X153271100Y-128733600D03*
X153271100Y-131273600D03*
X150731100Y-128733600D03*
X150731100Y-131273600D03*
X148191100Y-128733600D03*
X148191100Y-131273600D03*
X145651100Y-128733600D03*
X145651100Y-131273600D03*
X143111100Y-128733600D03*
X143111100Y-131273600D03*
X140571100Y-128733600D03*
X140571100Y-131273600D03*
X138031100Y-128733600D03*
X138031100Y-131273600D03*
D61*
X153601100Y-119253600D03*
X153601100Y-120953600D03*
D40*
X130501100Y-91803600D03*
D62*
X156251100Y-111003600D03*
X156251100Y-110503600D03*
X156251100Y-110003600D03*
X156251100Y-109503600D03*
X156251100Y-109003600D03*
X156251100Y-108503600D03*
X156251100Y-108003600D03*
X156251100Y-107503600D03*
X156251100Y-107003600D03*
X156251100Y-106503600D03*
X156251100Y-106003600D03*
X156251100Y-105503600D03*
X156251100Y-105003600D03*
X156251100Y-104503600D03*
X156251100Y-104003600D03*
X156251100Y-103503600D03*
X156251100Y-103003600D03*
X156251100Y-102503600D03*
X156251100Y-102003600D03*
X156251100Y-101503600D03*
X156251100Y-101003600D03*
X156251100Y-100503600D03*
X156251100Y-100003600D03*
X156251100Y-99503600D03*
X156251100Y-99003600D03*
D63*
X154501100Y-97253600D03*
X154001100Y-97253600D03*
X153501100Y-97253600D03*
X153001100Y-97253600D03*
X152501100Y-97253600D03*
X152001100Y-97253600D03*
X151501100Y-97253600D03*
X151001100Y-97253600D03*
X150501100Y-97253600D03*
X150001100Y-97253600D03*
X149501100Y-97253600D03*
X149001100Y-97253600D03*
X148501100Y-97253600D03*
X148001100Y-97253600D03*
X147501100Y-97253600D03*
X147001100Y-97253600D03*
X146501100Y-97253600D03*
X146001100Y-97253600D03*
X145501100Y-97253600D03*
X145001100Y-97253600D03*
X144501100Y-97253600D03*
X144001100Y-97253600D03*
X143501100Y-97253600D03*
X143001100Y-97253600D03*
X142501100Y-97253600D03*
D64*
X140751100Y-99003600D03*
X140751100Y-99503600D03*
X140751100Y-100003600D03*
X140751100Y-100503600D03*
X140751100Y-101003600D03*
X140751100Y-101503600D03*
X140751100Y-102003600D03*
X140751100Y-102503600D03*
X140751100Y-103003600D03*
X140751100Y-103503600D03*
X140751100Y-104003600D03*
X140751100Y-104503600D03*
X140751100Y-105003600D03*
X140751100Y-105503600D03*
X140751100Y-106003600D03*
X140751100Y-106503600D03*
X140751100Y-107003600D03*
X140751100Y-107503600D03*
X140751100Y-108003600D03*
X140751100Y-108503600D03*
X140751100Y-109003600D03*
X140751100Y-109503600D03*
X140751100Y-110003600D03*
X140751100Y-110503600D03*
X140751100Y-111003600D03*
D65*
X142501100Y-112753600D03*
X143001100Y-112753600D03*
X143501100Y-112753600D03*
X144001100Y-112753600D03*
X144501100Y-112753600D03*
X145001100Y-112753600D03*
X145501100Y-112753600D03*
X146001100Y-112753600D03*
X146501100Y-112753600D03*
X147001100Y-112753600D03*
X147501100Y-112753600D03*
X148001100Y-112753600D03*
X148501100Y-112753600D03*
X149001100Y-112753600D03*
X149501100Y-112753600D03*
X150001100Y-112753600D03*
X150501100Y-112753600D03*
X151001100Y-112753600D03*
X151501100Y-112753600D03*
X152001100Y-112753600D03*
X152501100Y-112753600D03*
X153001100Y-112753600D03*
X153501100Y-112753600D03*
X154001100Y-112753600D03*
X154501100Y-112753600D03*
D42*
X139591100Y-96903600D03*
X137891100Y-96903600D03*
D66*
X172231100Y-104723600D03*
X174771100Y-104723600D03*
X172231100Y-107263600D03*
X174771100Y-107263600D03*
X172231100Y-109803600D03*
X174771100Y-109803600D03*
X172231100Y-112343600D03*
X174771100Y-112343600D03*
X172231100Y-114883600D03*
X174771100Y-114883600D03*
D48*
X127351100Y-126103600D03*
X129051100Y-126103600D03*
D66*
X172231100Y-91023600D03*
X174771100Y-91023600D03*
X172231100Y-93563600D03*
X174771100Y-93563600D03*
X172231100Y-96103600D03*
X174771100Y-96103600D03*
X172231100Y-98643600D03*
X174771100Y-98643600D03*
X172231100Y-101183600D03*
X174771100Y-101183600D03*
D37*
X141001100Y-113653600D03*
X141001100Y-115353600D03*
D43*
X173501100Y-132403600D03*
X175198156Y-131700656D03*
X171804044Y-131700656D03*
X171804044Y-128306544D03*
X175198156Y-128306544D03*
X171101100Y-130003600D03*
X173501100Y-127603600D03*
D44*
X173501100Y-130003600D03*
D43*
X175901100Y-130003600D03*
D67*
X132602300Y-112792200D03*
X132602300Y-115103600D03*
X132602300Y-117415000D03*
D68*
X138800100Y-115103600D03*
D35*
X164811100Y-102213600D03*
X166711100Y-102213600D03*
D41*
X137651100Y-106403600D03*
X135951100Y-106403600D03*
D48*
X127351100Y-124003600D03*
X129051100Y-124003600D03*
D41*
X165151100Y-122203600D03*
X163451100Y-122203600D03*
D36*
X127351100Y-121903600D03*
X129051100Y-121903600D03*
D69*
X135801100Y-130153600D03*
X135801100Y-128453600D03*
D70*
X128651100Y-129098600D03*
X128651100Y-130368600D03*
X128651100Y-131638600D03*
X128651100Y-132908600D03*
X133951100Y-132908600D03*
X133951100Y-131638600D03*
X133951100Y-130368600D03*
X133951100Y-129098600D03*
D41*
X132751100Y-110403600D03*
X131051100Y-110403600D03*
D35*
X156151100Y-114703600D03*
X158051100Y-114703600D03*
D71*
X139611100Y-81273600D03*
X139611100Y-78733600D03*
X142151100Y-81273600D03*
X142151100Y-78733600D03*
X144691100Y-81273600D03*
X144691100Y-78733600D03*
X147231100Y-81273600D03*
X147231100Y-78733600D03*
X149771100Y-81273600D03*
X149771100Y-78733600D03*
X152311100Y-81273600D03*
X152311100Y-78733600D03*
X154851100Y-81273600D03*
X154851100Y-78733600D03*
X157391100Y-81273600D03*
X157391100Y-78733600D03*
D48*
X133751100Y-96903600D03*
X135451100Y-96903600D03*
M02*
